%TF.GenerationSoftware,Altium Limited,Altium Designer,21.8.1 (53)*%
G04 Layer_Physical_Order=1*
G04 Layer_Color=255*
%FSLAX45Y45*%
%MOMM*%
%TF.SameCoordinates,385564F4-8892-4696-B1AD-25C4AC7C7797*%
%TF.FilePolarity,Positive*%
%TF.FileFunction,Copper,L1,Top,Signal*%
%TF.Part,Single*%
G01*
G75*
%TA.AperFunction,ConnectorPad*%
%ADD10R,1.00000X1.70000*%
%TA.AperFunction,SMDPad,CuDef*%
%ADD11R,1.52400X1.52400*%
G04:AMPARAMS|DCode=12|XSize=0.28mm|YSize=1.56mm|CornerRadius=0.07mm|HoleSize=0mm|Usage=FLASHONLY|Rotation=225.000|XOffset=0mm|YOffset=0mm|HoleType=Round|Shape=RoundedRectangle|*
%AMROUNDEDRECTD12*
21,1,0.28000,1.42000,0,0,225.0*
21,1,0.14000,1.56000,0,0,225.0*
1,1,0.14000,-0.55154,0.45255*
1,1,0.14000,-0.45255,0.55154*
1,1,0.14000,0.55154,-0.45255*
1,1,0.14000,0.45255,-0.55154*
%
%ADD12ROUNDEDRECTD12*%
G04:AMPARAMS|DCode=13|XSize=0.28mm|YSize=1.56mm|CornerRadius=0.07mm|HoleSize=0mm|Usage=FLASHONLY|Rotation=135.000|XOffset=0mm|YOffset=0mm|HoleType=Round|Shape=RoundedRectangle|*
%AMROUNDEDRECTD13*
21,1,0.28000,1.42000,0,0,135.0*
21,1,0.14000,1.56000,0,0,135.0*
1,1,0.14000,0.45255,0.55154*
1,1,0.14000,0.55154,0.45255*
1,1,0.14000,-0.45255,-0.55154*
1,1,0.14000,-0.55154,-0.45255*
%
%ADD13ROUNDEDRECTD13*%
G04:AMPARAMS|DCode=14|XSize=5.6mm|YSize=2.1mm|CornerRadius=0mm|HoleSize=0mm|Usage=FLASHONLY|Rotation=225.000|XOffset=0mm|YOffset=0mm|HoleType=Round|Shape=Rectangle|*
%AMROTATEDRECTD14*
4,1,4,1.23744,2.72236,2.72236,1.23744,-1.23744,-2.72236,-2.72236,-1.23744,1.23744,2.72236,0.0*
%
%ADD14ROTATEDRECTD14*%

%ADD15R,2.89560X5.41020*%
%ADD16R,10.70000X8.60000*%
%ADD17R,1.00000X3.40000*%
%ADD18R,0.60000X0.60000*%
%ADD19R,1.40000X0.95000*%
%ADD20R,0.60000X0.60000*%
%ADD21R,1.40000X1.00000*%
%ADD22R,1.00000X1.40000*%
%ADD23R,1.70000X1.00000*%
%ADD24R,1.44780X0.76200*%
%ADD25R,0.76200X1.44780*%
%ADD26R,1.00000X1.70000*%
%ADD27R,1.70000X1.40000*%
G04:AMPARAMS|DCode=28|XSize=1.4mm|YSize=1.7mm|CornerRadius=0mm|HoleSize=0mm|Usage=FLASHONLY|Rotation=135.000|XOffset=0mm|YOffset=0mm|HoleType=Round|Shape=Rectangle|*
%AMROTATEDRECTD28*
4,1,4,1.09602,0.10607,-0.10607,-1.09602,-1.09602,-0.10607,0.10607,1.09602,1.09602,0.10607,0.0*
%
%ADD28ROTATEDRECTD28*%

G04:AMPARAMS|DCode=29|XSize=1mm|YSize=1.7mm|CornerRadius=0mm|HoleSize=0mm|Usage=FLASHONLY|Rotation=45.000|XOffset=0mm|YOffset=0mm|HoleType=Round|Shape=Rectangle|*
%AMROTATEDRECTD29*
4,1,4,0.24749,-0.95460,-0.95460,0.24749,-0.24749,0.95460,0.95460,-0.24749,0.24749,-0.95460,0.0*
%
%ADD29ROTATEDRECTD29*%

G04:AMPARAMS|DCode=30|XSize=1.4mm|YSize=1.7mm|CornerRadius=0mm|HoleSize=0mm|Usage=FLASHONLY|Rotation=225.000|XOffset=0mm|YOffset=0mm|HoleType=Round|Shape=Rectangle|*
%AMROTATEDRECTD30*
4,1,4,-0.10607,1.09602,1.09602,-0.10607,0.10607,-1.09602,-1.09602,0.10607,-0.10607,1.09602,0.0*
%
%ADD30ROTATEDRECTD30*%

G04:AMPARAMS|DCode=31|XSize=0.93mm|YSize=1.31mm|CornerRadius=0.06975mm|HoleSize=0mm|Usage=FLASHONLY|Rotation=270.000|XOffset=0mm|YOffset=0mm|HoleType=Round|Shape=RoundedRectangle|*
%AMROUNDEDRECTD31*
21,1,0.93000,1.17050,0,0,270.0*
21,1,0.79050,1.31000,0,0,270.0*
1,1,0.13950,-0.58525,-0.39525*
1,1,0.13950,-0.58525,0.39525*
1,1,0.13950,0.58525,0.39525*
1,1,0.13950,0.58525,-0.39525*
%
%ADD31ROUNDEDRECTD31*%
G04:AMPARAMS|DCode=32|XSize=3.24mm|YSize=1.31mm|CornerRadius=0.09825mm|HoleSize=0mm|Usage=FLASHONLY|Rotation=270.000|XOffset=0mm|YOffset=0mm|HoleType=Round|Shape=RoundedRectangle|*
%AMROUNDEDRECTD32*
21,1,3.24000,1.11350,0,0,270.0*
21,1,3.04350,1.31000,0,0,270.0*
1,1,0.19650,-0.55675,-1.52175*
1,1,0.19650,-0.55675,1.52175*
1,1,0.19650,0.55675,1.52175*
1,1,0.19650,0.55675,-1.52175*
%
%ADD32ROUNDEDRECTD32*%
%ADD33R,1.40000X1.70000*%
%ADD34R,2.29000X1.40000*%
%ADD35R,6.18000X5.69000*%
%TA.AperFunction,ConnectorPad*%
%ADD36R,1.70000X1.00000*%
%TA.AperFunction,SMDPad,CuDef*%
%ADD37R,3.81000X2.08000*%
%ADD38R,8.89000X11.43000*%
%ADD39R,1.80000X1.70000*%
%ADD40R,2.00000X4.00000*%
%TA.AperFunction,Conductor*%
%ADD41C,0.50000*%
%ADD42C,1.00000*%
%ADD43C,0.25000*%
%ADD44C,0.30000*%
%ADD45C,0.90000*%
%ADD46C,0.20000*%
%ADD47C,0.15000*%
%ADD48C,1.30000*%
%ADD49C,2.00000*%
%TA.AperFunction,NonConductor*%
%ADD50R,1.00000X5.08000*%
%TA.AperFunction,ComponentPad*%
%ADD51C,1.30800*%
%ADD52R,1.30800X1.30800*%
%ADD53C,1.50000*%
%ADD54R,1.50000X1.50000*%
%ADD55C,1.37000*%
%ADD56R,1.37000X1.37000*%
%ADD57C,1.65000*%
%ADD58R,1.65000X1.65000*%
%ADD59R,1.98000X1.98000*%
%ADD60C,1.93500*%
%ADD61C,1.98000*%
%ADD62R,2.25000X2.25000*%
%ADD63C,2.25000*%
%ADD64C,3.40000*%
%ADD65R,1.50000X1.50000*%
%ADD66C,1.35000*%
%ADD67R,1.65000X1.65000*%
%ADD68R,1.21800X1.21800*%
%ADD69C,1.21800*%
%ADD70O,2.50000X5.00000*%
%ADD71O,4.50000X2.25000*%
%ADD72O,2.25000X4.50000*%
%TA.AperFunction,WasherPad*%
%ADD73C,4.00000*%
%TA.AperFunction,ViaPad*%
%ADD74C,0.70000*%
%ADD75C,1.00000*%
%ADD76C,2.00000*%
G36*
X3572802Y8915911D02*
X3576330Y8901184D01*
X3582326Y8885307D01*
X3590791Y8868278D01*
X3601724Y8850100D01*
X3615124Y8830771D01*
X3630993Y8810290D01*
X3670135Y8765879D01*
X3693408Y8741947D01*
X3656505Y8708140D01*
X3632168Y8731906D01*
X3567214Y8788304D01*
X3548249Y8802136D01*
X3530626Y8813485D01*
X3514347Y8822349D01*
X3499410Y8828730D01*
X3485817Y8832627D01*
X3473567Y8834040D01*
X3571741Y8929488D01*
X3572802Y8915911D01*
D02*
G37*
G36*
X5500311Y8717466D02*
X5504110Y8702838D01*
X5510434Y8686957D01*
X5519286Y8669823D01*
X5530665Y8651437D01*
X5544570Y8631798D01*
X5579961Y8588762D01*
X5601447Y8565365D01*
X5625460Y8540716D01*
X5590104Y8505360D01*
X5565455Y8529373D01*
X5499022Y8586250D01*
X5479383Y8600155D01*
X5460997Y8611534D01*
X5443863Y8620386D01*
X5427982Y8626710D01*
X5413354Y8630509D01*
X5399978Y8631780D01*
X5499040Y8730842D01*
X5500311Y8717466D01*
D02*
G37*
G36*
X4136376Y7016362D02*
X4125832Y7005647D01*
X4095546Y6971240D01*
X4090947Y6964752D01*
X4087537Y6959110D01*
X4085316Y6954313D01*
X4084284Y6950362D01*
X4084441Y6947256D01*
X4033524Y7002412D01*
X4036591Y7002024D01*
X4040477Y7002817D01*
X4045181Y7004793D01*
X4050704Y7007950D01*
X4057044Y7012290D01*
X4064203Y7017811D01*
X4080976Y7032400D01*
X4101020Y7051718D01*
X4136376Y7016362D01*
D02*
G37*
G36*
X3097906Y7007195D02*
X3078076Y6986662D01*
X3046903Y6949856D01*
X3035559Y6933583D01*
X3027043Y6918731D01*
X3021355Y6905299D01*
X3018496Y6893287D01*
X3018466Y6882696D01*
X3021264Y6873524D01*
X3026890Y6865774D01*
X2885774Y7006890D01*
X2893524Y7001264D01*
X2902695Y6998466D01*
X2913287Y6998497D01*
X2925298Y7001356D01*
X2938730Y7007043D01*
X2953583Y7015559D01*
X2969855Y7026903D01*
X2987548Y7041076D01*
X3027195Y7077906D01*
X3097906Y7007195D01*
D02*
G37*
G36*
X6650572Y7008742D02*
X6639367Y6997382D01*
X6601612Y6954205D01*
X6597716Y6948295D01*
X6595038Y6943293D01*
X6593579Y6939199D01*
X6593338Y6936015D01*
X6549430Y6998303D01*
X6552461Y6997536D01*
X6556281Y6997956D01*
X6560889Y6999565D01*
X6566285Y7002362D01*
X6572469Y7006348D01*
X6579442Y7011521D01*
X6595753Y7025433D01*
X6615217Y7044098D01*
X6650572Y7008742D01*
D02*
G37*
G36*
X4243210Y6984040D02*
X4242707Y6988790D01*
X4241198Y6993040D01*
X4238682Y6996790D01*
X4235161Y7000040D01*
X4230634Y7002790D01*
X4225100Y7005040D01*
X4218561Y7006790D01*
X4211015Y7008040D01*
X4202463Y7008790D01*
X4192905Y7009040D01*
Y7059040D01*
X4202463Y7059290D01*
X4211015Y7060040D01*
X4218561Y7061290D01*
X4225100Y7063040D01*
X4230634Y7065290D01*
X4235161Y7068040D01*
X4238682Y7071290D01*
X4241198Y7075040D01*
X4242707Y7079290D01*
X4243210Y7084040D01*
Y6984040D01*
D02*
G37*
G36*
X6750190Y6976420D02*
X6749687Y6981170D01*
X6748178Y6985420D01*
X6745662Y6989170D01*
X6742141Y6992420D01*
X6737614Y6995170D01*
X6732080Y6997420D01*
X6725541Y6999170D01*
X6717995Y7000420D01*
X6709443Y7001170D01*
X6699885Y7001420D01*
Y7051420D01*
X6709443Y7051670D01*
X6717995Y7052420D01*
X6725541Y7053670D01*
X6732080Y7055420D01*
X6737614Y7057670D01*
X6742141Y7060420D01*
X6745662Y7063670D01*
X6748178Y7067420D01*
X6749687Y7071670D01*
X6750190Y7076420D01*
Y6976420D01*
D02*
G37*
G36*
X6377869Y7094535D02*
X6433289Y7046194D01*
X6449355Y7034376D01*
X6464217Y7024705D01*
X6477875Y7017183D01*
X6490330Y7011807D01*
X6501581Y7008580D01*
X6511628Y7007500D01*
X6429076Y6924949D01*
X6427997Y6934996D01*
X6424769Y6946247D01*
X6419394Y6958701D01*
X6411871Y6972360D01*
X6402201Y6987222D01*
X6390382Y7003287D01*
X6360303Y7039031D01*
X6321633Y7079589D01*
X6356988Y7114944D01*
X6377869Y7094535D01*
D02*
G37*
G36*
X5369381Y6842805D02*
X5368381Y6848922D01*
X5365381Y6854395D01*
X5360381Y6859225D01*
X5353381Y6863410D01*
X5344381Y6866951D01*
X5333381Y6869849D01*
X5320381Y6872103D01*
X5305381Y6873712D01*
X5269381Y6875000D01*
Y6975001D01*
X5288381Y6975322D01*
X5320381Y6977898D01*
X5333381Y6980152D01*
X5344381Y6983049D01*
X5353381Y6986591D01*
X5360381Y6990776D01*
X5365381Y6995605D01*
X5368381Y7001078D01*
X5369381Y7007196D01*
Y6842805D01*
D02*
G37*
G36*
X4422810Y6743963D02*
X4420560Y6742816D01*
X4418575Y6740904D01*
X4416855Y6738227D01*
X4415399Y6734786D01*
X4414208Y6730580D01*
X4413281Y6725610D01*
X4412619Y6719875D01*
X4412222Y6713375D01*
X4412090Y6706110D01*
X4362090D01*
X4361958Y6713375D01*
X4360899Y6725610D01*
X4359972Y6730580D01*
X4358781Y6734786D01*
X4357326Y6738227D01*
X4355605Y6740904D01*
X4353620Y6742816D01*
X4351370Y6743963D01*
X4348855Y6744345D01*
X4425325D01*
X4422810Y6743963D01*
D02*
G37*
G36*
X6929549Y6736330D02*
X6927083Y6735145D01*
X6924907Y6733169D01*
X6923022Y6730404D01*
X6921426Y6726849D01*
X6920121Y6722503D01*
X6919106Y6717368D01*
X6918380Y6711442D01*
X6917945Y6704726D01*
X6917800Y6697220D01*
X6867800D01*
X6867655Y6704726D01*
X6866495Y6717368D01*
X6865479Y6722503D01*
X6864174Y6726849D01*
X6862578Y6730404D01*
X6860693Y6733169D01*
X6858517Y6735145D01*
X6856051Y6736330D01*
X6853295Y6736725D01*
X6932305D01*
X6929549Y6736330D01*
D02*
G37*
G36*
X4242603Y6743845D02*
X4238405Y6742345D01*
X4234700Y6739845D01*
X4231490Y6736345D01*
X4228774Y6731845D01*
X4226551Y6726345D01*
X4224822Y6719845D01*
X4223588Y6712345D01*
X4222847Y6703845D01*
X4222600Y6694345D01*
X4172600D01*
X4172353Y6703845D01*
X4171612Y6712345D01*
X4170377Y6719845D01*
X4168649Y6726345D01*
X4166426Y6731845D01*
X4163710Y6736345D01*
X4160499Y6739845D01*
X4156795Y6742345D01*
X4152597Y6743845D01*
X4147905Y6744345D01*
X4247295D01*
X4242603Y6743845D01*
D02*
G37*
G36*
X6749583Y6736225D02*
X6745385Y6734725D01*
X6741680Y6732225D01*
X6738470Y6728725D01*
X6735754Y6724225D01*
X6733531Y6718725D01*
X6731802Y6712225D01*
X6730568Y6704725D01*
X6729827Y6696225D01*
X6729580Y6686725D01*
X6679580D01*
X6679333Y6696225D01*
X6678592Y6704725D01*
X6677357Y6712225D01*
X6675629Y6718725D01*
X6673406Y6724225D01*
X6670690Y6728725D01*
X6667479Y6732225D01*
X6663775Y6734725D01*
X6659577Y6736225D01*
X6654885Y6736725D01*
X6754275D01*
X6749583Y6736225D01*
D02*
G37*
G36*
X3024240Y6841831D02*
X3021595Y6838910D01*
X3019262Y6834042D01*
X3017240Y6827227D01*
X3015529Y6818464D01*
X3014129Y6807753D01*
X3012262Y6780491D01*
X3011640Y6745440D01*
X3009993D01*
X3009695Y6669695D01*
X2882615Y6669391D01*
X2887818Y6670179D01*
X2892473Y6672519D01*
X2896581Y6676410D01*
X2900141Y6681853D01*
X2903153Y6688846D01*
X2905618Y6697390D01*
X2907535Y6707486D01*
X2908904Y6719133D01*
X2909726Y6732331D01*
X2910000Y6747080D01*
X2911598D01*
X2911166Y6763939D01*
X2909745Y6780491D01*
X2907377Y6795096D01*
X2904062Y6807753D01*
X2899799Y6818464D01*
X2894589Y6827227D01*
X2888431Y6834042D01*
X2881326Y6838910D01*
X2873274Y6841831D01*
X2864275Y6842805D01*
X3027195D01*
X3024240Y6841831D01*
D02*
G37*
G36*
X4222850Y6646912D02*
X4223600Y6638371D01*
X4224850Y6630833D01*
X4226600Y6624298D01*
X4228850Y6618766D01*
X4231600Y6614237D01*
X4234850Y6610711D01*
X4238600Y6608188D01*
X4242850Y6606668D01*
X4247600Y6606150D01*
X4152025Y6606455D01*
X4155934Y6606955D01*
X4159432Y6608455D01*
X4162518Y6610955D01*
X4165193Y6614455D01*
X4167456Y6618955D01*
X4169308Y6624455D01*
X4170748Y6630955D01*
X4171777Y6638455D01*
X4172394Y6646955D01*
X4172600Y6656455D01*
X4222600D01*
X4222850Y6646912D01*
D02*
G37*
G36*
X6706490Y6641455D02*
X6694992Y6629607D01*
X6677284Y6609094D01*
X6671074Y6600431D01*
X6666626Y6592829D01*
X6663942Y6586289D01*
X6663020Y6580810D01*
X6663860Y6576393D01*
X6666464Y6573038D01*
X6670830Y6570745D01*
X6565424Y6606150D01*
X6570854Y6604920D01*
X6576649Y6604757D01*
X6582808Y6605658D01*
X6589332Y6607626D01*
X6596220Y6610659D01*
X6603474Y6614758D01*
X6611092Y6619922D01*
X6619075Y6626153D01*
X6627423Y6633449D01*
X6636135Y6641810D01*
X6706490Y6641455D01*
D02*
G37*
G36*
X5522181Y6556000D02*
X5521679Y6560750D01*
X5520169Y6565000D01*
X5517654Y6568750D01*
X5514133Y6572000D01*
X5509605Y6574750D01*
X5504072Y6577000D01*
X5497532Y6578750D01*
X5489986Y6580000D01*
X5481435Y6580750D01*
X5471877Y6581000D01*
Y6631000D01*
X5481435Y6631250D01*
X5489986Y6632000D01*
X5497532Y6633250D01*
X5504072Y6635000D01*
X5509605Y6637250D01*
X5514133Y6640000D01*
X5517654Y6643250D01*
X5520169Y6647000D01*
X5521679Y6651250D01*
X5522181Y6656000D01*
Y6556000D01*
D02*
G37*
G36*
X5394033Y6651250D02*
X5395542Y6647000D01*
X5398058Y6643250D01*
X5401579Y6640000D01*
X5406107Y6637250D01*
X5411640Y6635000D01*
X5418180Y6633250D01*
X5425725Y6632000D01*
X5434277Y6631250D01*
X5443835Y6631000D01*
Y6581000D01*
X5434277Y6580750D01*
X5425725Y6580000D01*
X5418180Y6578750D01*
X5411640Y6577000D01*
X5406107Y6574750D01*
X5401579Y6572000D01*
X5398058Y6568750D01*
X5395542Y6565000D01*
X5394033Y6560750D01*
X5393530Y6556000D01*
Y6656000D01*
X5394033Y6651250D01*
D02*
G37*
G36*
X3191215Y6478205D02*
X3187326Y6481034D01*
X3182730Y6482448D01*
X3177426D01*
X3171416Y6481034D01*
X3164699Y6478205D01*
X3157274Y6473962D01*
X3149142Y6468306D01*
X3140304Y6461234D01*
X3120505Y6442850D01*
X3085149Y6478205D01*
X3095049Y6488458D01*
X3110605Y6506843D01*
X3116262Y6514975D01*
X3120505Y6522399D01*
X3123333Y6529116D01*
X3124747Y6535127D01*
Y6540430D01*
X3123333Y6545027D01*
X3120505Y6548916D01*
X3191215Y6478205D01*
D02*
G37*
G36*
X3010195Y6475288D02*
X3011695Y6471345D01*
X3014195Y6467866D01*
X3017695Y6464850D01*
X3022195Y6462299D01*
X3027695Y6460211D01*
X3034195Y6458588D01*
X3041695Y6457428D01*
X3050195Y6456732D01*
X3059695Y6456500D01*
Y6406500D01*
X3050195Y6406250D01*
X3041695Y6405500D01*
X3034195Y6404250D01*
X3027695Y6402500D01*
X3022195Y6400250D01*
X3017695Y6397500D01*
X3014195Y6394250D01*
X3011695Y6390500D01*
X3010195Y6386250D01*
X3009695Y6381500D01*
Y6479695D01*
X3010195Y6475288D01*
D02*
G37*
G36*
X6501963Y6377811D02*
X6516486Y6377213D01*
X6540205Y6377000D01*
Y6327000D01*
X6516486Y6326787D01*
X6501776Y6325778D01*
X6501745Y6317065D01*
X6501245Y6318953D01*
X6499745Y6320642D01*
X6497245Y6322132D01*
X6493745Y6323423D01*
X6489245Y6324516D01*
X6487508Y6324799D01*
X6442092Y6321682D01*
X6428615Y6319342D01*
X6417186Y6316576D01*
X6407805Y6313385D01*
X6400472Y6309768D01*
X6395188Y6305727D01*
Y6398274D01*
X6400472Y6394232D01*
X6407805Y6390615D01*
X6417186Y6387424D01*
X6428615Y6384659D01*
X6442092Y6382319D01*
X6475192Y6378915D01*
X6475311Y6378910D01*
X6477362Y6379250D01*
X6483897Y6381000D01*
X6489428Y6383250D01*
X6493958Y6386000D01*
X6497484Y6389250D01*
X6500009Y6393000D01*
X6501530Y6397250D01*
X6502049Y6402000D01*
X6501963Y6377811D01*
D02*
G37*
G36*
X5095850Y6320320D02*
X5095347Y6325070D01*
X5093837Y6329320D01*
X5091322Y6333070D01*
X5087801Y6336320D01*
X5083274Y6339070D01*
X5077740Y6341320D01*
X5071200Y6343070D01*
X5063655Y6344320D01*
X5055103Y6345070D01*
X5045545Y6345320D01*
Y6395320D01*
X5055103Y6395570D01*
X5063655Y6396320D01*
X5071200Y6397570D01*
X5077740Y6399320D01*
X5083274Y6401570D01*
X5087801Y6404320D01*
X5091322Y6407570D01*
X5093837Y6411320D01*
X5095347Y6415570D01*
X5095850Y6420320D01*
Y6320320D01*
D02*
G37*
G36*
X2725347Y6400695D02*
X2728122Y6368695D01*
X2730551Y6355695D01*
X2733673Y6344695D01*
X2737490Y6335695D01*
X2742000Y6328695D01*
X2747205Y6323695D01*
X2753103Y6320695D01*
X2759695Y6319695D01*
X2590305D01*
X2596897Y6320695D01*
X2602795Y6323695D01*
X2607999Y6328695D01*
X2612509Y6335695D01*
X2616326Y6344695D01*
X2619448Y6355695D01*
X2621877Y6368695D01*
X2623612Y6383695D01*
X2624653Y6400695D01*
X2625000Y6419695D01*
X2725000D01*
X2725347Y6400695D01*
D02*
G37*
G36*
X4152025Y6317065D02*
X4151525Y6320020D01*
X4150025Y6322665D01*
X4147525Y6324998D01*
X4144025Y6327020D01*
X4139525Y6328731D01*
X4134025Y6330131D01*
X4127525Y6331220D01*
X4120025Y6331998D01*
X4102025Y6332620D01*
Y6382620D01*
X4111568Y6382870D01*
X4120108Y6383620D01*
X4127645Y6384870D01*
X4134180Y6386620D01*
X4139712Y6388870D01*
X4144241Y6391620D01*
X4147767Y6394870D01*
X4150291Y6398620D01*
X4151812Y6402870D01*
X4152330Y6407620D01*
X4152025Y6317065D01*
D02*
G37*
G36*
X3140301Y6242128D02*
X3135417Y6245617D01*
X3128413Y6248739D01*
X3119291Y6251493D01*
X3108048Y6253880D01*
X3094687Y6255900D01*
X3061605Y6258838D01*
X3032200Y6259877D01*
X3021585Y6258996D01*
X3015085Y6257833D01*
X3009585Y6256339D01*
X3005085Y6254512D01*
X3001585Y6252354D01*
X2999085Y6249863D01*
X2997585Y6247040D01*
X2997085Y6243885D01*
Y6260483D01*
X2996087Y6260490D01*
X2992927Y6310490D01*
X2997085Y6310533D01*
Y6319475D01*
X2997585Y6317768D01*
X2999085Y6316241D01*
X3001585Y6314893D01*
X3005085Y6313725D01*
X3009585Y6312736D01*
X3015085Y6311928D01*
X3023440Y6311284D01*
X3090457Y6316537D01*
X3104025Y6319197D01*
X3115614Y6322341D01*
X3125223Y6325970D01*
X3132852Y6330081D01*
X3138502Y6334677D01*
X3140301Y6242128D01*
D02*
G37*
G36*
X5384693Y6398790D02*
X5386203Y6394540D01*
X5388718Y6390790D01*
X5392239Y6387540D01*
X5396766Y6384790D01*
X5402300Y6382540D01*
X5408840Y6380790D01*
X5416385Y6379540D01*
X5423254Y6378937D01*
X5494720Y6383564D01*
X5508154Y6385775D01*
X5519511Y6388388D01*
X5528792Y6391402D01*
X5535995Y6394819D01*
X5541122Y6398637D01*
X5540396Y6306089D01*
X5534959Y6310355D01*
X5527503Y6314172D01*
X5518027Y6317539D01*
X5506529Y6320458D01*
X5493013Y6322927D01*
X5459918Y6326519D01*
X5423073Y6328127D01*
X5416385Y6327540D01*
X5408840Y6326290D01*
X5402300Y6324540D01*
X5396766Y6322290D01*
X5392239Y6319540D01*
X5388718Y6316290D01*
X5386203Y6312540D01*
X5384693Y6308290D01*
X5384190Y6303540D01*
Y6403540D01*
X5384693Y6398790D01*
D02*
G37*
G36*
X5839560Y6275800D02*
X5841060Y6267300D01*
X5843560Y6259800D01*
X5847060Y6253300D01*
X5851560Y6247800D01*
X5857060Y6243300D01*
X5863560Y6239800D01*
X5871060Y6237300D01*
X5879560Y6235800D01*
X5889060Y6235300D01*
Y6185300D01*
X5879560Y6184800D01*
X5871060Y6183300D01*
X5863560Y6180800D01*
X5857060Y6177300D01*
X5851560Y6172800D01*
X5847060Y6167300D01*
X5843560Y6160800D01*
X5841060Y6153300D01*
X5839560Y6144800D01*
X5839060Y6135300D01*
X5789060Y6210300D01*
X5839060Y6285300D01*
X5839560Y6275800D01*
D02*
G37*
G36*
X4985305Y6106875D02*
X4984956Y6108746D01*
X4983911Y6110419D01*
X4982169Y6111896D01*
X4979730Y6113176D01*
X4976594Y6114259D01*
X4972761Y6115145D01*
X4968231Y6115834D01*
X4963004Y6116326D01*
X4950460Y6116720D01*
Y6166720D01*
X4957081Y6166819D01*
X4968231Y6167606D01*
X4972761Y6168295D01*
X4976594Y6169181D01*
X4979730Y6170264D01*
X4982169Y6171544D01*
X4983911Y6173021D01*
X4984956Y6174694D01*
X4985305Y6176565D01*
Y6106875D01*
D02*
G37*
G36*
X5404908Y6192510D02*
X5406428Y6188260D01*
X5408951Y6184510D01*
X5412477Y6181260D01*
X5417006Y6178510D01*
X5422538Y6176260D01*
X5429073Y6174510D01*
X5436611Y6173260D01*
X5445151Y6172510D01*
X5454695Y6172260D01*
Y6122260D01*
X5445195Y6122064D01*
X5429195Y6120495D01*
X5422695Y6119122D01*
X5417195Y6117356D01*
X5412695Y6115199D01*
X5409195Y6112649D01*
X5406695Y6109706D01*
X5405195Y6106372D01*
X5404695Y6102645D01*
X5404390Y6197260D01*
X5404908Y6192510D01*
D02*
G37*
G36*
X5510968Y6156185D02*
X5539142Y6131411D01*
X5544334Y6127777D01*
X5548786Y6125166D01*
X5552498Y6123580D01*
X5555469Y6123017D01*
X5557700Y6123478D01*
X5522601Y6065807D01*
X5522048Y6067859D01*
X5520376Y6070873D01*
X5517586Y6074847D01*
X5513676Y6079783D01*
X5495233Y6100357D01*
X5466718Y6129582D01*
X5502073Y6164938D01*
X5510968Y6156185D01*
D02*
G37*
G36*
X2590305Y6050760D02*
X2590005Y6053610D01*
X2589105Y6056160D01*
X2587605Y6058410D01*
X2585505Y6060360D01*
X2582805Y6062010D01*
X2579505Y6063360D01*
X2575605Y6064410D01*
X2571105Y6065160D01*
X2566005Y6065610D01*
X2560305Y6065760D01*
Y6095760D01*
X2566005Y6095910D01*
X2571105Y6096360D01*
X2575605Y6097110D01*
X2579505Y6098160D01*
X2582805Y6099510D01*
X2585505Y6101160D01*
X2587605Y6103110D01*
X2589105Y6105360D01*
X2590005Y6107910D01*
X2590305Y6110760D01*
Y6050760D01*
D02*
G37*
G36*
X2852915Y6050000D02*
X2852615Y6052850D01*
X2851715Y6055400D01*
X2850215Y6057650D01*
X2848114Y6059600D01*
X2845415Y6061250D01*
X2842114Y6062600D01*
X2838215Y6063650D01*
X2833715Y6064400D01*
X2828615Y6064850D01*
X2822915Y6065000D01*
Y6095000D01*
X2828615Y6095111D01*
X2838215Y6096000D01*
X2842114Y6096779D01*
X2845415Y6097779D01*
X2848114Y6099002D01*
X2850215Y6100447D01*
X2851715Y6102114D01*
X2852615Y6104003D01*
X2852915Y6106115D01*
Y6050000D01*
D02*
G37*
G36*
X2759693Y6107150D02*
X2760602Y6104600D01*
X2762117Y6102350D01*
X2764239Y6100400D01*
X2766966Y6098750D01*
X2770300Y6097400D01*
X2774239Y6096350D01*
X2778785Y6095600D01*
X2783937Y6095150D01*
X2789695Y6095000D01*
Y6065000D01*
X2783937Y6064850D01*
X2778785Y6064400D01*
X2774239Y6063650D01*
X2770300Y6062600D01*
X2766966Y6061250D01*
X2764239Y6059600D01*
X2762117Y6057650D01*
X2760602Y6055400D01*
X2759693Y6052850D01*
X2759390Y6050000D01*
Y6110000D01*
X2759693Y6107150D01*
D02*
G37*
G36*
X6413949Y6048982D02*
X6415110Y6045743D01*
X6417340Y6041679D01*
X6420640Y6036790D01*
X6425008Y6031077D01*
X6436954Y6017175D01*
X6462891Y5990138D01*
X6427536Y5954783D01*
X6417870Y5964321D01*
X6381607Y5996086D01*
X6376769Y5999254D01*
X6372735Y6001361D01*
X6369506Y6002406D01*
X6367081Y6002390D01*
X6413857Y6051397D01*
X6413949Y6048982D01*
D02*
G37*
G36*
X6514355Y5934665D02*
X6513854Y5937096D01*
X6512355Y5939271D01*
X6509854Y5941191D01*
X6506355Y5942854D01*
X6501854Y5944261D01*
X6496355Y5945413D01*
X6489854Y5946309D01*
X6473854Y5947332D01*
X6464355Y5947460D01*
Y5997460D01*
X6473854Y5997588D01*
X6496355Y5999507D01*
X6501854Y6000659D01*
X6506355Y6002066D01*
X6509854Y6003730D01*
X6512355Y6005649D01*
X6513854Y6007824D01*
X6514355Y6010255D01*
Y5934665D01*
D02*
G37*
G36*
X1375880Y6075337D02*
X1376169Y6033829D01*
X1386293Y5882634D01*
X1390054Y5863664D01*
X1394393Y5848450D01*
X1399310Y5836993D01*
X1404806Y5829292D01*
X1282694Y5829610D01*
X1326530Y5785355D01*
X1291175Y5750000D01*
X1375000D01*
X1375338Y5714048D01*
X1378123Y5674906D01*
X1408769D01*
X1402353Y5665877D01*
X1396612Y5653856D01*
X1391547Y5638843D01*
X1387157Y5620840D01*
X1383469Y5600000D01*
X1387157Y5579160D01*
X1391547Y5561157D01*
X1396612Y5546144D01*
X1402353Y5534123D01*
X1408769Y5525094D01*
X1377018D01*
X1375338Y5485952D01*
X1375000Y5450000D01*
X1291175D01*
X1326530Y5414645D01*
X1183228Y5269291D01*
X1123370Y5401570D01*
X1130628Y5399583D01*
X1139217Y5399898D01*
X1149136Y5402518D01*
X1160386Y5407441D01*
X1172965Y5414667D01*
X1186875Y5424197D01*
X1202116Y5436032D01*
X1236588Y5466610D01*
X1255820Y5485355D01*
X1274846Y5466329D01*
X1274662Y5485952D01*
X1271877Y5525094D01*
X1241231D01*
X1247647Y5534123D01*
X1253388Y5546144D01*
X1258453Y5561157D01*
X1262843Y5579160D01*
X1266530Y5600000D01*
X1262843Y5620840D01*
X1258453Y5638843D01*
X1253388Y5653856D01*
X1247647Y5665877D01*
X1241231Y5674906D01*
X1272982D01*
X1274662Y5714048D01*
X1274846Y5733671D01*
X1255820Y5714645D01*
X1236588Y5733390D01*
X1186875Y5775802D01*
X1172965Y5785333D01*
X1160386Y5792559D01*
X1149136Y5797482D01*
X1139217Y5800102D01*
X1130629Y5800417D01*
X1123370Y5798429D01*
X1183228Y5930709D01*
X1184807Y5928740D01*
X1189220Y5923978D01*
X1258063Y5854477D01*
X1261047Y5864556D01*
X1264982Y5883620D01*
X1268312Y5906409D01*
X1273155Y5963157D01*
X1275880Y6076210D01*
X1375880Y6075337D01*
D02*
G37*
G36*
X6501745Y5781065D02*
X6501245Y5783930D01*
X6499745Y5786492D01*
X6497245Y5788753D01*
X6493745Y5790713D01*
X6489245Y5792371D01*
X6483745Y5793728D01*
X6477245Y5794783D01*
X6469745Y5795537D01*
X6457597Y5795944D01*
X6455537Y5795890D01*
X6446985Y5795140D01*
X6439439Y5793890D01*
X6432900Y5792140D01*
X6427366Y5789890D01*
X6422839Y5787140D01*
X6419318Y5783890D01*
X6416803Y5780140D01*
X6415293Y5775890D01*
X6414790Y5771140D01*
Y5871140D01*
X6415293Y5866390D01*
X6416803Y5862140D01*
X6419318Y5858390D01*
X6422839Y5855140D01*
X6427366Y5852390D01*
X6432900Y5850140D01*
X6439439Y5848390D01*
X6446985Y5847140D01*
X6455537Y5846390D01*
X6458400Y5846315D01*
X6461245Y5846390D01*
X6469745Y5847140D01*
X6477245Y5848390D01*
X6483745Y5850140D01*
X6489245Y5852390D01*
X6493745Y5855140D01*
X6497245Y5858390D01*
X6499745Y5862140D01*
X6501245Y5866390D01*
X6501745Y5871140D01*
Y5781065D01*
D02*
G37*
G36*
X7541110Y5731157D02*
X7541860Y5722605D01*
X7543110Y5715059D01*
X7544860Y5708520D01*
X7547110Y5702986D01*
X7549860Y5698459D01*
X7553110Y5694938D01*
X7556860Y5692422D01*
X7561110Y5690913D01*
X7565860Y5690410D01*
X7465860D01*
X7470610Y5690913D01*
X7474860Y5692422D01*
X7478610Y5694938D01*
X7481860Y5698459D01*
X7484610Y5702986D01*
X7486860Y5708520D01*
X7488610Y5715059D01*
X7489860Y5722605D01*
X7490610Y5731157D01*
X7490860Y5740715D01*
X7540860D01*
X7541110Y5731157D01*
D02*
G37*
G36*
X7292074Y5682245D02*
X7293146Y5669858D01*
X7294085Y5664826D01*
X7295291Y5660568D01*
X7296766Y5657084D01*
X7298508Y5654374D01*
X7300519Y5652439D01*
X7302798Y5651277D01*
X7305345Y5650890D01*
X7228535D01*
X7231082Y5651277D01*
X7233361Y5652439D01*
X7235372Y5654374D01*
X7237114Y5657084D01*
X7238589Y5660568D01*
X7239795Y5664826D01*
X7240734Y5669858D01*
X7241404Y5675665D01*
X7241806Y5682245D01*
X7241940Y5689600D01*
X7291940D01*
X7292074Y5682245D01*
D02*
G37*
G36*
X6501745Y5591065D02*
X6501245Y5595757D01*
X6499745Y5599955D01*
X6497245Y5603660D01*
X6493745Y5606870D01*
X6489245Y5609586D01*
X6483745Y5611809D01*
X6477245Y5613538D01*
X6469745Y5614772D01*
X6461245Y5615513D01*
X6451745Y5615760D01*
Y5665760D01*
X6461245Y5666007D01*
X6469745Y5666748D01*
X6477245Y5667983D01*
X6483745Y5669711D01*
X6489245Y5671934D01*
X6493745Y5674650D01*
X6497245Y5677861D01*
X6499745Y5681565D01*
X6501245Y5685763D01*
X6501745Y5690455D01*
Y5591065D01*
D02*
G37*
G36*
X5342625Y5537697D02*
X5340500Y5536938D01*
X5338625Y5535672D01*
X5337000Y5533901D01*
X5335625Y5531624D01*
X5334500Y5528840D01*
X5333625Y5525551D01*
X5333000Y5521755D01*
X5332625Y5517453D01*
X5332500Y5512645D01*
X5307500D01*
X5307375Y5517453D01*
X5307000Y5521755D01*
X5306375Y5525551D01*
X5305500Y5528840D01*
X5304375Y5531624D01*
X5303000Y5533901D01*
X5301375Y5535672D01*
X5299500Y5536938D01*
X5297375Y5537697D01*
X5295000Y5537950D01*
X5345000D01*
X5342625Y5537697D01*
D02*
G37*
G36*
X5082389Y5577604D02*
X5084525Y5548216D01*
X5085504Y5542900D01*
X5086661Y5538394D01*
X5086952Y5537590D01*
X5097300D01*
X5094450Y5537287D01*
X5091900Y5536378D01*
X5089650Y5534862D01*
X5088543Y5533658D01*
X5089509Y5531819D01*
X5091200Y5529749D01*
X5085943D01*
X5084700Y5526680D01*
X5083650Y5522740D01*
X5082900Y5518195D01*
X5082450Y5513043D01*
X5082300Y5507285D01*
X5052300D01*
X5052150Y5513043D01*
X5051700Y5518195D01*
X5050950Y5522740D01*
X5049900Y5526680D01*
X5048657Y5529749D01*
X5043400D01*
X5045091Y5531819D01*
X5046057Y5533658D01*
X5044950Y5534862D01*
X5042700Y5536378D01*
X5040150Y5537287D01*
X5037300Y5537590D01*
X5047648D01*
X5047939Y5538394D01*
X5049096Y5542900D01*
X5050075Y5548216D01*
X5051499Y5561286D01*
X5052211Y5577604D01*
X5052300Y5586980D01*
X5082300D01*
X5082389Y5577604D01*
D02*
G37*
G36*
X7838467Y5477309D02*
X7839572Y5460560D01*
X7840079Y5457868D01*
X7840677Y5455774D01*
X7841368Y5454279D01*
X7842151Y5453382D01*
X7843026Y5453082D01*
X7783816D01*
X7784691Y5453382D01*
X7785474Y5454279D01*
X7786165Y5455774D01*
X7786763Y5457868D01*
X7787270Y5460560D01*
X7787684Y5463850D01*
X7788237Y5472225D01*
X7788421Y5482992D01*
X7838421D01*
X7838467Y5477309D01*
D02*
G37*
G36*
X3633864Y5465889D02*
X3635871Y5465616D01*
X3639215Y5465374D01*
X3676005Y5464650D01*
X3700086Y5464586D01*
Y5364586D01*
X3687326Y5364417D01*
X3657101Y5361883D01*
X3649711Y5360363D01*
X3643662Y5358505D01*
X3638956Y5356309D01*
X3635592Y5353776D01*
X3633570Y5350904D01*
X3632890Y5347695D01*
X3633195Y5466195D01*
X3633864Y5465889D01*
D02*
G37*
G36*
X1585735Y5344575D02*
X1580807Y5345500D01*
X1575001Y5344931D01*
X1568319Y5342869D01*
X1560758Y5339313D01*
X1552320Y5334264D01*
X1543005Y5327721D01*
X1532812Y5319684D01*
X1509793Y5299130D01*
X1496968Y5286612D01*
X1483079Y5272330D01*
X1451347Y5234690D01*
X1444082Y5223880D01*
X1438473Y5213939D01*
X1434519Y5204865D01*
X1432222Y5196660D01*
X1431581Y5189324D01*
X1432595Y5182855D01*
X1357855Y5257596D01*
X1364323Y5256581D01*
X1371660Y5257222D01*
X1379865Y5259519D01*
X1388939Y5263473D01*
X1398880Y5269082D01*
X1409690Y5276347D01*
X1421368Y5285268D01*
X1447329Y5308079D01*
X1461612Y5321968D01*
X1474130Y5334793D01*
X1502721Y5368005D01*
X1509264Y5377320D01*
X1514313Y5385758D01*
X1517869Y5393319D01*
X1519931Y5400002D01*
X1520500Y5405807D01*
X1519574Y5410735D01*
X1585735Y5344575D01*
D02*
G37*
G36*
X3185160Y5328920D02*
X2230120D01*
Y5473700D01*
X1790700D01*
Y5699760D01*
X2562860D01*
Y5915764D01*
X3185160D01*
Y5328920D01*
D02*
G37*
G36*
X7312190Y5362047D02*
X7307940Y5360537D01*
X7304190Y5358022D01*
X7300940Y5354501D01*
X7298190Y5349974D01*
X7295940Y5344440D01*
X7294190Y5337900D01*
X7292940Y5330355D01*
X7292190Y5321803D01*
X7291940Y5312245D01*
X7241940D01*
X7241690Y5321803D01*
X7240940Y5330355D01*
X7239690Y5337900D01*
X7237940Y5344440D01*
X7235690Y5349974D01*
X7232940Y5354501D01*
X7229690Y5358022D01*
X7225940Y5360537D01*
X7221690Y5362047D01*
X7216940Y5362550D01*
X7316940D01*
X7312190Y5362047D01*
D02*
G37*
G36*
X7292190Y5290537D02*
X7292940Y5281985D01*
X7294190Y5274440D01*
X7295940Y5267900D01*
X7298190Y5262366D01*
X7300940Y5257839D01*
X7304190Y5254318D01*
X7307940Y5251803D01*
X7312190Y5250293D01*
X7316940Y5249790D01*
X7216940D01*
X7221690Y5250294D01*
X7225940Y5251803D01*
X7229690Y5254318D01*
X7232940Y5257839D01*
X7235690Y5262366D01*
X7237940Y5267900D01*
X7239690Y5274440D01*
X7240940Y5281985D01*
X7241690Y5290537D01*
X7241940Y5300095D01*
X7291940D01*
X7292190Y5290537D01*
D02*
G37*
G36*
X5411059Y5284619D02*
X5414814Y5281614D01*
X5418715Y5278962D01*
X5422764Y5276664D01*
X5426958Y5274719D01*
X5431299Y5273128D01*
X5435786Y5271891D01*
X5440420Y5271007D01*
X5445201Y5270477D01*
X5450127Y5270300D01*
X5419950Y5245300D01*
X5364772Y5270300D01*
X5369345Y5270477D01*
X5373065Y5271007D01*
X5375931Y5271891D01*
X5377944Y5273128D01*
X5379103Y5274719D01*
X5379408Y5276664D01*
X5378860Y5278962D01*
X5377458Y5281614D01*
X5375203Y5284619D01*
X5372095Y5287977D01*
X5407450D01*
X5411059Y5284619D01*
D02*
G37*
G36*
X7561110Y5322527D02*
X7556860Y5321018D01*
X7553110Y5318502D01*
X7549860Y5314981D01*
X7547110Y5310454D01*
X7544860Y5304920D01*
X7543110Y5298381D01*
X7541860Y5290835D01*
X7541249Y5283870D01*
X7541860Y5276905D01*
X7543110Y5269360D01*
X7544860Y5262820D01*
X7547110Y5257286D01*
X7549860Y5252759D01*
X7553110Y5249238D01*
X7556860Y5246723D01*
X7561110Y5245213D01*
X7565860Y5244710D01*
X7465860D01*
X7470610Y5245214D01*
X7474860Y5246723D01*
X7478610Y5249238D01*
X7481860Y5252759D01*
X7484610Y5257286D01*
X7486860Y5262820D01*
X7488610Y5269360D01*
X7489860Y5276905D01*
X7490471Y5283870D01*
X7489860Y5290835D01*
X7488610Y5298381D01*
X7486860Y5304920D01*
X7484610Y5310454D01*
X7481860Y5314981D01*
X7478610Y5318502D01*
X7474860Y5321018D01*
X7470610Y5322527D01*
X7465860Y5323030D01*
X7565860D01*
X7561110Y5322527D01*
D02*
G37*
G36*
X4007903Y5280234D02*
X4011961Y5278149D01*
X4017087Y5276309D01*
X4023281Y5274715D01*
X4030543Y5273366D01*
X4048271Y5271404D01*
X4070270Y5270423D01*
X4082872Y5270300D01*
Y5245300D01*
X4070270Y5245177D01*
X4030543Y5242234D01*
X4023281Y5240885D01*
X4017087Y5239291D01*
X4011961Y5237451D01*
X4007903Y5235366D01*
X4004913Y5233036D01*
Y5282564D01*
X4007903Y5280234D01*
D02*
G37*
G36*
X3955447Y5233036D02*
X3952457Y5235366D01*
X3948399Y5237451D01*
X3943273Y5239291D01*
X3937079Y5240885D01*
X3929817Y5242234D01*
X3912089Y5244196D01*
X3890090Y5245177D01*
X3877488Y5245300D01*
Y5270300D01*
X3890090Y5270423D01*
X3929817Y5273366D01*
X3937079Y5274715D01*
X3943273Y5276309D01*
X3948399Y5278149D01*
X3952457Y5280234D01*
X3955447Y5282564D01*
Y5233036D01*
D02*
G37*
G36*
X7601055Y5240323D02*
X7602555Y5236125D01*
X7605055Y5232421D01*
X7608555Y5229210D01*
X7613055Y5226494D01*
X7618555Y5224271D01*
X7625055Y5222543D01*
X7632555Y5221308D01*
X7641055Y5220567D01*
X7650555Y5220320D01*
Y5170320D01*
X7641055Y5170073D01*
X7632555Y5169332D01*
X7625055Y5168098D01*
X7618555Y5166369D01*
X7613055Y5164146D01*
X7608555Y5161430D01*
X7605055Y5158220D01*
X7602555Y5154515D01*
X7601055Y5150317D01*
X7600555Y5145625D01*
Y5245015D01*
X7601055Y5240323D01*
D02*
G37*
G36*
X4168530Y5103260D02*
X4168277Y5105635D01*
X4167517Y5107760D01*
X4166252Y5109635D01*
X4164481Y5111260D01*
X4162204Y5112635D01*
X4159420Y5113760D01*
X4156130Y5114635D01*
X4152335Y5115260D01*
X4148033Y5115635D01*
X4143225Y5115760D01*
Y5140760D01*
X4148033Y5140885D01*
X4152335Y5141260D01*
X4156130Y5141885D01*
X4159420Y5142760D01*
X4162204Y5143885D01*
X4164481Y5145260D01*
X4166252Y5146885D01*
X4167517Y5148760D01*
X4168277Y5150885D01*
X4168530Y5153260D01*
Y5103260D01*
D02*
G37*
G36*
X4457563Y5121627D02*
X4458323Y5119502D01*
X4459588Y5117627D01*
X4461359Y5116001D01*
X4463636Y5114627D01*
X4466420Y5113502D01*
X4469710Y5112627D01*
X4473505Y5112001D01*
X4477807Y5111627D01*
X4482615Y5111502D01*
Y5086501D01*
X4477807Y5086376D01*
X4473505Y5086002D01*
X4469710Y5085376D01*
X4466420Y5084502D01*
X4463636Y5083376D01*
X4461359Y5082002D01*
X4459588Y5080376D01*
X4458323Y5078501D01*
X4457563Y5076376D01*
X4457310Y5074002D01*
Y5124001D01*
X4457563Y5121627D01*
D02*
G37*
G36*
X1719619Y5216375D02*
X1737101Y5204543D01*
X1756948Y5194103D01*
X1779158Y5185055D01*
X1803731Y5177400D01*
X1830669Y5171136D01*
X1859970Y5166264D01*
X1891634Y5162784D01*
X1962054Y5160000D01*
Y5140000D01*
X1925663Y5139304D01*
X1859970Y5133736D01*
X1830669Y5128864D01*
X1803731Y5122600D01*
X1779158Y5114944D01*
X1756948Y5105896D01*
X1737101Y5095456D01*
X1719619Y5083625D01*
X1704500Y5070401D01*
Y5229599D01*
X1719619Y5216375D01*
D02*
G37*
G36*
X7838650Y5085705D02*
X7839336Y5077515D01*
X7840479Y5070289D01*
X7842081Y5064026D01*
X7844139Y5058726D01*
X7846655Y5054391D01*
X7849628Y5051018D01*
X7853059Y5048609D01*
X7856947Y5047164D01*
X7861293Y5046682D01*
X7765549D01*
X7769895Y5047164D01*
X7773783Y5048609D01*
X7777214Y5051018D01*
X7780187Y5054391D01*
X7782703Y5058726D01*
X7784761Y5064026D01*
X7786363Y5070289D01*
X7787506Y5077515D01*
X7788192Y5085705D01*
X7788421Y5094859D01*
X7838421D01*
X7838650Y5085705D01*
D02*
G37*
G36*
X5236759Y5079556D02*
X5260281Y5059367D01*
X5267168Y5054478D01*
X5273578Y5050511D01*
X5279512Y5047465D01*
X5284969Y5045339D01*
X5289949Y5044134D01*
X5294453Y5043850D01*
X5260935Y5007321D01*
X5260348Y5010280D01*
X5258821Y5013929D01*
X5256353Y5018269D01*
X5252945Y5023300D01*
X5248597Y5029021D01*
X5237079Y5042536D01*
X5212748Y5067990D01*
X5227966Y5088128D01*
X5236759Y5079556D01*
D02*
G37*
G36*
X7182245Y4960705D02*
X7181995Y4960647D01*
X7181245Y4960595D01*
X7169995Y4960427D01*
X7157245Y4960400D01*
Y4985400D01*
X7162034Y4985525D01*
X7166322Y4985900D01*
X7170107Y4986525D01*
X7173391Y4987400D01*
X7176172Y4988525D01*
X7178452Y4989900D01*
X7180229Y4991525D01*
X7181505Y4993400D01*
X7182278Y4995525D01*
X7182550Y4997900D01*
X7182245Y4960705D01*
D02*
G37*
G36*
X5515048Y5028724D02*
X5511505Y5024879D01*
X5508335Y5020138D01*
X5505537Y5014501D01*
X5503113Y5007967D01*
X5501062Y5000538D01*
X5499384Y4992212D01*
X5498078Y4982990D01*
X5496586Y4961858D01*
X5496400Y4949947D01*
X5476400Y4953015D01*
X5476291Y4965690D01*
X5473679Y5005581D01*
X5472482Y5012852D01*
X5471067Y5019042D01*
X5469434Y5024152D01*
X5467584Y5028181D01*
X5465516Y5031129D01*
X5515048Y5028724D01*
D02*
G37*
G36*
X7830124Y4980650D02*
X7829242Y4978303D01*
X7828463Y4975085D01*
X7827789Y4970994D01*
X7826751Y4960197D01*
X7826501Y4952901D01*
X7838421D01*
X7836046Y4952648D01*
X7833921Y4951889D01*
X7832046Y4950624D01*
X7830421Y4948853D01*
X7829046Y4946575D01*
X7827921Y4943792D01*
X7827046Y4940502D01*
X7826421Y4936706D01*
X7826046Y4932405D01*
X7825921Y4927597D01*
X7800921D01*
X7800796Y4932405D01*
X7800421Y4936706D01*
X7799796Y4940502D01*
X7798921Y4943792D01*
X7797796Y4946575D01*
X7796421Y4948853D01*
X7794796Y4950624D01*
X7792921Y4951889D01*
X7790796Y4952648D01*
X7788421Y4952901D01*
X7799847D01*
X7798379Y4975085D01*
X7797600Y4978303D01*
X7796718Y4980650D01*
X7795732Y4982125D01*
X7831110D01*
X7830124Y4980650D01*
D02*
G37*
G36*
X1971747Y5063462D02*
X1989257Y5050898D01*
X2009076Y5039813D01*
X2031204Y5030205D01*
X2055639Y5022076D01*
X2082383Y5015425D01*
X2111436Y5010251D01*
X2142796Y5006556D01*
X2212442Y5003600D01*
X2210446Y4978600D01*
X2172871Y4977997D01*
X2105564Y4973173D01*
X2075832Y4968952D01*
X2048715Y4963526D01*
X2024211Y4956893D01*
X2002322Y4949054D01*
X1983048Y4940009D01*
X1966387Y4929759D01*
X1952342Y4918302D01*
X1956544Y5077503D01*
X1971747Y5063462D01*
D02*
G37*
G36*
X7558570Y4955427D02*
X7554320Y4953917D01*
X7550570Y4951402D01*
X7547320Y4947881D01*
X7544570Y4943354D01*
X7542320Y4937820D01*
X7540570Y4931280D01*
X7539320Y4923735D01*
X7538570Y4915183D01*
X7538320Y4905625D01*
X7488320D01*
X7488070Y4915183D01*
X7487320Y4923735D01*
X7486070Y4931280D01*
X7484320Y4937820D01*
X7482070Y4943354D01*
X7479320Y4947881D01*
X7476070Y4951402D01*
X7472320Y4953917D01*
X7468070Y4955427D01*
X7463320Y4955930D01*
X7563320D01*
X7558570Y4955427D01*
D02*
G37*
G36*
X5758583Y4806084D02*
X5679239Y4801688D01*
X5679211Y4826687D01*
X5688682Y4826977D01*
X5697563Y4827845D01*
X5705855Y4829291D01*
X5713558Y4831316D01*
X5720670Y4833920D01*
X5727194Y4837103D01*
X5733127Y4840864D01*
X5738471Y4845203D01*
X5743225Y4850121D01*
X5747390Y4855618D01*
X5758583Y4806084D01*
D02*
G37*
G36*
X5302206Y4816351D02*
X5283388Y4797532D01*
X5283157Y4797979D01*
X5282579Y4798752D01*
X5281652Y4799849D01*
X5274468Y4807490D01*
X5265427Y4816634D01*
X5283105Y4834311D01*
X5302206Y4816351D01*
D02*
G37*
G36*
X1719619Y4916375D02*
X1737101Y4904543D01*
X1756948Y4894103D01*
X1779158Y4885056D01*
X1803731Y4877400D01*
X1830669Y4871136D01*
X1859970Y4866264D01*
X1891634Y4862784D01*
X1962054Y4860000D01*
Y4840000D01*
X1925663Y4839304D01*
X1859970Y4833736D01*
X1830669Y4828864D01*
X1803731Y4822600D01*
X1779158Y4814944D01*
X1756948Y4805896D01*
X1737101Y4795456D01*
X1719619Y4783625D01*
X1704500Y4770401D01*
Y4929599D01*
X1719619Y4916375D01*
D02*
G37*
G36*
X6269715Y4811334D02*
X6266459Y4810783D01*
X6262552Y4809296D01*
X6257993Y4806874D01*
X6252785Y4803515D01*
X6246925Y4799222D01*
X6233252Y4787827D01*
X6216976Y4772690D01*
X6207861Y4763718D01*
X6188622Y4779834D01*
X6197288Y4788704D01*
X6217745Y4812229D01*
X6222718Y4819042D01*
X6226767Y4825342D01*
X6229893Y4831127D01*
X6232096Y4836397D01*
X6233376Y4841154D01*
X6233732Y4845397D01*
X6269715Y4811334D01*
D02*
G37*
G36*
X4216183Y4787474D02*
X4220241Y4785389D01*
X4225367Y4783549D01*
X4231561Y4781955D01*
X4238823Y4780606D01*
X4256551Y4778644D01*
X4278550Y4777663D01*
X4291152Y4777540D01*
Y4752540D01*
X4278550Y4752417D01*
X4238823Y4749474D01*
X4231561Y4748125D01*
X4225367Y4746531D01*
X4220241Y4744691D01*
X4216183Y4742606D01*
X4213193Y4740276D01*
Y4789804D01*
X4216183Y4787474D01*
D02*
G37*
G36*
X5767924Y4745923D02*
X5749963Y4726822D01*
X5731144Y4745640D01*
X5731592Y4745871D01*
X5732364Y4746449D01*
X5733462Y4747375D01*
X5741102Y4754560D01*
X5750246Y4763601D01*
X5767924Y4745923D01*
D02*
G37*
G36*
X5231495Y4745640D02*
X5212677Y4726821D01*
X5212460Y4727200D01*
X5211894Y4727910D01*
X5209713Y4730329D01*
X5194788Y4745559D01*
X5212030Y4763673D01*
X5231495Y4745640D01*
D02*
G37*
G36*
X5406661Y4711007D02*
X5407250Y4709623D01*
X5408078Y4708094D01*
X5409144Y4706420D01*
X5410448Y4704601D01*
X5413771Y4700530D01*
X5418047Y4695880D01*
X5420542Y4693338D01*
X5406400Y4679196D01*
X5403858Y4681691D01*
X5395137Y4689290D01*
X5393318Y4690594D01*
X5391645Y4691660D01*
X5390115Y4692488D01*
X5388731Y4693077D01*
X5387491Y4693429D01*
X5406309Y4712247D01*
X5406661Y4711007D01*
D02*
G37*
G36*
X5610506Y4658072D02*
X5610058Y4657841D01*
X5609286Y4657263D01*
X5608188Y4656337D01*
X5600548Y4649152D01*
X5591404Y4640111D01*
X5573726Y4657789D01*
X5591687Y4676890D01*
X5610506Y4658072D01*
D02*
G37*
G36*
X5335829Y4641089D02*
X5336408Y4640317D01*
X5337334Y4639219D01*
X5344518Y4631578D01*
X5353560Y4622435D01*
X5335882Y4604757D01*
X5316780Y4622718D01*
X5335599Y4641536D01*
X5335829Y4641089D01*
D02*
G37*
G36*
X5090074Y4604219D02*
X5071256Y4585400D01*
X5071025Y4585848D01*
X5070447Y4586620D01*
X5069520Y4587718D01*
X5062336Y4595358D01*
X5053295Y4604502D01*
X5070972Y4622179D01*
X5090074Y4604219D01*
D02*
G37*
G36*
X4492270Y4660377D02*
X4501468Y4654635D01*
X4512288Y4649569D01*
X4524732Y4645179D01*
X4538798Y4641463D01*
X4554487Y4638424D01*
X4571800Y4636060D01*
X4611293Y4633358D01*
X4633474Y4633020D01*
Y4608020D01*
X4611293Y4607682D01*
X4571800Y4604980D01*
X4554487Y4602616D01*
X4538798Y4599577D01*
X4524732Y4595862D01*
X4512288Y4591471D01*
X4501468Y4586405D01*
X4492270Y4580663D01*
X4484696Y4574246D01*
Y4666794D01*
X4492270Y4660377D01*
D02*
G37*
G36*
X5980098Y4535955D02*
X5976823Y4532647D01*
X5964055Y4518313D01*
X5963074Y4516843D01*
X5962421Y4515635D01*
X5962095Y4514689D01*
X5943277Y4533508D01*
X5943258Y4533675D01*
X5943692Y4534276D01*
X5944578Y4535309D01*
X5952644Y4543768D01*
X5963444Y4554655D01*
X5980098Y4535955D01*
D02*
G37*
G36*
X6050767Y4463080D02*
X6032806Y4443979D01*
X6013987Y4462797D01*
X6014435Y4463028D01*
X6015207Y4463606D01*
X6016305Y4464532D01*
X6023945Y4471717D01*
X6033089Y4480758D01*
X6050767Y4463080D01*
D02*
G37*
G36*
X4931846Y4492081D02*
X4923417Y4483405D01*
X4903638Y4459911D01*
X4898882Y4452925D01*
X4895043Y4446362D01*
X4892123Y4440222D01*
X4890121Y4434504D01*
X4889037Y4429210D01*
X4888871Y4424338D01*
X4851539Y4457058D01*
X4854046Y4457678D01*
X4857303Y4459248D01*
X4861310Y4461766D01*
X4866067Y4465232D01*
X4877830Y4475010D01*
X4901100Y4496790D01*
X4910356Y4505947D01*
X4931846Y4492081D01*
D02*
G37*
G36*
X5123699Y4428958D02*
X5124277Y4428186D01*
X5125203Y4427088D01*
X5132388Y4419448D01*
X5141429Y4410304D01*
X5123751Y4392626D01*
X5104650Y4410587D01*
X5123468Y4429406D01*
X5123699Y4428958D01*
D02*
G37*
G36*
X5053524Y4358279D02*
X5054557Y4357393D01*
X5063016Y4349326D01*
X5073903Y4338527D01*
X5055203Y4321872D01*
X5051895Y4325147D01*
X5037562Y4337915D01*
X5036091Y4338896D01*
X5034883Y4339549D01*
X5033938Y4339875D01*
X5052756Y4358694D01*
X5052924Y4358712D01*
X5053524Y4358279D01*
D02*
G37*
G36*
X7889186Y4330547D02*
X7889955Y4330495D01*
X7901479Y4330327D01*
X7914540Y4330300D01*
Y4280300D01*
X7888930Y4279995D01*
Y4330605D01*
X7889186Y4330547D01*
D02*
G37*
G36*
X2857002Y4286335D02*
X2855727Y4285885D01*
X2854602Y4285135D01*
X2853627Y4284085D01*
X2852802Y4282735D01*
X2852127Y4281085D01*
X2851602Y4279135D01*
X2851227Y4276885D01*
X2851002Y4274335D01*
X2850927Y4271485D01*
X2827140D01*
X2827065Y4274335D01*
X2826840Y4276885D01*
X2826465Y4279135D01*
X2825940Y4281085D01*
X2825265Y4282735D01*
X2824440Y4284085D01*
X2823465Y4285135D01*
X2822340Y4285885D01*
X2821065Y4286335D01*
X2819640Y4286485D01*
X2858427D01*
X2857002Y4286335D01*
D02*
G37*
G36*
X3138955Y4285297D02*
X3137680Y4284838D01*
X3136555Y4284072D01*
X3135580Y4283001D01*
X3134755Y4281624D01*
X3134080Y4279940D01*
X3133555Y4277951D01*
X3133180Y4275655D01*
X3132955Y4273053D01*
X3132880Y4270145D01*
X3117880D01*
X3117805Y4273053D01*
X3117580Y4275655D01*
X3117205Y4277951D01*
X3116680Y4279940D01*
X3116005Y4281624D01*
X3115180Y4283001D01*
X3114205Y4284072D01*
X3113080Y4284838D01*
X3111805Y4285297D01*
X3110380Y4285450D01*
X3140380D01*
X3138955Y4285297D01*
D02*
G37*
G36*
X7113730Y4325374D02*
X7176015Y4325220D01*
Y4275220D01*
X7113730Y4275066D01*
Y4268315D01*
X7113408Y4269627D01*
X7112441Y4270801D01*
X7110831Y4271837D01*
X7108576Y4272734D01*
X7105677Y4273494D01*
X7102134Y4274115D01*
X7097947Y4274599D01*
X7087640Y4275151D01*
X7081520Y4275220D01*
Y4325220D01*
X7087640Y4325289D01*
X7102134Y4326325D01*
X7105677Y4326946D01*
X7108576Y4327706D01*
X7110831Y4328603D01*
X7112441Y4329639D01*
X7113408Y4330813D01*
X7113730Y4332125D01*
Y4325374D01*
D02*
G37*
G36*
X1893397Y4288801D02*
X1892954Y4288091D01*
X1892563Y4286967D01*
X1892224Y4285429D01*
X1891938Y4283476D01*
X1891521Y4278328D01*
X1891287Y4267500D01*
X1876287D01*
X1876260Y4271295D01*
X1875323Y4284291D01*
X1874975Y4285694D01*
X1874574Y4286698D01*
X1874118Y4287302D01*
X1873610Y4287508D01*
X1893892Y4289097D01*
X1893397Y4288801D01*
D02*
G37*
G36*
X3391775Y4276317D02*
X3390500Y4275858D01*
X3389375Y4275092D01*
X3388400Y4274021D01*
X3387575Y4272643D01*
X3386900Y4270960D01*
X3386375Y4268970D01*
X3386000Y4266675D01*
X3385775Y4264073D01*
X3385700Y4261165D01*
X3370700D01*
X3370625Y4264073D01*
X3370400Y4266675D01*
X3370025Y4268970D01*
X3369500Y4270960D01*
X3368825Y4272643D01*
X3368000Y4274021D01*
X3367025Y4275092D01*
X3365900Y4275858D01*
X3364625Y4276317D01*
X3363200Y4276470D01*
X3393200D01*
X3391775Y4276317D01*
D02*
G37*
G36*
X3662692Y4302088D02*
X3656367Y4300634D01*
X3649807Y4298433D01*
X3643013Y4295484D01*
X3635983Y4291787D01*
X3628719Y4287343D01*
X3621220Y4282152D01*
X3605519Y4269527D01*
X3597316Y4262093D01*
X3588878Y4253911D01*
X3578271Y4264518D01*
X3585725Y4272331D01*
X3592045Y4279730D01*
X3597231Y4286714D01*
X3601283Y4293284D01*
X3604202Y4299439D01*
X3605987Y4305180D01*
X3606638Y4310506D01*
X3606156Y4315418D01*
X3604540Y4319915D01*
X3601790Y4323998D01*
X3662692Y4302088D01*
D02*
G37*
G36*
X7482415Y4379288D02*
X7485415Y4374254D01*
X7490415Y4369811D01*
X7497415Y4365962D01*
X7506415Y4362704D01*
X7517415Y4360039D01*
X7530415Y4357965D01*
X7545415Y4356485D01*
X7581415Y4355300D01*
Y4255300D01*
X7562415Y4254902D01*
X7530415Y4251720D01*
X7517415Y4248936D01*
X7506415Y4245356D01*
X7497415Y4240981D01*
X7490415Y4235810D01*
X7485415Y4229844D01*
X7482415Y4223082D01*
X7481415Y4215525D01*
Y4384915D01*
X7482415Y4379288D01*
D02*
G37*
G36*
X1891362Y4224287D02*
X1891587Y4221685D01*
X1891962Y4219390D01*
X1892487Y4217400D01*
X1893162Y4215716D01*
X1893987Y4214339D01*
X1894962Y4213268D01*
X1896087Y4212502D01*
X1897362Y4212043D01*
X1898787Y4211890D01*
X1868787D01*
X1870212Y4212043D01*
X1871487Y4212502D01*
X1872612Y4213268D01*
X1873587Y4214339D01*
X1874412Y4215716D01*
X1875087Y4217400D01*
X1875612Y4219390D01*
X1875987Y4221685D01*
X1876212Y4224287D01*
X1876287Y4227195D01*
X1891287D01*
X1891362Y4224287D01*
D02*
G37*
G36*
X5130457Y4282191D02*
X5153980Y4261933D01*
X5160849Y4257023D01*
X5167232Y4253035D01*
X5173129Y4249968D01*
X5178540Y4247822D01*
X5183465Y4246598D01*
X5187904Y4246295D01*
X5154249Y4209904D01*
X5153670Y4212938D01*
X5152152Y4216652D01*
X5149695Y4221048D01*
X5146299Y4226124D01*
X5141963Y4231881D01*
X5130475Y4245437D01*
X5106199Y4270876D01*
X5121644Y4290787D01*
X5130457Y4282191D01*
D02*
G37*
G36*
X3385775Y4201667D02*
X3386000Y4199065D01*
X3386375Y4196770D01*
X3386900Y4194780D01*
X3387575Y4193097D01*
X3388400Y4191719D01*
X3389375Y4190648D01*
X3390500Y4189882D01*
X3391775Y4189423D01*
X3393200Y4189270D01*
X3363200D01*
X3364625Y4189423D01*
X3365900Y4189882D01*
X3367025Y4190648D01*
X3368000Y4191719D01*
X3368825Y4193097D01*
X3369500Y4194780D01*
X3370025Y4196770D01*
X3370400Y4199065D01*
X3370625Y4201667D01*
X3370700Y4204575D01*
X3385700D01*
X3385775Y4201667D01*
D02*
G37*
G36*
X2842193Y4202964D02*
X2842997Y4191173D01*
X2843479Y4188242D01*
X2844068Y4185809D01*
X2844765Y4183875D01*
X2845568Y4182441D01*
X2846479Y4181506D01*
X2847496Y4181070D01*
X2821784D01*
X2822801Y4181506D01*
X2823712Y4182441D01*
X2824515Y4183875D01*
X2825212Y4185809D01*
X2825801Y4188242D01*
X2826283Y4191173D01*
X2826658Y4194605D01*
X2827087Y4202964D01*
X2827140Y4207893D01*
X2842140D01*
X2842193Y4202964D01*
D02*
G37*
G36*
X3659048Y4201111D02*
X3660072Y4187958D01*
X3660687Y4184661D01*
X3661439Y4181908D01*
X3662327Y4179698D01*
X3663352Y4178032D01*
X3664513Y4176909D01*
X3665811Y4176330D01*
X3637148D01*
X3638446Y4176909D01*
X3639607Y4178032D01*
X3640632Y4179698D01*
X3641520Y4181908D01*
X3642272Y4184661D01*
X3642886Y4187958D01*
X3643365Y4191799D01*
X3643911Y4201111D01*
X3643980Y4206583D01*
X3658979D01*
X3659048Y4201111D01*
D02*
G37*
G36*
X4948653Y4137643D02*
X4948205Y4137412D01*
X4947433Y4136834D01*
X4946335Y4135908D01*
X4938695Y4128723D01*
X4929551Y4119682D01*
X4911873Y4137360D01*
X4929834Y4156461D01*
X4948653Y4137643D01*
D02*
G37*
G36*
X5407583Y4110910D02*
X5410526Y4071183D01*
X5411875Y4063921D01*
X5413469Y4057727D01*
X5415309Y4052601D01*
X5417394Y4048543D01*
X5419724Y4045553D01*
X5370196D01*
X5372526Y4048543D01*
X5374611Y4052601D01*
X5376451Y4057727D01*
X5378045Y4063921D01*
X5379394Y4071183D01*
X5381356Y4088911D01*
X5382337Y4110910D01*
X5382460Y4123512D01*
X5407460D01*
X5407583Y4110910D01*
D02*
G37*
G36*
X2544195Y4053577D02*
X2542920Y4053118D01*
X2541795Y4052352D01*
X2540820Y4051281D01*
X2539995Y4049904D01*
X2539320Y4048220D01*
X2538795Y4046230D01*
X2538420Y4043935D01*
X2538195Y4041333D01*
X2538120Y4038425D01*
X2523120D01*
X2523045Y4041333D01*
X2522820Y4043935D01*
X2522445Y4046230D01*
X2521920Y4048220D01*
X2521245Y4049904D01*
X2520420Y4051281D01*
X2519445Y4052352D01*
X2518320Y4053118D01*
X2517045Y4053577D01*
X2515620Y4053730D01*
X2545620D01*
X2544195Y4053577D01*
D02*
G37*
G36*
X2538195Y3974907D02*
X2538420Y3972305D01*
X2538795Y3970010D01*
X2539320Y3968020D01*
X2539995Y3966336D01*
X2540820Y3964959D01*
X2541795Y3963888D01*
X2542920Y3963122D01*
X2544195Y3962663D01*
X2545620Y3962510D01*
X2515620D01*
X2517045Y3962663D01*
X2518320Y3963122D01*
X2519445Y3963888D01*
X2520420Y3964959D01*
X2521245Y3966336D01*
X2521920Y3968020D01*
X2522445Y3970010D01*
X2522820Y3972305D01*
X2523045Y3974907D01*
X2523120Y3977815D01*
X2538120D01*
X2538195Y3974907D01*
D02*
G37*
G36*
X2464028Y3970421D02*
X2469580Y3965693D01*
X2472029Y3963966D01*
X2474259Y3962663D01*
X2476272Y3961784D01*
X2478066Y3961329D01*
X2479641Y3961298D01*
X2480999Y3961692D01*
X2482138Y3962510D01*
X2461230Y3941602D01*
X2462048Y3942741D01*
X2462442Y3944099D01*
X2462411Y3945674D01*
X2461956Y3947468D01*
X2461077Y3949481D01*
X2459774Y3951711D01*
X2458047Y3954160D01*
X2455895Y3956826D01*
X2450318Y3962815D01*
X2460925Y3973422D01*
X2464028Y3970421D01*
D02*
G37*
G36*
X2336457Y3958730D02*
X2353145D01*
X2349815Y3958301D01*
X2346836Y3957016D01*
X2344207Y3954875D01*
X2341929Y3951877D01*
X2340001Y3948022D01*
X2338424Y3943311D01*
X2337197Y3937743D01*
X2336321Y3931319D01*
X2335795Y3924038D01*
X2335620Y3915900D01*
X2285620D01*
X2285445Y3924038D01*
X2284043Y3937743D01*
X2282816Y3943311D01*
X2281239Y3948022D01*
X2279311Y3951877D01*
X2277033Y3954875D01*
X2274404Y3957016D01*
X2271425Y3958301D01*
X2268095Y3958730D01*
X2285337D01*
X2285620Y4008120D01*
X2335620D01*
X2336457Y3958730D01*
D02*
G37*
G36*
X5820905Y3943882D02*
X5821483Y3943109D01*
X5822409Y3942012D01*
X5829594Y3934371D01*
X5838635Y3925228D01*
X5820957Y3907550D01*
X5801856Y3925511D01*
X5820674Y3944329D01*
X5820905Y3943882D01*
D02*
G37*
G36*
X5196140Y3890156D02*
X5195194Y3889830D01*
X5193986Y3889176D01*
X5192516Y3888195D01*
X5190783Y3886886D01*
X5186530Y3883286D01*
X5178182Y3875427D01*
X5174875Y3872153D01*
X5156174Y3888807D01*
X5177321Y3908974D01*
X5196140Y3890156D01*
D02*
G37*
G36*
X5064333Y3864661D02*
X5061256Y3861433D01*
X5058661Y3858386D01*
X5056549Y3855521D01*
X5054920Y3852836D01*
X5053773Y3850332D01*
X5053109Y3848010D01*
X5052927Y3845868D01*
X5053228Y3843908D01*
X5054012Y3842129D01*
X5055278Y3840531D01*
X5022524Y3873284D01*
X5024123Y3872018D01*
X5025902Y3871235D01*
X5027862Y3870933D01*
X5030004Y3871115D01*
X5032326Y3871779D01*
X5034830Y3872926D01*
X5037514Y3874555D01*
X5040380Y3876667D01*
X5043427Y3879262D01*
X5046655Y3882339D01*
X5064333Y3864661D01*
D02*
G37*
G36*
X5998716Y3894502D02*
X6001763Y3891907D01*
X6004629Y3889795D01*
X6007313Y3888166D01*
X6009817Y3887019D01*
X6012139Y3886355D01*
X6014281Y3886173D01*
X6016241Y3886475D01*
X6018020Y3887258D01*
X6019619Y3888524D01*
X5986865Y3855771D01*
X5988131Y3857369D01*
X5988915Y3859148D01*
X5989216Y3861109D01*
X5989035Y3863250D01*
X5988370Y3865572D01*
X5987224Y3868076D01*
X5985594Y3870761D01*
X5983482Y3873626D01*
X5980888Y3876673D01*
X5977811Y3879901D01*
X5995488Y3897579D01*
X5998716Y3894502D01*
D02*
G37*
G36*
X6255902Y3885332D02*
X6254930Y3883299D01*
X6254488Y3881089D01*
X6254576Y3878702D01*
X6255195Y3876139D01*
X6256344Y3873399D01*
X6258023Y3870482D01*
X6260233Y3867389D01*
X6262973Y3864118D01*
X6266243Y3860671D01*
X6248566Y3842994D01*
X6231104Y3860887D01*
X6257405Y3887188D01*
X6255902Y3885332D01*
D02*
G37*
G36*
X6292399Y3834692D02*
X6295706Y3831915D01*
X6298832Y3829673D01*
X6301777Y3827966D01*
X6304541Y3826793D01*
X6307124Y3826155D01*
X6309525Y3826052D01*
X6311746Y3826483D01*
X6313785Y3827449D01*
X6315643Y3828949D01*
X6280288Y3793594D01*
X6281789Y3795452D01*
X6282754Y3797492D01*
X6283186Y3799712D01*
X6283082Y3802114D01*
X6282444Y3804696D01*
X6281271Y3807460D01*
X6279564Y3810405D01*
X6277322Y3813531D01*
X6274545Y3816838D01*
X6271234Y3820326D01*
X6288911Y3838003D01*
X6292399Y3834692D01*
D02*
G37*
G36*
X3425990Y3821387D02*
X3421740Y3819878D01*
X3417990Y3817362D01*
X3414740Y3813841D01*
X3411990Y3809314D01*
X3409740Y3803780D01*
X3407990Y3797241D01*
X3406740Y3789695D01*
X3405990Y3781143D01*
X3405740Y3771585D01*
X3355740D01*
X3355490Y3781143D01*
X3354740Y3789695D01*
X3353490Y3797241D01*
X3351740Y3803780D01*
X3349490Y3809314D01*
X3346740Y3813841D01*
X3343490Y3817362D01*
X3339740Y3819878D01*
X3335490Y3821387D01*
X3330740Y3821890D01*
X3430740D01*
X3425990Y3821387D01*
D02*
G37*
G36*
X5302206Y3784089D02*
X5301759Y3783859D01*
X5300986Y3783280D01*
X5299889Y3782354D01*
X5292248Y3775170D01*
X5283104Y3766129D01*
X5265427Y3783806D01*
X5283388Y3802908D01*
X5302206Y3784089D01*
D02*
G37*
G36*
X5226444Y3709468D02*
X5223174Y3706021D01*
X5220434Y3702751D01*
X5218224Y3699657D01*
X5216545Y3696740D01*
X5215395Y3694000D01*
X5214777Y3691437D01*
X5214688Y3689050D01*
X5215130Y3686841D01*
X5216103Y3684808D01*
X5217605Y3682952D01*
X5182250Y3718307D01*
X5184106Y3716804D01*
X5186139Y3715832D01*
X5188349Y3715390D01*
X5190735Y3715478D01*
X5193298Y3716097D01*
X5196038Y3717246D01*
X5198955Y3718926D01*
X5202049Y3721135D01*
X5205319Y3723875D01*
X5208766Y3727146D01*
X5226444Y3709468D01*
D02*
G37*
G36*
X6463489Y3737319D02*
X6462517Y3735286D01*
X6462075Y3733076D01*
X6462163Y3730690D01*
X6462782Y3728126D01*
X6463931Y3725386D01*
X6465610Y3722470D01*
X6467820Y3719376D01*
X6470560Y3716106D01*
X6473830Y3712659D01*
X6456153Y3694981D01*
X6452706Y3698251D01*
X6449435Y3700991D01*
X6446342Y3703201D01*
X6443425Y3704880D01*
X6440685Y3706029D01*
X6438122Y3706648D01*
X6435735Y3706737D01*
X6433525Y3706295D01*
X6431493Y3705322D01*
X6429636Y3703820D01*
X6464992Y3739175D01*
X6463489Y3737319D01*
D02*
G37*
G36*
X3697157Y3811715D02*
X3692748Y3806184D01*
X3688803Y3798651D01*
X3685321Y3789116D01*
X3682305Y3777578D01*
X3679752Y3764037D01*
X3677663Y3748495D01*
X3674878Y3711403D01*
X3674653Y3700445D01*
X3674836Y3698095D01*
X3675945Y3690595D01*
X3677496Y3684095D01*
X3679491Y3678595D01*
X3681929Y3674095D01*
X3684811Y3670595D01*
X3688136Y3668095D01*
X3691904Y3666595D01*
X3696115Y3666095D01*
X3598950D01*
X3603700Y3666595D01*
X3607950Y3668095D01*
X3611700Y3670595D01*
X3614950Y3674095D01*
X3617700Y3678595D01*
X3619950Y3684095D01*
X3621700Y3690595D01*
X3622950Y3698095D01*
X3623210Y3701049D01*
X3619115Y3766844D01*
X3616987Y3780247D01*
X3614473Y3791556D01*
X3611572Y3800769D01*
X3608284Y3807886D01*
X3604610Y3812909D01*
X3697157Y3811715D01*
D02*
G37*
G36*
X4822105Y3665307D02*
X4820779Y3666160D01*
X4819096Y3666425D01*
X4817055Y3666104D01*
X4814657Y3665195D01*
X4811900Y3663699D01*
X4808786Y3661617D01*
X4805313Y3658946D01*
X4797295Y3651845D01*
X4792749Y3647414D01*
X4757394Y3682769D01*
X4761825Y3687315D01*
X4771597Y3698806D01*
X4773679Y3701920D01*
X4775175Y3704677D01*
X4776084Y3707075D01*
X4776405Y3709116D01*
X4776140Y3710799D01*
X4775287Y3712125D01*
X4822105Y3665307D01*
D02*
G37*
G36*
X5128709Y3687880D02*
X5131147Y3686718D01*
X5134100Y3685692D01*
X5137565Y3684804D01*
X5141544Y3684052D01*
X5151043Y3682958D01*
X5156562Y3682616D01*
X5169141Y3682342D01*
Y3657342D01*
X5162594Y3657274D01*
X5141544Y3655633D01*
X5137565Y3654881D01*
X5134100Y3653992D01*
X5131147Y3652967D01*
X5128709Y3651804D01*
X5126783Y3650506D01*
Y3689179D01*
X5128709Y3687880D01*
D02*
G37*
G36*
X6238651Y3597256D02*
X6194718Y3553105D01*
X6199492Y3548331D01*
X6198336Y3549031D01*
X6196823Y3549178D01*
X6194952Y3548771D01*
X6192722Y3547812D01*
X6190136Y3546299D01*
X6187191Y3544233D01*
X6183888Y3541614D01*
X6176209Y3534717D01*
X6171833Y3530438D01*
X6136478Y3565793D01*
X6140756Y3570169D01*
X6150273Y3581151D01*
X6152339Y3584096D01*
X6153852Y3586683D01*
X6154811Y3588912D01*
X6155218Y3590783D01*
X6155071Y3592296D01*
X6154371Y3593452D01*
X6159145Y3588678D01*
X6203296Y3632611D01*
X6238651Y3597256D01*
D02*
G37*
G36*
X5079007Y3582428D02*
X5076896Y3583987D01*
X5074428Y3584803D01*
X5071601Y3584874D01*
X5068417Y3584201D01*
X5064875Y3582784D01*
X5060976Y3580622D01*
X5056718Y3577716D01*
X5052102Y3574067D01*
X5047129Y3569673D01*
X5041798Y3564535D01*
X5006442Y3599890D01*
X5011581Y3605221D01*
X5019624Y3614810D01*
X5022530Y3619068D01*
X5024691Y3622968D01*
X5026108Y3626510D01*
X5026781Y3629694D01*
X5026710Y3632520D01*
X5025895Y3634988D01*
X5024336Y3637099D01*
X5079007Y3582428D01*
D02*
G37*
G36*
X3886119Y3613447D02*
X3887045Y3612502D01*
X3888589Y3611667D01*
X3890749Y3610943D01*
X3893528Y3610331D01*
X3896923Y3609830D01*
X3905567Y3609162D01*
X3916680Y3608940D01*
Y3558940D01*
X3910815Y3558884D01*
X3893528Y3557549D01*
X3890749Y3556937D01*
X3888589Y3556213D01*
X3887045Y3555378D01*
X3886119Y3554433D01*
X3885810Y3553375D01*
Y3614505D01*
X3886119Y3613447D01*
D02*
G37*
G36*
X6597563Y3589103D02*
X6600834Y3586362D01*
X6603927Y3584153D01*
X6606844Y3582473D01*
X6609584Y3581324D01*
X6612147Y3580706D01*
X6614534Y3580617D01*
X6616743Y3581059D01*
X6618776Y3582031D01*
X6620632Y3583534D01*
X6585277Y3548179D01*
X6586780Y3550035D01*
X6587752Y3552068D01*
X6588194Y3554277D01*
X6588106Y3556664D01*
X6587487Y3559227D01*
X6586338Y3561967D01*
X6584659Y3564884D01*
X6582449Y3567978D01*
X6579709Y3571248D01*
X6576438Y3574695D01*
X6594116Y3592373D01*
X6597563Y3589103D01*
D02*
G37*
G36*
X5940133Y3497666D02*
X5943440Y3494889D01*
X5946566Y3492647D01*
X5949511Y3490940D01*
X5952275Y3489767D01*
X5954858Y3489129D01*
X5957259Y3489026D01*
X5959480Y3489457D01*
X5961519Y3490423D01*
X5963377Y3491923D01*
X5928022Y3456568D01*
X5929523Y3458426D01*
X5930488Y3460466D01*
X5930920Y3462686D01*
X5930816Y3465088D01*
X5930178Y3467670D01*
X5929005Y3470434D01*
X5927298Y3473379D01*
X5925056Y3476505D01*
X5922279Y3479812D01*
X5918968Y3483300D01*
X5936645Y3500977D01*
X5940133Y3497666D01*
D02*
G37*
G36*
X5670200Y3449741D02*
X5669506Y3447445D01*
X5669521Y3444792D01*
X5670246Y3441781D01*
X5671681Y3438411D01*
X5673825Y3434685D01*
X5676679Y3430599D01*
X5680242Y3426157D01*
X5689498Y3416198D01*
X5654142Y3380842D01*
X5648984Y3385825D01*
X5639741Y3393661D01*
X5635655Y3396515D01*
X5631929Y3398659D01*
X5628559Y3400094D01*
X5625548Y3400819D01*
X5622895Y3400834D01*
X5620599Y3400140D01*
X5618661Y3398736D01*
X5671604Y3451679D01*
X5670200Y3449741D01*
D02*
G37*
G36*
X5304245Y3473937D02*
X5321416Y3458899D01*
X5337954Y3475437D01*
X5334951Y3471722D01*
X5333013Y3467650D01*
X5332140Y3463220D01*
X5332331Y3458432D01*
X5333588Y3453286D01*
X5335910Y3447782D01*
X5337756Y3444588D01*
X5360972Y3424255D01*
X5366625Y3420803D01*
X5371191Y3418732D01*
X5374671Y3418040D01*
X5324640Y3368009D01*
X5323948Y3371489D01*
X5321877Y3376055D01*
X5318425Y3381708D01*
X5313594Y3388447D01*
X5302024Y3402478D01*
X5300760Y3403383D01*
X5294898Y3406770D01*
X5289394Y3409092D01*
X5284248Y3410349D01*
X5279460Y3410540D01*
X5275030Y3409667D01*
X5270958Y3407729D01*
X5267243Y3404726D01*
X5284296Y3421779D01*
X5268743Y3438435D01*
X5255633Y3451692D01*
X5290988Y3487047D01*
X5304245Y3473937D01*
D02*
G37*
G36*
X6051552Y3340647D02*
X6050761Y3338874D01*
X6050449Y3336925D01*
X6050616Y3334799D01*
X6051261Y3332495D01*
X6052384Y3330016D01*
X6053985Y3327359D01*
X6056065Y3324525D01*
X6058623Y3321515D01*
X6061659Y3318328D01*
X6043981Y3300651D01*
X6040794Y3303687D01*
X6037784Y3306245D01*
X6034951Y3308324D01*
X6032294Y3309926D01*
X6029814Y3311049D01*
X6027511Y3311693D01*
X6025384Y3311860D01*
X6023435Y3311548D01*
X6021662Y3310758D01*
X6020066Y3309489D01*
X6052820Y3342243D01*
X6051552Y3340647D01*
D02*
G37*
G36*
X5855111Y3234036D02*
X5811178Y3189885D01*
X5815952Y3185111D01*
X5814796Y3185811D01*
X5813283Y3185958D01*
X5811412Y3185551D01*
X5809183Y3184592D01*
X5806596Y3183079D01*
X5803651Y3181013D01*
X5800349Y3178394D01*
X5792670Y3171497D01*
X5788293Y3167218D01*
X5752938Y3202573D01*
X5757217Y3206949D01*
X5766733Y3217931D01*
X5768799Y3220876D01*
X5770312Y3223462D01*
X5771272Y3225692D01*
X5771678Y3227563D01*
X5771531Y3229076D01*
X5770831Y3230232D01*
X5775605Y3225458D01*
X5819756Y3269391D01*
X5855111Y3234036D01*
D02*
G37*
G36*
X6064846Y3054278D02*
X6067856Y3051720D01*
X6070689Y3049640D01*
X6073346Y3048039D01*
X6075826Y3046916D01*
X6078129Y3046271D01*
X6080255Y3046105D01*
X6082205Y3046416D01*
X6083978Y3047207D01*
X6085574Y3048475D01*
X6052820Y3015721D01*
X6054088Y3017317D01*
X6054879Y3019090D01*
X6055190Y3021040D01*
X6055024Y3023166D01*
X6054379Y3025469D01*
X6053256Y3027949D01*
X6051655Y3030606D01*
X6049575Y3033439D01*
X6047017Y3036449D01*
X6043981Y3039636D01*
X6061659Y3057314D01*
X6064846Y3054278D01*
D02*
G37*
G36*
X7353343Y3025220D02*
X7342824Y3024366D01*
X7331628Y3021816D01*
X7319753Y3017571D01*
X7307200Y3011631D01*
X7293969Y3003995D01*
X7280060Y2994664D01*
X7265472Y2983637D01*
X7234263Y2956497D01*
X7217642Y2940384D01*
X7199964Y2958062D01*
X7216077Y2974683D01*
X7243217Y3005892D01*
X7254244Y3020480D01*
X7263575Y3034389D01*
X7271211Y3047620D01*
X7277151Y3060173D01*
X7281396Y3072048D01*
X7283946Y3083244D01*
X7284800Y3093763D01*
X7353343Y3025220D01*
D02*
G37*
G36*
X5352056Y2122463D02*
X5352826Y2111286D01*
X5353500Y2106745D01*
X5354366Y2102903D01*
X5355425Y2099759D01*
X5356676Y2097314D01*
X5358120Y2095568D01*
X5359756Y2094520D01*
X5361585Y2094170D01*
X5292335D01*
X5294164Y2094520D01*
X5295800Y2095568D01*
X5297244Y2097314D01*
X5298495Y2099759D01*
X5299554Y2102903D01*
X5300420Y2106745D01*
X5301094Y2111286D01*
X5301575Y2116525D01*
X5301960Y2129100D01*
X5351960D01*
X5352056Y2122463D01*
D02*
G37*
G36*
X4669300Y2112945D02*
X4670037Y2101994D01*
X4670683Y2097545D01*
X4671513Y2093781D01*
X4672527Y2090701D01*
X4673726Y2088305D01*
X4675109Y2086594D01*
X4676677Y2085568D01*
X4678429Y2085225D01*
X4609985D01*
X4611738Y2085568D01*
X4613305Y2086594D01*
X4614689Y2088305D01*
X4615887Y2090701D01*
X4616902Y2093781D01*
X4617732Y2097545D01*
X4618377Y2101994D01*
X4618839Y2107127D01*
X4619207Y2119447D01*
X4669207D01*
X4669300Y2112945D01*
D02*
G37*
G36*
X5131811Y2114978D02*
X5132808Y2102894D01*
X5133680Y2097985D01*
X5134801Y2093831D01*
X5136172Y2090432D01*
X5137791Y2087789D01*
X5139660Y2085901D01*
X5141778Y2084768D01*
X5144145Y2084390D01*
X5069229D01*
X5071596Y2084768D01*
X5073713Y2085901D01*
X5075582Y2087789D01*
X5077202Y2090432D01*
X5078572Y2093831D01*
X5079693Y2097985D01*
X5080566Y2102894D01*
X5081188Y2108559D01*
X5081687Y2122153D01*
X5131687D01*
X5131811Y2114978D01*
D02*
G37*
G36*
X4499856Y1914935D02*
X4497536Y1912235D01*
X4495488Y1907735D01*
X4493714Y1901435D01*
X4492213Y1893335D01*
X4490984Y1883435D01*
X4489346Y1858235D01*
X4488800Y1825835D01*
X4398800D01*
X4403060Y1915835D01*
X4502450D01*
X4499856Y1914935D01*
D02*
G37*
G36*
X5370250Y1805326D02*
X5366000Y1803817D01*
X5362250Y1801302D01*
X5359000Y1797781D01*
X5356250Y1793253D01*
X5354000Y1787720D01*
X5352250Y1781180D01*
X5351000Y1773635D01*
X5350250Y1765083D01*
X5350000Y1755525D01*
X5300000D01*
X5299750Y1765083D01*
X5299000Y1773635D01*
X5297750Y1781180D01*
X5296000Y1787720D01*
X5293750Y1793253D01*
X5291000Y1797781D01*
X5287750Y1801302D01*
X5284000Y1803817D01*
X5279750Y1805326D01*
X5275000Y1805830D01*
X5375000D01*
X5370250Y1805326D01*
D02*
G37*
G36*
X5350250Y1735137D02*
X5351000Y1726585D01*
X5352250Y1719039D01*
X5354000Y1712500D01*
X5356250Y1706966D01*
X5359000Y1702439D01*
X5362250Y1698918D01*
X5366000Y1696402D01*
X5370250Y1694893D01*
X5375000Y1694390D01*
X5275000D01*
X5279750Y1694893D01*
X5284000Y1696402D01*
X5287750Y1698918D01*
X5291000Y1702439D01*
X5293750Y1706966D01*
X5296000Y1712500D01*
X5297750Y1719039D01*
X5299000Y1726585D01*
X5299750Y1735137D01*
X5300000Y1744695D01*
X5350000D01*
X5350250Y1735137D01*
D02*
G37*
G36*
X4488956Y1733695D02*
X4492699Y1683295D01*
X4494414Y1675195D01*
X4496442Y1668895D01*
X4498781Y1664395D01*
X4501432Y1661695D01*
X4504395Y1660795D01*
X4383205D01*
X4386168Y1661695D01*
X4388819Y1664395D01*
X4391158Y1668895D01*
X4393186Y1675195D01*
X4394901Y1683295D01*
X4396305Y1693195D01*
X4398176Y1718395D01*
X4398800Y1750795D01*
X4488800D01*
X4488956Y1733695D01*
D02*
G37*
G36*
X4505295Y1657832D02*
X4507995Y1655181D01*
X4512495Y1652842D01*
X4518795Y1650814D01*
X4526895Y1649099D01*
X4536795Y1647695D01*
X4561995Y1645824D01*
X4594395Y1645200D01*
Y1555200D01*
X4577295Y1555044D01*
X4526895Y1551301D01*
X4518795Y1549586D01*
X4512495Y1547558D01*
X4507995Y1545219D01*
X4505295Y1542568D01*
X4504395Y1539605D01*
Y1660795D01*
X4505295Y1657832D01*
D02*
G37*
G36*
X1162500Y4217677D02*
X1187239Y4157951D01*
X1194317Y4150873D01*
X1200525Y3608294D01*
Y3417180D01*
X1202774Y3411751D01*
X1216452Y2216292D01*
X1207523Y2207260D01*
X375920D01*
Y1511300D01*
X134620D01*
Y4210829D01*
X924560Y4224020D01*
X1162500D01*
Y4217677D01*
D02*
G37*
G36*
X4504395Y1539605D02*
X4492824Y1538968D01*
X4481131Y1537059D01*
X4469317Y1533877D01*
X4457380Y1529422D01*
X4445322Y1523695D01*
X4433142Y1516694D01*
X4420840Y1508421D01*
X4408417Y1498875D01*
X4395872Y1488057D01*
X4383205Y1475965D01*
X4319565Y1539605D01*
X4331657Y1552272D01*
X4352021Y1577240D01*
X4360294Y1589542D01*
X4367295Y1601722D01*
X4373022Y1613780D01*
X4377477Y1625717D01*
X4380659Y1637531D01*
X4382568Y1649224D01*
X4383205Y1660795D01*
X4504395Y1539605D01*
D02*
G37*
G36*
X1082250Y1450345D02*
X1086335D01*
X1085443Y1449845D01*
X1084645Y1448345D01*
X1083941Y1445845D01*
X1083330Y1442345D01*
X1082814Y1437845D01*
X1082596Y1433538D01*
X1083017Y1413045D01*
X1081772D01*
X1081640Y1400345D01*
X1031640D01*
X1031593Y1409845D01*
X1031393Y1413045D01*
X1030263D01*
X1030525Y1414000D01*
X1030759Y1416231D01*
X1030944Y1420214D01*
X1029339Y1445845D01*
X1028635Y1448345D01*
X1027837Y1449845D01*
X1026945Y1450345D01*
X1031375D01*
X1031640Y1480040D01*
X1081640D01*
X1082250Y1450345D01*
D02*
G37*
G36*
X6779110Y1278537D02*
X6779860Y1269985D01*
X6781110Y1262439D01*
X6782860Y1255900D01*
X6785110Y1250366D01*
X6787860Y1245839D01*
X6791110Y1242318D01*
X6794860Y1239802D01*
X6799110Y1238293D01*
X6803860Y1237790D01*
X6703860D01*
X6708610Y1238293D01*
X6712860Y1239802D01*
X6716610Y1242318D01*
X6719860Y1245839D01*
X6722610Y1250366D01*
X6724860Y1255900D01*
X6726610Y1262439D01*
X6727860Y1269985D01*
X6728610Y1278537D01*
X6728860Y1288095D01*
X6778860D01*
X6779110Y1278537D01*
D02*
G37*
G36*
X7766700Y1013735D02*
Y656380D01*
Y190500D01*
X7609840D01*
Y789940D01*
X7188226D01*
X6891400Y813300D01*
Y828660D01*
X6696234D01*
X6677259Y830153D01*
X6664960Y831121D01*
Y1008379D01*
X6676661Y1020951D01*
X6892921Y1018575D01*
X6905068Y989248D01*
X6948675Y971186D01*
X7065725D01*
X7103615Y986880D01*
X7144668D01*
X7177985Y1020198D01*
X7754000Y1023585D01*
X7766700Y1013735D01*
D02*
G37*
G36*
X3685097Y924742D02*
X3688490Y872544D01*
X3689751Y866923D01*
X3691205Y862907D01*
X3692853Y860498D01*
X3694695Y859695D01*
X3595305D01*
X3595247Y860498D01*
X3595149Y866923D01*
X3595000Y940000D01*
X3685000D01*
X3685097Y924742D01*
D02*
G37*
G36*
X6672010Y736875D02*
X6698477Y736279D01*
X6723703Y736200D01*
X6718460Y686200D01*
X6672010Y687504D01*
Y668895D01*
X6671584Y672183D01*
X6670305Y675125D01*
X6668175Y677721D01*
X6665192Y679970D01*
X6661357Y681874D01*
X6656670Y683431D01*
X6651131Y684643D01*
X6644740Y685508D01*
X6637496Y686027D01*
X6629400Y686200D01*
Y736200D01*
X6637496Y736373D01*
X6651131Y737757D01*
X6651920Y737930D01*
X6651925Y738168D01*
X6652341Y738022D01*
X6656670Y738969D01*
X6661357Y740526D01*
X6665192Y742430D01*
X6668175Y744679D01*
X6670305Y747275D01*
X6671584Y750217D01*
X6672010Y753505D01*
Y736875D01*
D02*
G37*
G36*
X1712425Y632882D02*
X1715055Y595498D01*
X1716032Y591472D01*
X1717159Y588596D01*
X1718437Y586870D01*
X1719865Y586295D01*
X1604835D01*
X1606263Y586870D01*
X1607541Y588596D01*
X1608668Y591472D01*
X1609645Y595498D01*
X1610471Y600674D01*
X1611674Y614478D01*
X1612275Y632882D01*
X1612350Y643810D01*
X1712350D01*
X1712425Y632882D01*
D02*
G37*
G36*
X2675938Y544385D02*
X2676812Y530377D01*
X2677336Y526953D01*
X2677977Y524151D01*
X2678734Y521972D01*
X2679608Y520416D01*
X2680598Y519482D01*
X2681705Y519170D01*
X2620055D01*
X2621162Y519482D01*
X2622152Y520416D01*
X2623026Y521972D01*
X2623783Y524151D01*
X2624424Y526953D01*
X2624948Y530377D01*
X2625647Y539093D01*
X2625880Y550300D01*
X2675880D01*
X2675938Y544385D01*
D02*
G37*
G36*
X4994300Y1865000D02*
X5029200D01*
Y1517650D01*
X6275070D01*
Y734060D01*
Y581660D01*
X6897799D01*
Y665480D01*
X7130700D01*
Y445170D01*
X7089280D01*
Y396240D01*
X7052120D01*
Y445170D01*
X6875920D01*
Y396240D01*
X6100000D01*
Y540000D01*
X5800000D01*
Y535940D01*
X5786120D01*
Y381000D01*
X4808220D01*
Y1553784D01*
X4808700Y1554264D01*
Y1646136D01*
X4808220Y1646616D01*
Y1910080D01*
Y2113280D01*
X4994300D01*
Y1865000D01*
D02*
G37*
G36*
X3192780Y1090209D02*
Y393700D01*
X2772390D01*
Y569780D01*
X2736760D01*
Y586388D01*
X2686968Y636180D01*
X2616552D01*
X2566760Y586388D01*
Y569780D01*
X2527610D01*
Y393700D01*
X2016760D01*
Y858520D01*
X1386840D01*
Y1085162D01*
X1395830Y1094132D01*
X3192780Y1090209D01*
D02*
G37*
G36*
X4243400Y427580D02*
X4234900Y424559D01*
X4227400Y419534D01*
X4220900Y412508D01*
X4215400Y403478D01*
X4210900Y392447D01*
X4207400Y379413D01*
X4204900Y364376D01*
X4203400Y347336D01*
X4202900Y328295D01*
X4102900D01*
X4102705Y347295D01*
X4099784Y392295D01*
X4098031Y403295D01*
X4095889Y412295D01*
X4093357Y419295D01*
X4090436Y424295D01*
X4087125Y427295D01*
X4083425Y428295D01*
X4252900Y428600D01*
X4243400Y427580D01*
D02*
G37*
G36*
X1721223Y378597D02*
X1719361Y376759D01*
X1717718Y373696D01*
X1716294Y369408D01*
X1715089Y363895D01*
X1714103Y357156D01*
X1712788Y340003D01*
X1712350Y317950D01*
X1711014D01*
X1711000Y316600D01*
X1611000D01*
X1610877Y328496D01*
X1609031Y356670D01*
X1607924Y363557D01*
X1606570Y369192D01*
X1604971Y373575D01*
X1603125Y376705D01*
X1601033Y378583D01*
X1598695Y379210D01*
X1723305D01*
X1721223Y378597D01*
D02*
G37*
G36*
X7451310Y297780D02*
X7451057Y300155D01*
X7450298Y302280D01*
X7449032Y304155D01*
X7447261Y305780D01*
X7444984Y307155D01*
X7442200Y308280D01*
X7438910Y309155D01*
X7435115Y309780D01*
X7430813Y310155D01*
X7426005Y310280D01*
Y335280D01*
X7430813Y335405D01*
X7435115Y335780D01*
X7438910Y336405D01*
X7442200Y337280D01*
X7444984Y338405D01*
X7447261Y339780D01*
X7449032Y341405D01*
X7450298Y343280D01*
X7451057Y345405D01*
X7451310Y347780D01*
Y297780D01*
D02*
G37*
G36*
X7215123Y345405D02*
X7215883Y343280D01*
X7217148Y341405D01*
X7218919Y339780D01*
X7221197Y338405D01*
X7223980Y337280D01*
X7227270Y336405D01*
X7231066Y335780D01*
X7235367Y335405D01*
X7240175Y335280D01*
Y310280D01*
X7235367Y310155D01*
X7231066Y309780D01*
X7227270Y309155D01*
X7223980Y308280D01*
X7221197Y307155D01*
X7218919Y305780D01*
X7217148Y304155D01*
X7215883Y302280D01*
X7215123Y300155D01*
X7214871Y297780D01*
Y347780D01*
X7215123Y345405D01*
D02*
G37*
G36*
X6926530Y284869D02*
X6926238Y285598D01*
X6925364Y286250D01*
X6923907Y286826D01*
X6921867Y287325D01*
X6919244Y287747D01*
X6912250Y288361D01*
X6902924Y288668D01*
X6897387Y288707D01*
Y338707D01*
X6902924Y338745D01*
X6921867Y340088D01*
X6923907Y340587D01*
X6925364Y341163D01*
X6926238Y341816D01*
X6926530Y342545D01*
Y284869D01*
D02*
G37*
G36*
X2485195Y306788D02*
X2486695Y302845D01*
X2489195Y299366D01*
X2492695Y296350D01*
X2497195Y293799D01*
X2502695Y291711D01*
X2509195Y290088D01*
X2516695Y288928D01*
X2525195Y288232D01*
X2531722Y288073D01*
X2537415Y288181D01*
X2553415Y289631D01*
X2559915Y290899D01*
X2565415Y292529D01*
X2569915Y294522D01*
X2573415Y296876D01*
X2575915Y299594D01*
X2577415Y302673D01*
X2577915Y306115D01*
Y230525D01*
X2577415Y231945D01*
X2575915Y233216D01*
X2573415Y234337D01*
X2569915Y235309D01*
X2565415Y236131D01*
X2559915Y236804D01*
X2545915Y237701D01*
X2532064Y237931D01*
X2525151Y237750D01*
X2516610Y237000D01*
X2509072Y235750D01*
X2502537Y234000D01*
X2497005Y231750D01*
X2492476Y229000D01*
X2488950Y225750D01*
X2486427Y222000D01*
X2484907Y217750D01*
X2484390Y213000D01*
X2484695Y311195D01*
X2485195Y306788D01*
D02*
G37*
G36*
X6099810Y320510D02*
Y220510D01*
X6049390Y220395D01*
Y320625D01*
X6099810Y320510D01*
D02*
G37*
G36*
X5850305Y210135D02*
X5849701Y212107D01*
X5847890Y213870D01*
X5844871Y215426D01*
X5840645Y216775D01*
X5835211Y217916D01*
X5828570Y218850D01*
X5811665Y220095D01*
X5789930Y220510D01*
Y320510D01*
X5801401Y320614D01*
X5835211Y323104D01*
X5840645Y324245D01*
X5844871Y325594D01*
X5847890Y327150D01*
X5849701Y328913D01*
X5850305Y330885D01*
Y210135D01*
D02*
G37*
G36*
X2065133Y193076D02*
X2064650Y197503D01*
X2063201Y201464D01*
X2060786Y204958D01*
X2057405Y207987D01*
X2053058Y210550D01*
X2047745Y212647D01*
X2041467Y214278D01*
X2034222Y215443D01*
X2026011Y216142D01*
X2016834Y216374D01*
Y266374D01*
X2026011Y266607D01*
X2034222Y267306D01*
X2041467Y268471D01*
X2047745Y270102D01*
X2053058Y272199D01*
X2057405Y274762D01*
X2060786Y277790D01*
X2063201Y281285D01*
X2064650Y285246D01*
X2065133Y289673D01*
Y193076D01*
D02*
G37*
G36*
X875000Y1475000D02*
Y1300000D01*
X950000D01*
Y150000D01*
X50000D01*
Y1300000D01*
X650000D01*
Y1675000D01*
X875000D01*
Y1475000D01*
D02*
G37*
G36*
X3155610Y139075D02*
X3155016Y140794D01*
X3153236Y142331D01*
X3150268Y143688D01*
X3146114Y144864D01*
X3140772Y145859D01*
X3134244Y146673D01*
X3117626Y147758D01*
X3096260Y148120D01*
Y248120D01*
X3107536Y248211D01*
X3140772Y250381D01*
X3146114Y251376D01*
X3150268Y252552D01*
X3153236Y253909D01*
X3155016Y255446D01*
X3155610Y257165D01*
Y139075D01*
D02*
G37*
G36*
X3745695Y282853D02*
X3748695Y281205D01*
X3753695Y279751D01*
X3760695Y278490D01*
X3769695Y277424D01*
X3793695Y275873D01*
X3844695Y275000D01*
Y175000D01*
X3825654Y174500D01*
X3808616Y173000D01*
X3793580Y170500D01*
X3780546Y167000D01*
X3769514Y162500D01*
X3760485Y157000D01*
X3753458Y150500D01*
X3748433Y143000D01*
X3745411Y134500D01*
X3744390Y125000D01*
X3744695Y284695D01*
X3745695Y282853D01*
D02*
G37*
%LPC*%
G36*
X468761Y3595000D02*
X381239D01*
X300380Y3561507D01*
X238493Y3499620D01*
X205000Y3418760D01*
Y3331239D01*
X238493Y3250380D01*
X300380Y3188493D01*
X381239Y3155000D01*
X468761D01*
X549620Y3188493D01*
X611507Y3250380D01*
X645000Y3331239D01*
Y3418760D01*
X611507Y3499620D01*
X549620Y3561507D01*
X468761Y3595000D01*
D02*
G37*
%LPD*%
D10*
X4407920Y5102860D02*
D03*
X4217920D02*
D03*
X4452755Y2000530D02*
D03*
X4642755D02*
D03*
D11*
X2400300Y2521600D02*
D03*
Y1924700D02*
D03*
D12*
X5582436Y3810195D02*
D03*
X5617791Y3845550D02*
D03*
X5653147Y3880906D02*
D03*
X5688502Y3916261D02*
D03*
X5723857Y3951616D02*
D03*
X5759213Y3986972D02*
D03*
X5794568Y4022327D02*
D03*
X5829924Y4057682D02*
D03*
X5865279Y4093038D02*
D03*
X5900633Y4128392D02*
D03*
X5935990Y4163749D02*
D03*
X5971345Y4199104D02*
D03*
X5380204Y4790245D02*
D03*
X5344849Y4754890D02*
D03*
X5309493Y4719534D02*
D03*
X5274138Y4684179D02*
D03*
X5238783Y4648824D02*
D03*
X5203427Y4613468D02*
D03*
X5168072Y4578113D02*
D03*
X5132716Y4542758D02*
D03*
X5097361Y4507402D02*
D03*
X5062007Y4472048D02*
D03*
X5026650Y4436691D02*
D03*
X4991295Y4401336D02*
D03*
D13*
X5971345D02*
D03*
X5935990Y4436691D02*
D03*
X5900634Y4472047D02*
D03*
X5865279Y4507402D02*
D03*
X5829924Y4542757D02*
D03*
X5794568Y4578113D02*
D03*
X5759213Y4613468D02*
D03*
X5723858Y4648824D02*
D03*
X5688502Y4684179D02*
D03*
X5653148Y4719533D02*
D03*
X5617791Y4754890D02*
D03*
X5582436Y4790245D02*
D03*
X4991295Y4199104D02*
D03*
X5026650Y4163749D02*
D03*
X5062006Y4128393D02*
D03*
X5097361Y4093038D02*
D03*
X5132716Y4057683D02*
D03*
X5168072Y4022327D02*
D03*
X5203427Y3986972D02*
D03*
X5238782Y3951616D02*
D03*
X5274138Y3916261D02*
D03*
X5309492Y3880907D02*
D03*
X5344849Y3845550D02*
D03*
X5380204Y3810195D02*
D03*
D14*
X6019204Y2834044D02*
D03*
X6690956Y3505796D02*
D03*
D15*
X4227900Y698500D02*
D03*
X5218500D02*
D03*
D16*
X3475000Y1750000D02*
D03*
D17*
X3815000Y690000D02*
D03*
X3645000D02*
D03*
X3475000D02*
D03*
X3305000D02*
D03*
X3135000D02*
D03*
D18*
X1056640Y1480040D02*
D03*
Y1700040D02*
D03*
D19*
X7813421Y5406192D02*
D03*
Y4999792D02*
D03*
D20*
X7639540Y4305300D02*
D03*
X7859540D02*
D03*
D21*
X2310620Y4008120D02*
D03*
X2530620Y4103120D02*
D03*
Y3913120D02*
D03*
D22*
X6799580Y7026420D02*
D03*
X6894580Y6806420D02*
D03*
X6704580D02*
D03*
X4197600Y6814040D02*
D03*
X4387600D02*
D03*
X4292600Y7034040D02*
D03*
D23*
X6586440Y6366760D02*
D03*
Y6556760D02*
D03*
Y5640760D02*
D03*
Y5830760D02*
D03*
X5320000Y6152340D02*
D03*
Y5962340D02*
D03*
X5070000Y6152340D02*
D03*
Y5962340D02*
D03*
X5067300Y5586980D02*
D03*
Y5776980D02*
D03*
X5320000Y5587340D02*
D03*
Y5777340D02*
D03*
X5325000Y1645000D02*
D03*
Y1455000D02*
D03*
X4236720Y6556760D02*
D03*
Y6366760D02*
D03*
X3125380Y4334840D02*
D03*
Y4144840D02*
D03*
X7515860Y5005320D02*
D03*
Y5195320D02*
D03*
X2675000Y6080000D02*
D03*
Y6270000D02*
D03*
X7266940Y5200400D02*
D03*
Y5010400D02*
D03*
D24*
X6586440Y5972460D02*
D03*
Y6185820D02*
D03*
X7266940Y5400040D02*
D03*
Y5613400D02*
D03*
X2925000Y6281680D02*
D03*
Y6068320D02*
D03*
X5325000Y2056680D02*
D03*
Y1843320D02*
D03*
X2650000Y268320D02*
D03*
Y481680D02*
D03*
D25*
X5133340Y6370320D02*
D03*
X5346700D02*
D03*
X6964020Y322780D02*
D03*
X7177380D02*
D03*
D26*
X5344140Y6590240D02*
D03*
X5154140D02*
D03*
X3646420Y3581400D02*
D03*
X3836420D02*
D03*
X7690700Y322780D02*
D03*
X7500700D02*
D03*
D27*
X6753860Y1168400D02*
D03*
Y939800D02*
D03*
X6756400Y480060D02*
D03*
Y708660D02*
D03*
X3378200Y3891280D02*
D03*
Y4119880D02*
D03*
X3377920Y4345860D02*
D03*
Y4574460D02*
D03*
X7515860Y5392420D02*
D03*
Y5621020D02*
D03*
X2149828Y470049D02*
D03*
Y241449D02*
D03*
D28*
X5110938Y3669842D02*
D03*
X5272582Y3508198D02*
D03*
D29*
X4967970Y3857990D02*
D03*
X4833620Y3723640D02*
D03*
X6206355Y3955915D02*
D03*
X6072005Y3821565D02*
D03*
D30*
X5588000Y3487420D02*
D03*
X5749645Y3649065D02*
D03*
X6225998Y3619958D02*
D03*
X6387642Y3781602D02*
D03*
X5844998Y3254198D02*
D03*
X6006642Y3415842D02*
D03*
D31*
X7007200Y614380D02*
D03*
Y843380D02*
D03*
Y1072380D02*
D03*
D32*
X7676200Y843380D02*
D03*
D33*
X7411720Y4300220D02*
D03*
X7183120D02*
D03*
X4885700Y2000000D02*
D03*
X5114300D02*
D03*
D34*
X3519000Y5853500D02*
D03*
Y5396500D02*
D03*
D35*
X2875500Y5625000D02*
D03*
D36*
X2925000Y6620000D02*
D03*
Y6430000D02*
D03*
X2400000Y261500D02*
D03*
Y451500D02*
D03*
D37*
X1651000Y482600D02*
D03*
Y990600D02*
D03*
D38*
X508000Y736600D02*
D03*
D39*
X3655000Y200000D02*
D03*
X3245000D02*
D03*
D40*
X5950000Y1000000D02*
D03*
Y290000D02*
D03*
X2400300Y838800D02*
D03*
Y1548800D02*
D03*
D41*
X7007450Y1072130D02*
X7109210D01*
X7109460Y1071880D01*
X6993907Y1093880D02*
X7011303Y1076483D01*
X7007200Y1072380D02*
X7007450Y1072130D01*
X3378200Y4574740D02*
Y4699000D01*
X3377920Y4574460D02*
X3378200Y4574740D01*
X5814060Y6210300D02*
Y7188200D01*
X5707380Y7294880D02*
X5814060Y7188200D01*
X5707380Y7294880D02*
Y7889240D01*
X5979160Y8909900D02*
X6000040Y8930780D01*
X6207760Y5506720D02*
X6341800Y5640760D01*
X6586440D01*
X4009658Y6925000D02*
X4118698Y7034040D01*
X4292600D01*
X4005000Y6925000D02*
X4009658D01*
X3648950Y3583930D02*
Y3855991D01*
X3646420Y3581400D02*
X3648950Y3583930D01*
Y3855991D02*
X3651479Y3858520D01*
X2149753Y241374D02*
X2149828Y241449D01*
X2016834Y241374D02*
X2149753D01*
X2016760Y241300D02*
X2016834Y241374D01*
X5842458Y3256737D02*
X5844998Y3254198D01*
X5842458Y3256737D02*
X5842458D01*
X5770616Y3184896D02*
X5842458Y3256737D01*
X5770616Y3184896D02*
X5770616D01*
X6954947Y313707D02*
X6964020Y322780D01*
X6897387Y313707D02*
X6954947D01*
X6893560Y309880D02*
X6897387Y313707D01*
X5325000Y2056680D02*
X5326960Y2058640D01*
Y2129100D02*
X5328920Y2131060D01*
X5326960Y2058640D02*
Y2129100D01*
X7813421Y5406192D02*
Y5482992D01*
X6892800Y6697220D02*
Y6804640D01*
X6894580Y6806420D01*
X6891020Y6695440D02*
X6892800Y6697220D01*
X5656580Y5356860D02*
X5815088Y5515368D01*
Y6102592D01*
X3815000Y690000D02*
X3816310Y688690D01*
Y433110D02*
X3817620Y431800D01*
X5400040Y8730780D02*
X6007100Y8123720D01*
Y7429477D02*
X6511576Y6925000D01*
X6007100Y7429477D02*
Y8123720D01*
X4386580Y6705600D02*
X4387090Y6706110D01*
Y6813530D02*
X4387600Y6814040D01*
X4387090Y6706110D02*
Y6813530D01*
X4197600Y6581760D02*
X4222600Y6556760D01*
X4197600Y6581760D02*
Y6814040D01*
X4222600Y6556760D02*
X4236720D01*
X3955934Y6289300D02*
X4024254Y6357620D01*
X4237798D01*
X3947600Y6289300D02*
X3955934D01*
X4815942Y3705962D02*
X4837532Y3684372D01*
X5036820Y6370320D02*
X5133340D01*
X4848860Y6558280D02*
X5036820Y6370320D01*
X4848860Y6558280D02*
Y7551140D01*
X3475000Y8925000D02*
X4848860Y7551140D01*
X5344140Y6590240D02*
Y6606000D01*
X5586972D01*
X5346700Y6353540D02*
Y6370320D01*
Y6353540D02*
X5585432D01*
X5586972Y6352000D01*
X6350000Y6065520D02*
X6352154D01*
X6445213Y5972460D02*
X6586440D01*
X6352154Y6065520D02*
X6445213Y5972460D01*
X6543859Y6185820D02*
X6586440D01*
X6539050Y6181010D02*
X6543859Y6185820D01*
X6509760Y6210300D02*
X6539050Y6181010D01*
X5814060Y6210300D02*
X6509760D01*
X6576819Y5821140D02*
X6586440Y5830760D01*
X6359620Y5821140D02*
X6576819D01*
X6350000Y5811520D02*
X6359620Y5821140D01*
X5814060Y6103620D02*
Y6210300D01*
X6586440Y6556760D02*
X6704580Y6674900D01*
Y6806420D01*
X5814060Y6103620D02*
X5815088Y6102592D01*
X5325080Y6147260D02*
X5484395D01*
X5566135Y6065520D01*
X5588000D01*
X5320000Y6152340D02*
X5325080Y6147260D01*
X6348972Y6352000D02*
X6571680D01*
X6586440Y6366760D01*
X6511576Y6925000D02*
X6531475D01*
X6632895Y7026420D01*
X6799580D01*
X5030820Y6141720D02*
X5041440Y6152340D01*
X4950460Y6141720D02*
X5030820D01*
X1479290Y5304290D02*
X1620640Y5445640D01*
X1337940Y5162940D02*
X1479290Y5304290D01*
X5900752Y5161280D02*
X5910912Y5171440D01*
X6685280D01*
X5895340Y5161280D02*
X5900752D01*
X2650880Y482560D02*
Y550300D01*
X2651760Y551180D01*
X2650000Y481680D02*
X2650880Y482560D01*
X1662350Y643810D02*
X1663700Y645160D01*
X1661000Y316600D02*
X1662350Y317950D01*
X1663700Y645160D02*
Y660400D01*
X5588000Y3482340D02*
X5671820Y3398520D01*
X5588000Y3482340D02*
Y3487420D01*
X5671820Y3393440D02*
Y3398520D01*
X5262422Y3480258D02*
X5374640Y3368040D01*
X5262422Y3480258D02*
Y3508198D01*
X2310620Y3915900D02*
Y4008120D01*
X1056640Y1390040D02*
Y1480040D01*
X7859540Y4305300D02*
X7914540D01*
X7081520Y4300220D02*
X7183120D01*
X7513320Y5002780D02*
X7515860Y5005320D01*
X7513320Y4881880D02*
Y5002780D01*
X3380740Y3766820D02*
Y3888740D01*
X3378200Y3891280D02*
X3380740Y3888740D01*
X5110938Y3669030D02*
Y3669842D01*
X5024120Y3582212D02*
X5110938Y3669030D01*
X5024120Y3581400D02*
Y3582212D01*
X4885700Y2000000D02*
X4888410Y2002710D01*
X6753860Y1168400D02*
Y1304100D01*
Y1144100D02*
Y1168400D01*
X6154155Y3548116D02*
X6225997Y3619958D01*
X6225998D01*
X3853180Y3583940D02*
X3916680D01*
X3850640Y3581400D02*
X3853180Y3583940D01*
X3836420Y3581400D02*
X3850640D01*
X4775071Y3665091D02*
X4815942Y3705962D01*
X4837532Y3684372D02*
Y3719728D01*
X4833620Y3723640D02*
X4837532Y3719728D01*
X6729560Y711200D02*
X6732100Y708660D01*
X6629400Y711200D02*
X6729560D01*
X6626860Y713740D02*
X6629400Y711200D01*
X6993907Y1093880D02*
Y1154413D01*
X6990080Y1158240D02*
X6993907Y1154413D01*
X5102860Y2012860D02*
X5106687Y2016687D01*
Y2122153D01*
X5102860Y2125980D02*
X5106687Y2122153D01*
X4644207Y2001983D02*
Y2119447D01*
X4645660Y2120900D01*
X4642755Y2000530D02*
X4644207Y2001983D01*
X7515860Y5621020D02*
Y5748020D01*
X7266940Y5613400D02*
Y5689600D01*
X7522460Y5201920D02*
X7529060Y5195320D01*
X7712960D02*
X7813421Y5094859D01*
Y4999792D02*
Y5094859D01*
X7529060Y5195320D02*
X7712960D01*
X7515860D02*
X7522460Y5201920D01*
X7515860Y5195320D02*
Y5392420D01*
X7266940Y5200400D02*
Y5400040D01*
X5325000Y1643500D02*
Y1843320D01*
X2925000Y6281680D02*
X2928810Y6285490D01*
X3181790D01*
X3185600Y6289300D01*
X3073800Y6431500D02*
X3185600Y6543300D01*
X2925000Y6431500D02*
X3073800D01*
X2601350Y268320D02*
X2650000D01*
X2596030Y263000D02*
X2601350Y268320D01*
X2400000Y263000D02*
X2596030D01*
D42*
X2235200Y1582420D02*
X2366680D01*
X2400300Y1548800D01*
X2433920Y1582420D02*
X2578100D01*
X2400300Y1548800D02*
X2433920Y1582420D01*
X3469640Y1043950D02*
Y1272540D01*
Y1043950D02*
X3475000Y1038590D01*
Y690000D02*
Y1038590D01*
X5284640Y5776980D02*
X5285000Y5777340D01*
X5067300Y5776980D02*
X5284640D01*
X5285000Y5777340D02*
X5319640D01*
X5560242Y5805627D02*
X5584627D01*
X5322520Y5777340D02*
X5531956D01*
X5560242Y5805627D01*
X5584627D02*
X5588000Y5809000D01*
X4999451Y5773420D02*
X5003011Y5776980D01*
X5063740D01*
X4643120Y5773420D02*
X4999451D01*
X1165092Y5323917D02*
X1291175Y5450000D01*
X1098917Y5323917D02*
X1165092D01*
X1075000Y5300000D02*
X1098917Y5323917D01*
X1291175Y5450000D02*
X1325000D01*
Y5750000D01*
X1291175D02*
X1325000D01*
X1165092Y5876082D02*
X1291175Y5750000D01*
X1075000Y5900000D02*
X1098917Y5876082D01*
X1165092D01*
X4889500Y2433320D02*
X4965700Y2357120D01*
X5590540D01*
X5950000Y1997660D01*
Y1000000D02*
Y1997660D01*
X3520440Y5852160D02*
X3522980Y5849620D01*
X3365500Y5852160D02*
X3520440D01*
X3522980Y5849620D02*
X3680460D01*
X3520440Y5735320D02*
Y5847080D01*
X3522980Y5849620D01*
X5451576Y6925000D02*
X5456880D01*
X4075000Y8730780D02*
Y8756220D01*
Y8725000D02*
Y8730780D01*
X3736340Y7716340D02*
Y8341107D01*
X2945000Y6925000D02*
X3736340Y7716340D01*
X7305040Y934720D02*
Y1313180D01*
X7639455Y4430625D02*
Y4513615D01*
Y4430625D02*
X7639540Y4430540D01*
X7581900Y4571170D02*
Y4584700D01*
Y4571170D02*
X7639455Y4513615D01*
X7639540Y4305300D02*
Y4430540D01*
X3700086Y5414586D02*
X4247840Y5962340D01*
X3537086Y5414586D02*
X3700086D01*
X4247840Y5962340D02*
X5070000D01*
X3519000Y5396500D02*
X3537086Y5414586D01*
X5070000Y5962340D02*
X5320000D01*
X5789930Y270510D02*
X6099810D01*
X5788660Y269240D02*
X5789930Y270510D01*
X6099810D02*
X6101080Y271780D01*
X3816310Y433110D02*
Y688690D01*
X3243120Y198120D02*
X3245000Y200000D01*
X3096260Y198120D02*
X3243120D01*
X2961640Y6745440D02*
Y6908360D01*
Y6745440D02*
X2983700Y6723380D01*
X2945000Y6925000D02*
X2961640Y6908360D01*
X2960000Y6620000D02*
Y6747080D01*
X2925000Y6620000D02*
X2960000D01*
X2983700Y6723380D02*
X3828941D01*
X3941707Y6610615D01*
Y6549193D02*
X3947600Y6543300D01*
X3941707Y6549193D02*
Y6610615D01*
X5154140Y6860064D02*
X5219076Y6925000D01*
X5154140Y6590240D02*
Y6860064D01*
X5219076Y6925000D02*
X5451576D01*
X5041440Y6152340D02*
X5070000D01*
X1474480Y6270000D02*
X2675000D01*
X1325880Y6121400D02*
X1474480Y6270000D01*
X1325880Y5750880D02*
Y6121400D01*
X1671000Y990600D02*
X1725000Y1044600D01*
X1651000Y990600D02*
X1671000D01*
X1325000Y5750000D02*
X1325880Y5750880D01*
X1662350Y317950D02*
Y643810D01*
X1651000Y482600D02*
X1661000Y472600D01*
Y316600D02*
Y472600D01*
X4888410Y2432230D02*
X4889500Y2433320D01*
X2675000Y6270000D02*
Y6595000D01*
X2705000Y6625000D01*
X2924999D02*
X2925000Y6625000D01*
Y6620000D02*
Y6625000D01*
X2705000Y6625000D02*
X2924999D01*
X854040Y1700040D02*
X1056640D01*
X760697Y1606697D02*
X854040Y1700040D01*
X7411720Y4300220D02*
X7416800Y4305300D01*
X7639540D01*
X7607300Y3601720D02*
Y3611732D01*
X7639540Y3643972D02*
Y4305300D01*
X7607300Y3611732D02*
X7639540Y3643972D01*
X4951800Y1600200D02*
Y1606099D01*
X2795500Y5545000D02*
X2875500Y5625000D01*
X3305000Y470000D02*
X3540000Y235000D01*
X3305000Y470000D02*
Y690000D01*
X3540000Y235000D02*
X3620000D01*
X3655000Y200000D01*
X4152900Y302900D02*
Y623500D01*
X4227900Y698500D01*
X4075000Y225000D02*
X4152900Y302900D01*
X3680000Y225000D02*
X4075000D01*
X3655000Y200000D02*
X3680000Y225000D01*
D43*
X5582436Y4790245D02*
X5679440Y4887249D01*
X5309493Y4719534D02*
Y4719534D01*
X5179027Y4850000D02*
X5309493Y4719534D01*
X4439459Y3859500D02*
X4491380Y3911420D01*
X4623371Y4044391D02*
Y4339870D01*
X5093689Y4508952D02*
X5095810D01*
X4491380Y3912400D02*
X4623371Y4044391D01*
X4438480Y3859500D02*
X4439459D01*
X4491380Y3911420D02*
Y3912400D01*
X4623371Y4339870D02*
X4851754Y4568253D01*
X5034388D01*
X5093689Y4508952D01*
X5582436Y3810195D02*
X5661371Y3731260D01*
X5582436Y3810195D02*
X5582436D01*
X5506431Y3886200D02*
X5582436Y3810195D01*
X5796690Y4022327D02*
X5864237Y3954780D01*
X5979160D02*
X6784721Y4760341D01*
X5864237Y3954780D02*
X5979160D01*
X5794568Y4022327D02*
X5796690D01*
X5723857Y3951616D02*
X5916212Y3759262D01*
Y3503733D02*
Y3759262D01*
X5295900Y4996703D02*
X5315016Y4977587D01*
X5289536Y5008880D02*
X5295900D01*
X5315016Y4974195D02*
Y4977587D01*
Y4974195D02*
X5321335Y4967877D01*
X5199415Y5099001D02*
X5289536Y5008880D01*
X4407920Y5102860D02*
X4411779Y5099001D01*
X5321335Y4851236D02*
X5380204Y4792366D01*
X5321335Y4851236D02*
Y4967877D01*
X5380204Y4790245D02*
Y4792366D01*
X4411779Y5099001D02*
X5199415D01*
X5295900Y4996703D02*
Y5008880D01*
X4993416Y4401336D02*
X5183433Y4211320D01*
X5189220D01*
X4671060Y3878869D02*
X4991295Y4199104D01*
X6723380Y2463800D02*
X7353300Y3093720D01*
X5755640Y2463800D02*
X6723380D01*
X4671060Y3548380D02*
X5755640Y2463800D01*
X4671060Y3548380D02*
Y3878869D01*
X6001563Y3418382D02*
X6004102D01*
X5916212Y3503733D02*
X6001563Y3418382D01*
X5192986Y4765040D02*
X5273847Y4684179D01*
X4188460Y4765040D02*
X5192986D01*
X4960620Y4502722D02*
X5026650Y4436691D01*
X4924809Y4502722D02*
X4960620D01*
X4853940Y4431853D02*
X4924809Y4502722D01*
X4853940Y4422140D02*
Y4431853D01*
X5688502Y4684179D02*
X5761743Y4757420D01*
X5419950Y5257800D02*
X5559409D01*
X5806440Y4757420D02*
X5922759Y4873739D01*
Y4894449D01*
X5761743Y4757420D02*
X5806440D01*
X5559409Y5257800D02*
X5922759Y4894449D01*
X6784721Y4760341D02*
X7798776D01*
X7813421Y4774986D02*
Y4999792D01*
X7798776Y4760341D02*
X7813421Y4774986D01*
X5054954Y4620520D02*
X5132716Y4542758D01*
X4438480Y4620520D02*
X5054954D01*
X2419480Y4850000D02*
X5179027D01*
X5272582Y3508198D02*
Y3563293D01*
X5055494Y3873500D02*
X5158544D01*
X5030494Y3848500D02*
X5055494Y3873500D01*
X4967970Y3857990D02*
X4977460Y3848500D01*
X5030494D01*
X5900634Y4474168D02*
X6268720Y4842254D01*
Y4846320D01*
X5768503Y4116982D02*
X5827802Y4057682D01*
X5666382Y4116982D02*
X5768503D01*
X5664200Y4114800D02*
X5666382Y4116982D01*
X5971345Y4401336D02*
X6542909Y4972900D01*
X7266940Y4991100D02*
Y5010400D01*
X7248740Y4972900D02*
X7266940Y4991100D01*
X6542909Y4972900D02*
X7248740D01*
X5169141Y3669842D02*
X5344849Y3845550D01*
X5110938Y3669842D02*
X5169141D01*
X5062007Y4472048D02*
X5394960Y4139095D01*
Y4020820D02*
Y4139095D01*
X5986649Y3888740D02*
X6053825Y3821565D01*
X6072005D01*
X5250900Y4848838D02*
X5344849Y4754890D01*
X1883900Y4991100D02*
X4036060D01*
X5168900Y4960620D02*
X5250900Y4878620D01*
X4036060Y4991100D02*
X4066540Y4960620D01*
X5168900D01*
X5250900Y4848838D02*
Y4878620D01*
X5619913Y4754890D02*
X5679211Y4814187D01*
X5754510D02*
X5776483Y4836160D01*
X5679211Y4814187D02*
X5754510D01*
X5805978Y4154460D02*
X5865741Y4094698D01*
X5805978Y4224081D02*
X5816600Y4234703D01*
X5805978Y4154460D02*
Y4224081D01*
X5274138Y4684179D02*
X5414257Y4544060D01*
X5477675D02*
X5653148Y4719533D01*
X5414257Y4544060D02*
X5477675D01*
X5382325Y3810195D02*
X5458330Y3886200D01*
X5506431D01*
X4991295Y4401336D02*
X4993416D01*
X5321300Y3749170D02*
X5380204Y3808074D01*
Y3810195D01*
X5382325D01*
X5158544Y3873500D02*
X5236661Y3951616D01*
X5238782D01*
X5900634Y4472047D02*
Y4474168D01*
X5827802Y4057682D02*
X5829924D01*
X5759213Y3986972D02*
X5857445Y3888740D01*
X5986649D01*
X5344849Y4754890D02*
Y4754890D01*
X5617791Y4754890D02*
X5619913D01*
X5865741Y4093500D02*
Y4094698D01*
X5816600Y4234703D02*
Y4246880D01*
X6077820Y2892660D02*
Y3023475D01*
X6052820Y3048475D02*
Y3309489D01*
X6006642Y3355667D02*
Y3415842D01*
X6052820Y3048475D02*
X6077820Y3023475D01*
X6019204Y2834044D02*
X6077820Y2892660D01*
X6006642Y3355667D02*
X6052820Y3309489D01*
X6387642Y3781169D02*
Y3781602D01*
Y3781169D02*
X6663015Y3505796D01*
X6690956D01*
X5320000Y5357750D02*
X5419950Y5257800D01*
X5320000Y5357750D02*
Y5587340D01*
X1473200Y5310380D02*
X1479290Y5304290D01*
X1473200Y5310380D02*
Y5925820D01*
X1875000Y5300000D02*
X1913268Y5261732D01*
X1985713D01*
X1620640Y5445640D02*
X1625000Y5450000D01*
X1325000Y5162940D02*
X1337940D01*
X1325000Y5150000D02*
Y5162940D01*
X2674240Y6080760D02*
X2675000Y6080000D01*
X1989645Y5257800D02*
X3980180D01*
X1985713Y5261732D02*
X1989645Y5257800D01*
X3980180D02*
X5419950D01*
X4192520Y5128260D02*
X4217920Y5102860D01*
X2125980Y5128260D02*
X4192520D01*
X6206355Y3902882D02*
Y3955915D01*
Y3902882D02*
X6327635Y3781602D01*
X6387642D01*
X7177380Y322780D02*
X7502200D01*
D44*
X5679440Y4887249D02*
Y4953000D01*
X5743567Y3649065D02*
X5749645D01*
X5661371Y3731260D02*
X5743567Y3649065D01*
X5321300Y3612011D02*
Y3749170D01*
X5272582Y3563293D02*
X5321300Y3612011D01*
X5067300Y5504180D02*
Y5586980D01*
X1473200Y5925820D02*
X1628140Y6080760D01*
X2674240D01*
X2913320Y6080000D02*
X2925000Y6068320D01*
X2675000Y6080000D02*
X2913320D01*
D45*
X3968600Y1125000D02*
X4443800Y1600200D01*
X3825000Y1125000D02*
X3968600D01*
X4443800Y1956575D02*
X4447755Y1960530D01*
Y2003593D01*
X4443800Y1600200D02*
Y1956575D01*
X3640000Y940000D02*
X3825000Y1125000D01*
X3640000Y695000D02*
Y940000D01*
Y695000D02*
X3645000Y690000D01*
X4443800Y1600200D02*
X4697800D01*
D46*
X5436555Y4663183D02*
X5453123D01*
X5486400Y4696460D01*
Y5049520D02*
X5491480Y5054600D01*
X5486400Y4696460D02*
Y5049520D01*
X5344849Y4754890D02*
X5436555Y4663183D01*
X1625000Y5150000D02*
X2104240D01*
X2125980Y5128260D01*
X1625000Y4850000D02*
X2419480D01*
D47*
X3124701Y4265448D02*
X3130934Y4259214D01*
X3376285D01*
X3047880Y4208597D02*
X3380156D01*
X3378200Y4213553D02*
X3385112D01*
X3378200Y4119880D02*
Y4206641D01*
Y4259215D02*
Y4345580D01*
X3387851Y4215428D02*
X3519604D01*
X3519661Y4215370D01*
X3642692D01*
X3651479Y4206583D01*
Y4112520D02*
Y4206583D01*
X3378200Y4259215D02*
X3583575D01*
X3629322Y4304962D01*
Y4344363D01*
X3651479Y4366520D01*
X1883787Y4108787D02*
Y4232500D01*
X1871260Y4400000D02*
X1875000D01*
X1883787Y4267500D02*
Y4391213D01*
X1875000Y4400000D02*
X1883787Y4391213D01*
X1875000Y4100000D02*
X1883787Y4108787D01*
Y4267500D02*
X1913003D01*
X1883787Y4232500D02*
X1913003D01*
X2333517Y4267500D02*
X2443120Y4157897D01*
X2460860Y4053360D02*
X2510620Y4103120D01*
X2530620D01*
X2443120Y4053360D02*
Y4157897D01*
Y4053360D02*
X2460860D01*
X2843427Y4257340D02*
X3116593D01*
X2834640Y4361180D02*
X2843427Y4352393D01*
Y4257340D02*
Y4352393D01*
X3116593Y4257340D02*
X3125380Y4266127D01*
X2835344Y4208597D02*
X3047880D01*
X3041362Y4207645D02*
Y4207645D01*
Y4207645D02*
X3047880Y4201127D01*
Y4187340D02*
Y4201127D01*
X3090380Y4144840D02*
X3125380D01*
X3047880Y4187340D02*
X3090380Y4144840D01*
X3040410Y4208597D02*
X3041362Y4207645D01*
X3385976Y4213553D02*
X3387851Y4215428D01*
X3385112Y4213553D02*
X3385976D01*
X3378200Y4206641D02*
X3385112Y4213553D01*
X3377920Y4345860D02*
X3378200Y4345580D01*
X2672080Y4165600D02*
X2766697Y4260217D01*
X2825853D02*
X2834640Y4269003D01*
Y4361180D01*
X2766697Y4260217D02*
X2825853D01*
X2319020Y4232500D02*
X2408120Y4143400D01*
X1913003Y4267500D02*
X2265265D01*
X1913003Y4232500D02*
X2265265D01*
Y4267500D02*
X2333517D01*
X2265265Y4232500D02*
X2319020D01*
X3125380Y4266127D02*
Y4334840D01*
X2530620Y4034407D02*
Y4103120D01*
X2672080Y4034407D02*
Y4165600D01*
X2539407Y4025620D02*
X2663293D01*
X2672080Y4034407D01*
X2530620D02*
X2539407Y4025620D01*
X2834640Y4107180D02*
Y4207893D01*
X2772657Y4216680D02*
X2825853D01*
X2707080Y4151102D02*
X2772657Y4216680D01*
X2825853D02*
X2834640Y4207893D01*
X2707080Y4019909D02*
Y4151102D01*
X2539407Y3990620D02*
X2677790D01*
X2707080Y4019909D01*
X2530620Y3981833D02*
X2539407Y3990620D01*
X2530620Y3913120D02*
Y3981833D01*
X2408120Y4015620D02*
Y4143400D01*
X2510620Y3913120D02*
X2530620D01*
X2408120Y4015620D02*
X2510620Y3913120D01*
D48*
X1343177Y4112743D02*
Y4231823D01*
Y4112743D02*
X1490980Y3964940D01*
X1325000Y4250000D02*
X1343177Y4231823D01*
X1490980Y2725832D02*
Y3964940D01*
X1447961Y2682813D02*
X1490980Y2725832D01*
X1447961Y2472961D02*
Y2682813D01*
X1425000Y2450000D02*
X1447961Y2472961D01*
D49*
X1725000Y1044600D02*
Y1434130D01*
D50*
X2401090Y2216809D02*
D03*
D51*
X3651479Y4112520D02*
D03*
Y4366520D02*
D03*
Y3858520D02*
D03*
Y4620520D02*
D03*
X4438480D02*
D03*
Y4112520D02*
D03*
Y4366520D02*
D03*
X3947600Y6289300D02*
D03*
X3185600D02*
D03*
X3947600Y6543300D02*
D03*
X5588000Y6065520D02*
D03*
X6350000D02*
D03*
X5588000Y5811520D02*
D03*
X6348972Y6352000D02*
D03*
X5586972D02*
D03*
X6348972Y6606000D02*
D03*
D52*
X4438480Y3858520D02*
D03*
X3185600Y6543300D02*
D03*
X6350000Y5811520D02*
D03*
X5586972Y6606000D02*
D03*
D53*
X7073900Y4584700D02*
D03*
X7327900D02*
D03*
X7581900D02*
D03*
X2834640Y4107180D02*
D03*
D54*
X7835900Y4584700D02*
D03*
D55*
X7353300Y3601720D02*
D03*
X7607300D02*
D03*
X7353300Y3347720D02*
D03*
X7607300D02*
D03*
X7353300Y3093720D02*
D03*
X7607300D02*
D03*
X7353300Y2839720D02*
D03*
X7607300D02*
D03*
X7353300Y2585720D02*
D03*
D56*
X7607300D02*
D03*
D57*
X6511576Y6925000D02*
D03*
X2350000Y5545000D02*
D03*
X4005000Y6925000D02*
D03*
D58*
X5451576Y6925000D02*
D03*
X2945000Y6925000D02*
D03*
D59*
X6600040Y8730780D02*
D03*
X4075000D02*
D03*
D60*
X6000040Y8930780D02*
D03*
X3475000D02*
D03*
D61*
X5400040Y8730780D02*
D03*
Y7510780D02*
D03*
X6600040D02*
D03*
X4075000D02*
D03*
X2875000D02*
D03*
Y8730780D02*
D03*
D62*
X1875000Y4100000D02*
D03*
D63*
Y4400000D02*
D03*
Y4700000D02*
D03*
Y5000000D02*
D03*
Y5300000D02*
D03*
Y5600000D02*
D03*
Y5900000D02*
D03*
X1625000Y4250000D02*
D03*
Y4550000D02*
D03*
Y4850000D02*
D03*
Y5150000D02*
D03*
Y5450000D02*
D03*
Y5750000D02*
D03*
X1325000Y4250000D02*
D03*
Y4550000D02*
D03*
Y4850000D02*
D03*
Y5150000D02*
D03*
Y5450000D02*
D03*
Y5750000D02*
D03*
X1075000Y4100000D02*
D03*
Y4400000D02*
D03*
Y4700000D02*
D03*
Y5000000D02*
D03*
Y5300000D02*
D03*
Y5600000D02*
D03*
Y5900000D02*
D03*
D64*
X425000Y3375000D02*
D03*
Y6625000D02*
D03*
D65*
X2834640Y4361180D02*
D03*
D66*
X246000Y1600000D02*
D03*
X754000D02*
D03*
D67*
X2350000Y6605000D02*
D03*
D68*
X4443800Y1600200D02*
D03*
D69*
X4697800D02*
D03*
X4951800D02*
D03*
D70*
X1425000Y2450000D02*
D03*
D71*
X1125000Y1980000D02*
D03*
D72*
X825000Y2450000D02*
D03*
D73*
X2052320Y1978660D02*
D03*
X7734296Y1587500D02*
D03*
X287434Y8962857D02*
D03*
X7734296Y8956307D02*
D03*
D74*
X7109460Y1071880D02*
D03*
X805357Y5785468D02*
D03*
X6774357Y2994008D02*
D03*
X6433997Y2658728D02*
D03*
X7312837Y6031848D02*
D03*
X4054017Y5419708D02*
D03*
X4452797Y5765148D02*
D03*
X4894757Y5434948D02*
D03*
X5476417Y5424788D02*
D03*
X5844717Y5310488D02*
D03*
X5997117Y5526388D02*
D03*
X6784517Y5307948D02*
D03*
X6136817Y4975208D02*
D03*
X5359577Y5145388D02*
D03*
X5290997Y4114148D02*
D03*
X5209717Y3253088D02*
D03*
X3378200Y4699000D02*
D03*
X5046361Y7067621D02*
D03*
X5560001Y7060001D02*
D03*
X7060001Y6460001D02*
D03*
X1960000Y7060001D02*
D03*
X4360001Y3460001D02*
D03*
X2560000Y7060001D02*
D03*
X7360001D02*
D03*
X3160001Y3460001D02*
D03*
X2560000Y4660001D02*
D03*
X6760001Y5860001D02*
D03*
X1960000Y8260001D02*
D03*
X760000Y7060001D02*
D03*
X3160001Y4660001D02*
D03*
X6460001Y4060001D02*
D03*
X460000Y7660001D02*
D03*
X6160001Y5860001D02*
D03*
X6460001Y1660000D02*
D03*
X1360000Y7060001D02*
D03*
X1060000Y8860001D02*
D03*
X7660001Y6460001D02*
D03*
X7360001Y8260001D02*
D03*
X4660001Y8860001D02*
D03*
X1060000Y7660001D02*
D03*
X7060001D02*
D03*
X1960000Y3460001D02*
D03*
X5260001Y2860001D02*
D03*
X7360001Y2260001D02*
D03*
X4660001Y6460001D02*
D03*
X1660000Y7660001D02*
D03*
Y8860001D02*
D03*
X2260001D02*
D03*
X6160001Y7060001D02*
D03*
X760000Y8260001D02*
D03*
X2560000D02*
D03*
X7060001Y8860001D02*
D03*
X1360000Y8260001D02*
D03*
X2260001Y7660001D02*
D03*
X7060001Y5260001D02*
D03*
X4960001Y8260001D02*
D03*
X6160001Y2260001D02*
D03*
X4360001Y8260001D02*
D03*
X3760001Y7060001D02*
D03*
X760000Y4660001D02*
D03*
X7660001Y7660001D02*
D03*
X6760001Y2260001D02*
D03*
X2560000Y3460001D02*
D03*
X5707380Y7889240D02*
D03*
X2016760Y241300D02*
D03*
X6893560Y309880D02*
D03*
X5328920Y2131060D02*
D03*
X7813421Y5482992D02*
D03*
X6268720Y4846320D02*
D03*
X6891020Y6695440D02*
D03*
X5189220Y4211320D02*
D03*
X4853940Y4422140D02*
D03*
X5664200Y4114800D02*
D03*
X5816600Y4246880D02*
D03*
X5656580Y5356860D02*
D03*
X4386580Y6705600D02*
D03*
X5067300Y5504180D02*
D03*
X2651760Y551180D02*
D03*
X5671820Y3393440D02*
D03*
X5776483Y4836160D02*
D03*
X4188460Y4765040D02*
D03*
X2310620Y3915900D02*
D03*
X1056640Y1390040D02*
D03*
X7914540Y4305300D02*
D03*
X5295900Y5008880D02*
D03*
X5024120Y3581400D02*
D03*
X6753860Y1304100D02*
D03*
X6154155Y3548116D02*
D03*
X3380740Y3766820D02*
D03*
X3916680Y3583940D02*
D03*
X4775071Y3665091D02*
D03*
X5770616Y3184896D02*
D03*
X5895340Y5161280D02*
D03*
X7081520Y4300220D02*
D03*
X6626860Y713740D02*
D03*
X6990080Y1158240D02*
D03*
X4950460Y6141720D02*
D03*
X5102860Y2125980D02*
D03*
X4645660Y2120900D02*
D03*
X7515860Y5748020D02*
D03*
X7266940Y5689600D02*
D03*
X5491480Y5054600D02*
D03*
X5679440Y4953000D02*
D03*
X5394960Y4020820D02*
D03*
X3980180Y5257800D02*
D03*
X3462500Y1575000D02*
D03*
Y2000000D02*
D03*
X3681250D02*
D03*
Y1575000D02*
D03*
X3900000D02*
D03*
Y2000000D02*
D03*
X3243750Y1575000D02*
D03*
X3025000D02*
D03*
Y2000000D02*
D03*
X3243750D02*
D03*
D75*
X2235200Y1582420D02*
D03*
X2578100D02*
D03*
X3469640Y1272540D02*
D03*
X3365500Y5852160D02*
D03*
X3680460Y5849620D02*
D03*
X3520440Y5735320D02*
D03*
X2400300Y2524700D02*
D03*
X3736340Y8341107D02*
D03*
X7305040Y1313180D02*
D03*
X4643120Y5773420D02*
D03*
X5788660Y269240D02*
D03*
X6101080Y271780D02*
D03*
X3817620Y431800D02*
D03*
X3096260Y198120D02*
D03*
X6685280Y5171440D02*
D03*
X1661000Y316600D02*
D03*
X1663700Y660400D02*
D03*
X4889500Y2433320D02*
D03*
X5374640Y3368040D02*
D03*
X7513320Y4881880D02*
D03*
X6207760Y5506720D02*
D03*
X2400300Y1924700D02*
D03*
D76*
X1725000Y1434130D02*
D03*
%TF.MD5,df0491746b9452d747ff6988003368b4*%
M02*
