%TF.GenerationSoftware,Altium Limited,Altium Designer,21.8.1 (53)*%
G04 Layer_Color=8421504*
%FSLAX45Y45*%
%MOMM*%
%TF.SameCoordinates,385564F4-8892-4696-B1AD-25C4AC7C7797*%
%TF.FilePolarity,Positive*%
%TF.FileFunction,Paste,Top*%
%TF.Part,Single*%
G01*
G75*
%TA.AperFunction,ConnectorPad*%
%ADD10R,1.00000X1.70000*%
%TA.AperFunction,SMDPad,CuDef*%
%ADD11R,1.52400X1.52400*%
G04:AMPARAMS|DCode=12|XSize=0.28mm|YSize=1.56mm|CornerRadius=0.07mm|HoleSize=0mm|Usage=FLASHONLY|Rotation=225.000|XOffset=0mm|YOffset=0mm|HoleType=Round|Shape=RoundedRectangle|*
%AMROUNDEDRECTD12*
21,1,0.28000,1.42000,0,0,225.0*
21,1,0.14000,1.56000,0,0,225.0*
1,1,0.14000,-0.55154,0.45255*
1,1,0.14000,-0.45255,0.55154*
1,1,0.14000,0.55154,-0.45255*
1,1,0.14000,0.45255,-0.55154*
%
%ADD12ROUNDEDRECTD12*%
G04:AMPARAMS|DCode=13|XSize=0.28mm|YSize=1.56mm|CornerRadius=0.07mm|HoleSize=0mm|Usage=FLASHONLY|Rotation=135.000|XOffset=0mm|YOffset=0mm|HoleType=Round|Shape=RoundedRectangle|*
%AMROUNDEDRECTD13*
21,1,0.28000,1.42000,0,0,135.0*
21,1,0.14000,1.56000,0,0,135.0*
1,1,0.14000,0.45255,0.55154*
1,1,0.14000,0.55154,0.45255*
1,1,0.14000,-0.45255,-0.55154*
1,1,0.14000,-0.55154,-0.45255*
%
%ADD13ROUNDEDRECTD13*%
G04:AMPARAMS|DCode=14|XSize=5.6mm|YSize=2.1mm|CornerRadius=0mm|HoleSize=0mm|Usage=FLASHONLY|Rotation=225.000|XOffset=0mm|YOffset=0mm|HoleType=Round|Shape=Rectangle|*
%AMROTATEDRECTD14*
4,1,4,1.23744,2.72236,2.72236,1.23744,-1.23744,-2.72236,-2.72236,-1.23744,1.23744,2.72236,0.0*
%
%ADD14ROTATEDRECTD14*%

%ADD15R,2.89560X5.41020*%
%ADD19R,1.40000X0.95000*%
%ADD21R,1.40000X1.00000*%
%ADD22R,1.00000X1.40000*%
%ADD23R,1.70000X1.00000*%
%ADD24R,1.44780X0.76200*%
%ADD25R,0.76200X1.44780*%
%ADD26R,1.00000X1.70000*%
%ADD27R,1.70000X1.40000*%
G04:AMPARAMS|DCode=28|XSize=1.4mm|YSize=1.7mm|CornerRadius=0mm|HoleSize=0mm|Usage=FLASHONLY|Rotation=135.000|XOffset=0mm|YOffset=0mm|HoleType=Round|Shape=Rectangle|*
%AMROTATEDRECTD28*
4,1,4,1.09602,0.10607,-0.10607,-1.09602,-1.09602,-0.10607,0.10607,1.09602,1.09602,0.10607,0.0*
%
%ADD28ROTATEDRECTD28*%

G04:AMPARAMS|DCode=29|XSize=1mm|YSize=1.7mm|CornerRadius=0mm|HoleSize=0mm|Usage=FLASHONLY|Rotation=45.000|XOffset=0mm|YOffset=0mm|HoleType=Round|Shape=Rectangle|*
%AMROTATEDRECTD29*
4,1,4,0.24749,-0.95460,-0.95460,0.24749,-0.24749,0.95460,0.95460,-0.24749,0.24749,-0.95460,0.0*
%
%ADD29ROTATEDRECTD29*%

G04:AMPARAMS|DCode=30|XSize=1.4mm|YSize=1.7mm|CornerRadius=0mm|HoleSize=0mm|Usage=FLASHONLY|Rotation=225.000|XOffset=0mm|YOffset=0mm|HoleType=Round|Shape=Rectangle|*
%AMROTATEDRECTD30*
4,1,4,-0.10607,1.09602,1.09602,-0.10607,0.10607,-1.09602,-1.09602,0.10607,-0.10607,1.09602,0.0*
%
%ADD30ROTATEDRECTD30*%

G04:AMPARAMS|DCode=31|XSize=0.93mm|YSize=1.31mm|CornerRadius=0.06975mm|HoleSize=0mm|Usage=FLASHONLY|Rotation=270.000|XOffset=0mm|YOffset=0mm|HoleType=Round|Shape=RoundedRectangle|*
%AMROUNDEDRECTD31*
21,1,0.93000,1.17050,0,0,270.0*
21,1,0.79050,1.31000,0,0,270.0*
1,1,0.13950,-0.58525,-0.39525*
1,1,0.13950,-0.58525,0.39525*
1,1,0.13950,0.58525,0.39525*
1,1,0.13950,0.58525,-0.39525*
%
%ADD31ROUNDEDRECTD31*%
G04:AMPARAMS|DCode=32|XSize=3.24mm|YSize=1.31mm|CornerRadius=0.09825mm|HoleSize=0mm|Usage=FLASHONLY|Rotation=270.000|XOffset=0mm|YOffset=0mm|HoleType=Round|Shape=RoundedRectangle|*
%AMROUNDEDRECTD32*
21,1,3.24000,1.11350,0,0,270.0*
21,1,3.04350,1.31000,0,0,270.0*
1,1,0.19650,-0.55675,-1.52175*
1,1,0.19650,-0.55675,1.52175*
1,1,0.19650,0.55675,1.52175*
1,1,0.19650,0.55675,-1.52175*
%
%ADD32ROUNDEDRECTD32*%
%ADD33R,1.40000X1.70000*%
%ADD34R,2.29000X1.40000*%
%TA.AperFunction,ConnectorPad*%
%ADD36R,1.70000X1.00000*%
%TA.AperFunction,SMDPad,CuDef*%
%ADD37R,3.81000X2.08000*%
%ADD39R,1.80000X1.70000*%
%ADD40R,2.00000X4.00000*%
%ADD142R,0.50000X0.50000*%
%ADD143R,0.50000X0.50000*%
G36*
X3148000Y5679500D02*
X3015000D01*
Y5855500D01*
X3148000D01*
Y5679500D01*
D02*
G37*
G36*
X2942000D02*
X2809000D01*
Y5855500D01*
X2942000D01*
Y5679500D01*
D02*
G37*
G36*
X2736000D02*
X2603000D01*
Y5855500D01*
X2736000D01*
Y5679500D01*
D02*
G37*
G36*
X3148000Y5394500D02*
X3015000D01*
Y5570500D01*
X3148000D01*
Y5394500D01*
D02*
G37*
G36*
X2942000D02*
X2809000D01*
Y5570500D01*
X2942000D01*
Y5394500D01*
D02*
G37*
G36*
X2736000D02*
X2603000D01*
Y5570500D01*
X2736000D01*
Y5394500D01*
D02*
G37*
G36*
X4005000Y1325000D02*
X2945000D01*
Y2175000D01*
X4005000D01*
Y1325000D01*
D02*
G37*
G36*
X908000Y1149100D02*
X777000D01*
Y1279100D01*
X908000D01*
Y1149100D01*
D02*
G37*
G36*
X685000D02*
X554000D01*
Y1279100D01*
X685000D01*
Y1149100D01*
D02*
G37*
G36*
X462000D02*
X331000D01*
Y1279100D01*
X462000D01*
Y1149100D01*
D02*
G37*
G36*
X239000D02*
X108000D01*
Y1279100D01*
X239000D01*
Y1149100D01*
D02*
G37*
G36*
X908000Y958100D02*
X777000D01*
Y1088100D01*
X908000D01*
Y958100D01*
D02*
G37*
G36*
X685000D02*
X554000D01*
Y1088100D01*
X685000D01*
Y958100D01*
D02*
G37*
G36*
X462000D02*
X331000D01*
Y1088100D01*
X462000D01*
Y958100D01*
D02*
G37*
G36*
X239000D02*
X108000D01*
Y1088100D01*
X239000D01*
Y958100D01*
D02*
G37*
G36*
X908000Y767100D02*
X777000D01*
Y897100D01*
X908000D01*
Y767100D01*
D02*
G37*
G36*
X685000D02*
X554000D01*
Y897100D01*
X685000D01*
Y767100D01*
D02*
G37*
G36*
X462000D02*
X331000D01*
Y897100D01*
X462000D01*
Y767100D01*
D02*
G37*
G36*
X239000D02*
X108000D01*
Y897100D01*
X239000D01*
Y767100D01*
D02*
G37*
G36*
X908000Y576100D02*
X777000D01*
Y706100D01*
X908000D01*
Y576100D01*
D02*
G37*
G36*
X685000D02*
X554000D01*
Y706100D01*
X685000D01*
Y576100D01*
D02*
G37*
G36*
X462000D02*
X331000D01*
Y706100D01*
X462000D01*
Y576100D01*
D02*
G37*
G36*
X239000D02*
X108000D01*
Y706100D01*
X239000D01*
Y576100D01*
D02*
G37*
G36*
X3860000Y525000D02*
X3770000D01*
Y855000D01*
X3860000D01*
Y525000D01*
D02*
G37*
G36*
X3690000D02*
X3600000D01*
Y855000D01*
X3690000D01*
Y525000D01*
D02*
G37*
G36*
X3520000D02*
X3430000D01*
Y855000D01*
X3520000D01*
Y525000D01*
D02*
G37*
G36*
X3350000D02*
X3260000D01*
Y855000D01*
X3350000D01*
Y525000D01*
D02*
G37*
G36*
X3180000D02*
X3090000D01*
Y855000D01*
X3180000D01*
Y525000D01*
D02*
G37*
G36*
X908000Y385100D02*
X777000D01*
Y515100D01*
X908000D01*
Y385100D01*
D02*
G37*
G36*
X685000D02*
X554000D01*
Y515100D01*
X685000D01*
Y385100D01*
D02*
G37*
G36*
X462000D02*
X331000D01*
Y515100D01*
X462000D01*
Y385100D01*
D02*
G37*
G36*
X239000D02*
X108000D01*
Y515100D01*
X239000D01*
Y385100D01*
D02*
G37*
G36*
X908000Y194100D02*
X777000D01*
Y324100D01*
X908000D01*
Y194100D01*
D02*
G37*
G36*
X685000D02*
X554000D01*
Y324100D01*
X685000D01*
Y194100D01*
D02*
G37*
G36*
X462000D02*
X331000D01*
Y324100D01*
X462000D01*
Y194100D01*
D02*
G37*
G36*
X239000D02*
X108000D01*
Y324100D01*
X239000D01*
Y194100D01*
D02*
G37*
D10*
X4407920Y5102860D02*
D03*
X4217920D02*
D03*
X4452755Y2000530D02*
D03*
X4642755D02*
D03*
D11*
X2400300Y2521600D02*
D03*
Y1924700D02*
D03*
D12*
X5582436Y3810195D02*
D03*
X5617791Y3845550D02*
D03*
X5653147Y3880906D02*
D03*
X5688502Y3916261D02*
D03*
X5723857Y3951616D02*
D03*
X5759213Y3986972D02*
D03*
X5794568Y4022327D02*
D03*
X5829924Y4057682D02*
D03*
X5865279Y4093038D02*
D03*
X5900633Y4128392D02*
D03*
X5935990Y4163749D02*
D03*
X5971345Y4199104D02*
D03*
X5380204Y4790245D02*
D03*
X5344849Y4754890D02*
D03*
X5309493Y4719534D02*
D03*
X5274138Y4684179D02*
D03*
X5238783Y4648824D02*
D03*
X5203427Y4613468D02*
D03*
X5168072Y4578113D02*
D03*
X5132716Y4542758D02*
D03*
X5097361Y4507402D02*
D03*
X5062007Y4472048D02*
D03*
X5026650Y4436691D02*
D03*
X4991295Y4401336D02*
D03*
D13*
X5971345D02*
D03*
X5935990Y4436691D02*
D03*
X5900634Y4472047D02*
D03*
X5865279Y4507402D02*
D03*
X5829924Y4542757D02*
D03*
X5794568Y4578113D02*
D03*
X5759213Y4613468D02*
D03*
X5723858Y4648824D02*
D03*
X5688502Y4684179D02*
D03*
X5653148Y4719533D02*
D03*
X5617791Y4754890D02*
D03*
X5582436Y4790245D02*
D03*
X4991295Y4199104D02*
D03*
X5026650Y4163749D02*
D03*
X5062006Y4128393D02*
D03*
X5097361Y4093038D02*
D03*
X5132716Y4057683D02*
D03*
X5168072Y4022327D02*
D03*
X5203427Y3986972D02*
D03*
X5238782Y3951616D02*
D03*
X5274138Y3916261D02*
D03*
X5309492Y3880907D02*
D03*
X5344849Y3845550D02*
D03*
X5380204Y3810195D02*
D03*
D14*
X6019204Y2834044D02*
D03*
X6690956Y3505796D02*
D03*
D15*
X4227900Y698500D02*
D03*
X5218500D02*
D03*
D19*
X7813421Y5406192D02*
D03*
Y4999792D02*
D03*
D21*
X2310620Y4008120D02*
D03*
X2530620Y4103120D02*
D03*
Y3913120D02*
D03*
D22*
X6799580Y7026420D02*
D03*
X6894580Y6806420D02*
D03*
X6704580D02*
D03*
X4197600Y6814040D02*
D03*
X4387600D02*
D03*
X4292600Y7034040D02*
D03*
D23*
X6586440Y6366760D02*
D03*
Y6556760D02*
D03*
Y5640760D02*
D03*
Y5830760D02*
D03*
X5320000Y6152340D02*
D03*
Y5962340D02*
D03*
X5070000Y6152340D02*
D03*
Y5962340D02*
D03*
X5067300Y5586980D02*
D03*
Y5776980D02*
D03*
X5320000Y5587340D02*
D03*
Y5777340D02*
D03*
X5325000Y1645000D02*
D03*
Y1455000D02*
D03*
X4236720Y6556760D02*
D03*
Y6366760D02*
D03*
X3125380Y4334840D02*
D03*
Y4144840D02*
D03*
X7515860Y5005320D02*
D03*
Y5195320D02*
D03*
X2675000Y6080000D02*
D03*
Y6270000D02*
D03*
X7266940Y5200400D02*
D03*
Y5010400D02*
D03*
D24*
X6586440Y5972460D02*
D03*
Y6185820D02*
D03*
X7266940Y5400040D02*
D03*
Y5613400D02*
D03*
X2925000Y6281680D02*
D03*
Y6068320D02*
D03*
X5325000Y2056680D02*
D03*
Y1843320D02*
D03*
X2650000Y268320D02*
D03*
Y481680D02*
D03*
D25*
X5133340Y6370320D02*
D03*
X5346700D02*
D03*
X6964020Y322780D02*
D03*
X7177380D02*
D03*
D26*
X5344140Y6590240D02*
D03*
X5154140D02*
D03*
X3646420Y3581400D02*
D03*
X3836420D02*
D03*
X7690700Y322780D02*
D03*
X7500700D02*
D03*
D27*
X6753860Y1168400D02*
D03*
Y939800D02*
D03*
X6756400Y480060D02*
D03*
Y708660D02*
D03*
X3378200Y3891280D02*
D03*
Y4119880D02*
D03*
X3377920Y4345860D02*
D03*
Y4574460D02*
D03*
X7515860Y5392420D02*
D03*
Y5621020D02*
D03*
X2149828Y470049D02*
D03*
Y241449D02*
D03*
D28*
X5110938Y3669842D02*
D03*
X5272582Y3508198D02*
D03*
D29*
X4967970Y3857990D02*
D03*
X4833620Y3723640D02*
D03*
X6206355Y3955915D02*
D03*
X6072005Y3821565D02*
D03*
D30*
X5588000Y3487420D02*
D03*
X5749645Y3649065D02*
D03*
X6225998Y3619958D02*
D03*
X6387642Y3781602D02*
D03*
X5844998Y3254198D02*
D03*
X6006642Y3415842D02*
D03*
D31*
X7007200Y614380D02*
D03*
Y843380D02*
D03*
Y1072380D02*
D03*
D32*
X7676200Y843380D02*
D03*
D33*
X7411720Y4300220D02*
D03*
X7183120D02*
D03*
X4885700Y2000000D02*
D03*
X5114300D02*
D03*
D34*
X3519000Y5853500D02*
D03*
Y5396500D02*
D03*
D36*
X2925000Y6620000D02*
D03*
Y6430000D02*
D03*
X2400000Y261500D02*
D03*
Y451500D02*
D03*
D37*
X1651000Y482600D02*
D03*
Y990600D02*
D03*
D39*
X3655000Y200000D02*
D03*
X3245000D02*
D03*
D40*
X5950000Y1000000D02*
D03*
Y290000D02*
D03*
X2400300Y838800D02*
D03*
Y1548800D02*
D03*
D142*
X1056640Y1480040D02*
D03*
Y1700040D02*
D03*
D143*
X7639540Y4305300D02*
D03*
X7859540D02*
D03*
%TF.MD5,7624c21e10f41cfaebcb54a7e8635888*%
M02*
