%TF.GenerationSoftware,Altium Limited,Altium Designer,21.8.1 (53)*%
G04 Layer_Color=16711935*
%FSLAX45Y45*%
%MOMM*%
%TF.SameCoordinates,385564F4-8892-4696-B1AD-25C4AC7C7797*%
%TF.FilePolarity,Negative*%
%TF.FileFunction,Soldermask,Bot*%
%TF.Part,Single*%
G01*
G75*
%TA.AperFunction,SMDPad,CuDef*%
G04:AMPARAMS|DCode=106|XSize=1.6032mm|YSize=1.9032mm|CornerRadius=0mm|HoleSize=0mm|Usage=FLASHONLY|Rotation=225.000|XOffset=0mm|YOffset=0mm|HoleType=Round|Shape=Rectangle|*
%AMROTATEDRECTD106*
4,1,4,-0.10607,1.23970,1.23970,-0.10607,0.10607,-1.23970,-1.23970,0.10607,-0.10607,1.23970,0.0*
%
%ADD106ROTATEDRECTD106*%

G04:AMPARAMS|DCode=107|XSize=1.6032mm|YSize=1.9032mm|CornerRadius=0mm|HoleSize=0mm|Usage=FLASHONLY|Rotation=315.000|XOffset=0mm|YOffset=0mm|HoleType=Round|Shape=Rectangle|*
%AMROTATEDRECTD107*
4,1,4,-1.23970,-0.10607,0.10607,1.23970,1.23970,0.10607,-0.10607,-1.23970,-1.23970,-0.10607,0.0*
%
%ADD107ROTATEDRECTD107*%

%ADD108R,1.90320X1.60320*%
%TA.AperFunction,ComponentPad*%
%ADD109C,1.51120*%
%ADD110R,1.51120X1.51120*%
%ADD111C,1.70320*%
%ADD112R,1.70320X1.70320*%
%ADD113C,1.57320*%
%ADD114R,1.57320X1.57320*%
%ADD115C,1.85320*%
%ADD116R,1.85320X1.85320*%
%ADD117R,2.18320X2.18320*%
%ADD118C,2.13820*%
%ADD119C,2.18320*%
%ADD120R,2.45320X2.45320*%
%ADD121C,2.45320*%
%ADD122C,3.60320*%
%ADD123R,1.70320X1.70320*%
%ADD124C,1.55320*%
%ADD125R,1.85320X1.85320*%
%ADD126R,1.42120X1.42120*%
%ADD127C,1.42120*%
%ADD128O,2.70320X5.20320*%
%ADD129O,4.70320X2.45320*%
%ADD130O,2.45320X4.70320*%
%TA.AperFunction,WasherPad*%
%ADD131C,4.20320*%
%TA.AperFunction,ViaPad*%
%ADD132C,0.90320*%
%ADD133C,1.20320*%
%ADD134C,2.20320*%
D106*
X5387798Y4366718D02*
D03*
X5549442Y4528362D02*
D03*
X5565598Y4188918D02*
D03*
X5727242Y4350562D02*
D03*
D107*
X5930442Y4877258D02*
D03*
X5768798Y5038902D02*
D03*
X4978858Y4482642D02*
D03*
X5140502Y4320998D02*
D03*
D108*
X4218940Y4345940D02*
D03*
Y4117340D02*
D03*
D109*
X3651479Y4112520D02*
D03*
Y4366520D02*
D03*
Y3858520D02*
D03*
Y4620520D02*
D03*
X4438480D02*
D03*
Y4112520D02*
D03*
Y4366520D02*
D03*
X3947600Y6289300D02*
D03*
X3185600D02*
D03*
X3947600Y6543300D02*
D03*
X5588000Y6065520D02*
D03*
X6350000D02*
D03*
X5588000Y5811520D02*
D03*
X6348972Y6352000D02*
D03*
X5586972D02*
D03*
X6348972Y6606000D02*
D03*
D110*
X4438480Y3858520D02*
D03*
X3185600Y6543300D02*
D03*
X6350000Y5811520D02*
D03*
X5586972Y6606000D02*
D03*
D111*
X7073900Y4584700D02*
D03*
X7327900D02*
D03*
X7581900D02*
D03*
X2834640Y4107180D02*
D03*
D112*
X7835900Y4584700D02*
D03*
D113*
X7353300Y3601720D02*
D03*
X7607300D02*
D03*
X7353300Y3347720D02*
D03*
X7607300D02*
D03*
X7353300Y3093720D02*
D03*
X7607300D02*
D03*
X7353300Y2839720D02*
D03*
X7607300D02*
D03*
X7353300Y2585720D02*
D03*
D114*
X7607300D02*
D03*
D115*
X6511576Y6925000D02*
D03*
X2350000Y5545000D02*
D03*
X4005000Y6925000D02*
D03*
D116*
X5451576Y6925000D02*
D03*
X2945000Y6925000D02*
D03*
D117*
X6600040Y8730780D02*
D03*
X4075000D02*
D03*
D118*
X6000040Y8930780D02*
D03*
X3475000D02*
D03*
D119*
X5400040Y8730780D02*
D03*
Y7510780D02*
D03*
X6600040D02*
D03*
X4075000D02*
D03*
X2875000D02*
D03*
Y8730780D02*
D03*
D120*
X1875000Y4100000D02*
D03*
D121*
Y4400000D02*
D03*
Y4700000D02*
D03*
Y5000000D02*
D03*
Y5300000D02*
D03*
Y5600000D02*
D03*
Y5900000D02*
D03*
X1625000Y4250000D02*
D03*
Y4550000D02*
D03*
Y4850000D02*
D03*
Y5150000D02*
D03*
Y5450000D02*
D03*
Y5750000D02*
D03*
X1325000Y4250000D02*
D03*
Y4550000D02*
D03*
Y4850000D02*
D03*
Y5150000D02*
D03*
Y5450000D02*
D03*
Y5750000D02*
D03*
X1075000Y4100000D02*
D03*
Y4400000D02*
D03*
Y4700000D02*
D03*
Y5000000D02*
D03*
Y5300000D02*
D03*
Y5600000D02*
D03*
Y5900000D02*
D03*
D122*
X425000Y3375000D02*
D03*
Y6625000D02*
D03*
D123*
X2834640Y4361180D02*
D03*
D124*
X246000Y1600000D02*
D03*
X754000D02*
D03*
D125*
X2350000Y6605000D02*
D03*
D126*
X4443800Y1600200D02*
D03*
D127*
X4697800D02*
D03*
X4951800D02*
D03*
D128*
X1425000Y2450000D02*
D03*
D129*
X1125000Y1980000D02*
D03*
D130*
X825000Y2450000D02*
D03*
D131*
X2052320Y1978660D02*
D03*
X7734296Y1587500D02*
D03*
X287434Y8962857D02*
D03*
X7734296Y8956307D02*
D03*
D132*
X7109460Y1071880D02*
D03*
X805357Y5785468D02*
D03*
X6774357Y2994008D02*
D03*
X6433997Y2658728D02*
D03*
X7312837Y6031848D02*
D03*
X4054017Y5419708D02*
D03*
X4452797Y5765148D02*
D03*
X4894757Y5434948D02*
D03*
X5476417Y5424788D02*
D03*
X5844717Y5310488D02*
D03*
X5997117Y5526388D02*
D03*
X6784517Y5307948D02*
D03*
X6136817Y4975208D02*
D03*
X5359577Y5145388D02*
D03*
X5290997Y4114148D02*
D03*
X5209717Y3253088D02*
D03*
X3378200Y4699000D02*
D03*
X5046361Y7067621D02*
D03*
X5560001Y7060001D02*
D03*
X7060001Y6460001D02*
D03*
X1960000Y7060001D02*
D03*
X4360001Y3460001D02*
D03*
X2560000Y7060001D02*
D03*
X7360001D02*
D03*
X3160001Y3460001D02*
D03*
X2560000Y4660001D02*
D03*
X6760001Y5860001D02*
D03*
X1960000Y8260001D02*
D03*
X760000Y7060001D02*
D03*
X3160001Y4660001D02*
D03*
X6460001Y4060001D02*
D03*
X460000Y7660001D02*
D03*
X6160001Y5860001D02*
D03*
X6460001Y1660000D02*
D03*
X1360000Y7060001D02*
D03*
X1060000Y8860001D02*
D03*
X7660001Y6460001D02*
D03*
X7360001Y8260001D02*
D03*
X4660001Y8860001D02*
D03*
X1060000Y7660001D02*
D03*
X7060001D02*
D03*
X1960000Y3460001D02*
D03*
X5260001Y2860001D02*
D03*
X7360001Y2260001D02*
D03*
X4660001Y6460001D02*
D03*
X1660000Y7660001D02*
D03*
Y8860001D02*
D03*
X2260001D02*
D03*
X6160001Y7060001D02*
D03*
X760000Y8260001D02*
D03*
X2560000D02*
D03*
X7060001Y8860001D02*
D03*
X1360000Y8260001D02*
D03*
X2260001Y7660001D02*
D03*
X7060001Y5260001D02*
D03*
X4960001Y8260001D02*
D03*
X6160001Y2260001D02*
D03*
X4360001Y8260001D02*
D03*
X3760001Y7060001D02*
D03*
X760000Y4660001D02*
D03*
X7660001Y7660001D02*
D03*
X6760001Y2260001D02*
D03*
X2560000Y3460001D02*
D03*
X5707380Y7889240D02*
D03*
X2016760Y241300D02*
D03*
X6893560Y309880D02*
D03*
X5328920Y2131060D02*
D03*
X7813421Y5482992D02*
D03*
X6268720Y4846320D02*
D03*
X6891020Y6695440D02*
D03*
X5189220Y4211320D02*
D03*
X4853940Y4422140D02*
D03*
X5664200Y4114800D02*
D03*
X5816600Y4246880D02*
D03*
X5656580Y5356860D02*
D03*
X4386580Y6705600D02*
D03*
X5067300Y5504180D02*
D03*
X2651760Y551180D02*
D03*
X5671820Y3393440D02*
D03*
X5776483Y4836160D02*
D03*
X4188460Y4765040D02*
D03*
X2310620Y3915900D02*
D03*
X1056640Y1390040D02*
D03*
X7914540Y4305300D02*
D03*
X5295900Y5008880D02*
D03*
X5024120Y3581400D02*
D03*
X6753860Y1304100D02*
D03*
X6154155Y3548116D02*
D03*
X3380740Y3766820D02*
D03*
X3916680Y3583940D02*
D03*
X4775071Y3665091D02*
D03*
X5770616Y3184896D02*
D03*
X5895340Y5161280D02*
D03*
X7081520Y4300220D02*
D03*
X6626860Y713740D02*
D03*
X6990080Y1158240D02*
D03*
X4950460Y6141720D02*
D03*
X5102860Y2125980D02*
D03*
X4645660Y2120900D02*
D03*
X7515860Y5748020D02*
D03*
X7266940Y5689600D02*
D03*
X5491480Y5054600D02*
D03*
X5679440Y4953000D02*
D03*
X5394960Y4020820D02*
D03*
X3980180Y5257800D02*
D03*
X3462500Y1575000D02*
D03*
Y2000000D02*
D03*
X3681250D02*
D03*
Y1575000D02*
D03*
X3900000D02*
D03*
Y2000000D02*
D03*
X3243750Y1575000D02*
D03*
X3025000D02*
D03*
Y2000000D02*
D03*
X3243750D02*
D03*
D133*
X2235200Y1582420D02*
D03*
X2578100D02*
D03*
X3469640Y1272540D02*
D03*
X3365500Y5852160D02*
D03*
X3680460Y5849620D02*
D03*
X3520440Y5735320D02*
D03*
X2400300Y2524700D02*
D03*
X3736340Y8341107D02*
D03*
X7305040Y1313180D02*
D03*
X4643120Y5773420D02*
D03*
X5788660Y269240D02*
D03*
X6101080Y271780D02*
D03*
X3817620Y431800D02*
D03*
X3096260Y198120D02*
D03*
X6685280Y5171440D02*
D03*
X1661000Y316600D02*
D03*
X1663700Y660400D02*
D03*
X4889500Y2433320D02*
D03*
X5374640Y3368040D02*
D03*
X7513320Y4881880D02*
D03*
X6207760Y5506720D02*
D03*
X2400300Y1924700D02*
D03*
D134*
X1725000Y1434130D02*
D03*
%TF.MD5,838c917119bd8dc9e3f6c02232f6f933*%
M02*
