%TF.GenerationSoftware,Altium Limited,Altium Designer,21.8.1 (53)*%
G04 Layer_Physical_Order=4*
G04 Layer_Color=16711680*
%FSLAX45Y45*%
%MOMM*%
%TF.SameCoordinates,385564F4-8892-4696-B1AD-25C4AC7C7797*%
%TF.FilePolarity,Positive*%
%TF.FileFunction,Copper,L4,Bot,Signal*%
%TF.Part,Single*%
G01*
G75*
%TA.AperFunction,SMDPad,CuDef*%
%ADD27R,1.70000X1.40000*%
G04:AMPARAMS|DCode=28|XSize=1.4mm|YSize=1.7mm|CornerRadius=0mm|HoleSize=0mm|Usage=FLASHONLY|Rotation=135.000|XOffset=0mm|YOffset=0mm|HoleType=Round|Shape=Rectangle|*
%AMROTATEDRECTD28*
4,1,4,1.09602,0.10607,-0.10607,-1.09602,-1.09602,-0.10607,0.10607,1.09602,1.09602,0.10607,0.0*
%
%ADD28ROTATEDRECTD28*%

G04:AMPARAMS|DCode=30|XSize=1.4mm|YSize=1.7mm|CornerRadius=0mm|HoleSize=0mm|Usage=FLASHONLY|Rotation=225.000|XOffset=0mm|YOffset=0mm|HoleType=Round|Shape=Rectangle|*
%AMROTATEDRECTD30*
4,1,4,-0.10607,1.09602,1.09602,-0.10607,0.10607,-1.09602,-1.09602,0.10607,-0.10607,1.09602,0.0*
%
%ADD30ROTATEDRECTD30*%

%TA.AperFunction,Conductor*%
%ADD41C,0.50000*%
%ADD42C,1.00000*%
%ADD43C,0.25000*%
%ADD47C,0.15000*%
%ADD49C,2.00000*%
%TA.AperFunction,ComponentPad*%
%ADD51C,1.30800*%
%ADD52R,1.30800X1.30800*%
%ADD53C,1.50000*%
%ADD54R,1.50000X1.50000*%
%ADD55C,1.37000*%
%ADD56R,1.37000X1.37000*%
%ADD57C,1.65000*%
%ADD58R,1.65000X1.65000*%
%ADD59R,1.98000X1.98000*%
%ADD60C,1.93500*%
%ADD61C,1.98000*%
%ADD62R,2.25000X2.25000*%
%ADD63C,2.25000*%
%ADD64C,3.40000*%
%ADD65R,1.50000X1.50000*%
%ADD66C,1.35000*%
%ADD67R,1.65000X1.65000*%
%ADD68R,1.21800X1.21800*%
%ADD69C,1.21800*%
%ADD70O,2.50000X5.00000*%
%ADD71O,4.50000X2.25000*%
%ADD72O,2.25000X4.50000*%
%TA.AperFunction,WasherPad*%
%ADD73C,4.00000*%
%TA.AperFunction,ViaPad*%
%ADD74C,0.70000*%
%ADD75C,1.00000*%
%ADD76C,2.00000*%
G36*
X6000101Y8834030D02*
X5987179Y8832785D01*
X5973011Y8829064D01*
X5957596Y8822868D01*
X5940936Y8814197D01*
X5923029Y8803050D01*
X5903877Y8789428D01*
X5861832Y8754759D01*
X5838941Y8733711D01*
X5814803Y8710188D01*
X5779448Y8745543D01*
X5802971Y8769681D01*
X5858689Y8834617D01*
X5872310Y8853769D01*
X5883457Y8871676D01*
X5892128Y8888336D01*
X5898324Y8903751D01*
X5902045Y8917918D01*
X5903290Y8930840D01*
X6000101Y8834030D01*
D02*
G37*
G36*
X6642766Y8632085D02*
X6634988Y8637742D01*
X6625796Y8640570D01*
X6615189D01*
X6603168Y8637742D01*
X6589733Y8632085D01*
X6574884Y8623599D01*
X6558621Y8612286D01*
X6540943Y8598144D01*
X6501345Y8561374D01*
X6430634Y8632085D01*
X6450433Y8652591D01*
X6481546Y8689361D01*
X6492860Y8705624D01*
X6501345Y8720473D01*
X6507002Y8733908D01*
X6509830Y8745929D01*
Y8756536D01*
X6507002Y8765728D01*
X6501345Y8773506D01*
X6642766Y8632085D01*
D02*
G37*
G36*
X2936488Y8650463D02*
X2928830Y8637434D01*
X2922073Y8621732D01*
X2916216Y8603357D01*
X2911261Y8582310D01*
X2907207Y8558591D01*
X2901801Y8503135D01*
X2900450Y8471398D01*
X2900000Y8436988D01*
X2850000D01*
X2849549Y8471398D01*
X2842792Y8558591D01*
X2838738Y8582310D01*
X2833783Y8603357D01*
X2827927Y8621732D01*
X2821169Y8637434D01*
X2813512Y8650463D01*
X2804952Y8660820D01*
X2945047D01*
X2936488Y8650463D01*
D02*
G37*
G36*
X6578245Y7607351D02*
X6503469Y7532575D01*
X6502768Y7534048D01*
X6500366Y7537141D01*
X6496263Y7541855D01*
X6435917Y7604152D01*
X6419905Y7620205D01*
X6490615Y7690915D01*
X6578245Y7607351D01*
D02*
G37*
G36*
X6054780Y7786544D02*
X6057438Y7769547D01*
X6062136Y7754550D01*
X6068875Y7741553D01*
X6077653Y7730555D01*
X6088472Y7721557D01*
X6101331Y7714558D01*
X6116231Y7709559D01*
X6133171Y7706560D01*
X6152151Y7705560D01*
X6150139Y7605560D01*
X6131119Y7604607D01*
X6114062Y7601748D01*
X6098966Y7596982D01*
X6085832Y7590310D01*
X6074659Y7581732D01*
X6065448Y7571247D01*
X6058199Y7558856D01*
X6052911Y7544559D01*
X6049585Y7528356D01*
X6048221Y7510247D01*
X5951144Y7656566D01*
X5953156Y7756546D01*
X6054162Y7805540D01*
X6054780Y7786544D01*
D02*
G37*
G36*
X2975076Y7495461D02*
X2978680Y7480275D01*
X2984803Y7463933D01*
X2993447Y7446433D01*
X3004609Y7427777D01*
X3018292Y7407963D01*
X3034494Y7386992D01*
X3074457Y7341579D01*
X3098218Y7317136D01*
X3061353Y7283291D01*
X3036502Y7307549D01*
X2970046Y7365112D01*
X2950592Y7379230D01*
X2932488Y7390812D01*
X2915733Y7399859D01*
X2900328Y7406371D01*
X2886272Y7410348D01*
X2873565Y7411790D01*
X2973991Y7509489D01*
X2975076Y7495461D01*
D02*
G37*
G36*
X5389915Y7058077D02*
X5426721Y7026903D01*
X5442993Y7015559D01*
X5457846Y7007043D01*
X5471278Y7001356D01*
X5483290Y6998497D01*
X5493881Y6998466D01*
X5503052Y7001264D01*
X5510803Y7006891D01*
X5369686Y6865774D01*
X5375312Y6873525D01*
X5378110Y6882696D01*
X5378080Y6893287D01*
X5375221Y6905299D01*
X5369534Y6918731D01*
X5361018Y6933583D01*
X5349674Y6949856D01*
X5335501Y6967549D01*
X5298670Y7007196D01*
X5369381Y7077906D01*
X5389915Y7058077D01*
D02*
G37*
G36*
X5534772Y7001078D02*
X5537772Y6995605D01*
X5542771Y6990776D01*
X5549771Y6986591D01*
X5558771Y6983049D01*
X5569771Y6980152D01*
X5582771Y6977898D01*
X5597772Y6976288D01*
X5633772Y6975001D01*
Y6875000D01*
X5614772Y6874678D01*
X5582771Y6872103D01*
X5569771Y6869849D01*
X5558771Y6866951D01*
X5549771Y6863410D01*
X5542771Y6859225D01*
X5537772Y6854395D01*
X5534772Y6848922D01*
X5533772Y6842805D01*
Y7007196D01*
X5534772Y7001078D01*
D02*
G37*
G36*
X2425700Y5826760D02*
X1769093D01*
X1762761Y5842049D01*
X1750060Y5854749D01*
Y6685280D01*
X2425700D01*
Y5826760D01*
D02*
G37*
G36*
X5090868Y5478304D02*
X5087800Y5474873D01*
X5085055Y5470465D01*
X5082632Y5465077D01*
X5080533Y5458712D01*
X5078757Y5451368D01*
X5077304Y5443046D01*
X5075366Y5423467D01*
X5074881Y5412210D01*
X5074720Y5399975D01*
X5049720Y5403915D01*
X5049636Y5416837D01*
X5046702Y5463970D01*
X5045612Y5469902D01*
X5044354Y5474670D01*
X5042929Y5478272D01*
X5041336Y5480709D01*
X5090868Y5478304D01*
D02*
G37*
G36*
X5891969Y5122554D02*
X5881650Y5112119D01*
X5877513Y5107759D01*
X5876709Y5106842D01*
X5871703Y5100873D01*
X5867251Y5094654D01*
X5863864Y5088792D01*
X5861543Y5083289D01*
X5860286Y5078142D01*
X5860094Y5073355D01*
X5860967Y5068924D01*
X5862905Y5064852D01*
X5865908Y5061138D01*
X5850327Y5076719D01*
X5829177Y5052570D01*
X5825725Y5046918D01*
X5823654Y5042351D01*
X5822962Y5038871D01*
X5772931Y5088902D01*
X5776411Y5089594D01*
X5780978Y5091665D01*
X5786630Y5095117D01*
X5793369Y5099948D01*
X5810106Y5113749D01*
X5811756Y5115290D01*
X5795198Y5131848D01*
X5798912Y5128845D01*
X5802984Y5126907D01*
X5807415Y5126034D01*
X5812202Y5126226D01*
X5817349Y5127483D01*
X5822852Y5129804D01*
X5828714Y5133191D01*
X5834933Y5137643D01*
X5841511Y5143160D01*
X5846179Y5147590D01*
X5856614Y5157909D01*
X5891969Y5122554D01*
D02*
G37*
G36*
X5241122Y5081509D02*
X5271295Y5055499D01*
X5277384Y5051318D01*
X5282891Y5048065D01*
X5287816Y5045742D01*
X5292160Y5044347D01*
X5295922Y5043880D01*
X5260900Y5008858D01*
X5260433Y5012620D01*
X5259038Y5016964D01*
X5256715Y5021889D01*
X5253462Y5027396D01*
X5249281Y5033485D01*
X5238134Y5047408D01*
X5223271Y5063658D01*
X5214447Y5072655D01*
X5232125Y5090333D01*
X5241122Y5081509D01*
D02*
G37*
G36*
X5760893Y5016775D02*
X5752069Y5007778D01*
X5726059Y4977605D01*
X5721878Y4971516D01*
X5719847Y4968077D01*
X5724859Y4963064D01*
X5723003Y4964566D01*
X5720970Y4965539D01*
X5718761Y4965981D01*
X5718609Y4965975D01*
X5716302Y4961083D01*
X5714907Y4956740D01*
X5714440Y4952978D01*
X5706298Y4961120D01*
X5705060Y4960235D01*
X5701790Y4957495D01*
X5698343Y4954225D01*
X5680665Y4971903D01*
X5683936Y4975350D01*
X5686676Y4978620D01*
X5687560Y4979858D01*
X5679418Y4988000D01*
X5683180Y4988466D01*
X5687524Y4989861D01*
X5692415Y4992169D01*
X5692421Y4992320D01*
X5691979Y4994530D01*
X5691007Y4996563D01*
X5689504Y4998419D01*
X5694517Y4993406D01*
X5697956Y4995438D01*
X5704045Y4999618D01*
X5717968Y5010766D01*
X5734218Y5025629D01*
X5743215Y5034453D01*
X5760893Y5016775D01*
D02*
G37*
G36*
X5843153Y4844770D02*
X5842181Y4845477D01*
X5841032Y4845831D01*
X5839706D01*
X5838203Y4845477D01*
X5836524Y4844770D01*
X5834668Y4843709D01*
X5832635Y4842295D01*
X5830426Y4840528D01*
X5825476Y4835932D01*
X5807799Y4853609D01*
X5821272Y4866651D01*
X5843153Y4844770D01*
D02*
G37*
G36*
X4133682Y4837669D02*
X4163855Y4811659D01*
X4169944Y4807478D01*
X4175451Y4804225D01*
X4180376Y4801902D01*
X4184720Y4800507D01*
X4188482Y4800040D01*
X4153460Y4765018D01*
X4152993Y4768780D01*
X4151598Y4773124D01*
X4149275Y4778049D01*
X4146022Y4783556D01*
X4141841Y4789645D01*
X4130694Y4803568D01*
X4115831Y4819818D01*
X4107007Y4828815D01*
X4124685Y4846493D01*
X4133682Y4837669D01*
D02*
G37*
G36*
X5511524Y4691468D02*
X5506574Y4684397D01*
X5503039Y4677326D01*
X5500918Y4670255D01*
X5500210Y4663183D01*
X5500918Y4656112D01*
X5503039Y4649041D01*
X5506574Y4641970D01*
X5507044Y4641299D01*
X5507565Y4640910D01*
X5513234Y4637386D01*
X5518503Y4634877D01*
X5523370Y4633381D01*
X5527838Y4632898D01*
X5531904Y4633429D01*
X5535570Y4634974D01*
X5538836Y4637533D01*
X5470477Y4569174D01*
X5473482Y4572886D01*
X5475427Y4576952D01*
X5476311Y4581371D01*
X5476134Y4586144D01*
X5474896Y4591271D01*
X5472598Y4596751D01*
X5469240Y4602584D01*
X5468375Y4603794D01*
X5461320Y4607322D01*
X5454249Y4609443D01*
X5447178Y4610151D01*
X5440106Y4609443D01*
X5433035Y4607322D01*
X5425965Y4603787D01*
X5418893Y4598837D01*
X5411822Y4592473D01*
X5429500Y4680861D01*
X5517888Y4698539D01*
X5511524Y4691468D01*
D02*
G37*
G36*
X4923281Y4473804D02*
X4916827Y4467169D01*
X4901491Y4449121D01*
X4897979Y4444093D01*
X4904655Y4437499D01*
X4902787Y4438990D01*
X4900740Y4439948D01*
X4898514Y4440374D01*
X4896109Y4440267D01*
X4895527Y4440123D01*
X4894621Y4438636D01*
X4892192Y4433857D01*
X4890434Y4429388D01*
X4889348Y4425228D01*
X4888932Y4421378D01*
X4879945Y4430365D01*
X4877923Y4428445D01*
X4860245Y4446123D01*
X4862168Y4448142D01*
X4853178Y4457132D01*
X4857029Y4457548D01*
X4861188Y4458634D01*
X4865658Y4460392D01*
X4870436Y4462821D01*
X4872102Y4463836D01*
X4872130Y4463937D01*
X4872297Y4466245D01*
X4871945Y4468364D01*
X4871075Y4470294D01*
X4869687Y4472036D01*
X4875732Y4466066D01*
X4880921Y4469691D01*
X4892644Y4479244D01*
X4898969Y4485027D01*
X4905604Y4491481D01*
X4923281Y4473804D01*
D02*
G37*
G36*
X5235668Y4416319D02*
X5229128Y4409425D01*
X5223648Y4402884D01*
X5219228Y4396697D01*
X5215869Y4390863D01*
X5213571Y4385383D01*
X5212334Y4380257D01*
X5212157Y4375484D01*
X5213041Y4371064D01*
X5214986Y4366998D01*
X5217991Y4363286D01*
X5151109Y4430168D01*
X5154094Y4427890D01*
X5157509Y4426596D01*
X5161354Y4426287D01*
X5165629Y4426961D01*
X5170334Y4428620D01*
X5175470Y4431263D01*
X5181035Y4434890D01*
X5187031Y4439500D01*
X5193457Y4445095D01*
X5200313Y4451674D01*
X5235668Y4416319D01*
D02*
G37*
G36*
X4394832Y4317816D02*
X4390716Y4320365D01*
X4384354Y4322645D01*
X4375746Y4324657D01*
X4364893Y4326401D01*
X4336450Y4329084D01*
X4330055Y4329300D01*
X4328135Y4328980D01*
X4321635Y4327230D01*
X4316135Y4324980D01*
X4311635Y4322230D01*
X4308135Y4318980D01*
X4305635Y4315230D01*
X4304135Y4310980D01*
X4303635Y4306230D01*
Y4330194D01*
X4276944Y4331096D01*
X4252618Y4331230D01*
X4243955Y4381230D01*
X4266955Y4381521D01*
X4303635Y4384295D01*
Y4406230D01*
X4304135Y4401480D01*
X4305635Y4397230D01*
X4308135Y4393480D01*
X4311635Y4390230D01*
X4316135Y4387480D01*
X4320755Y4385590D01*
X4324756Y4385892D01*
X4340290Y4388515D01*
X4353957Y4391720D01*
X4365757Y4395509D01*
X4375691Y4399880D01*
X4383758Y4404833D01*
X4389958Y4410370D01*
X4394832Y4317816D01*
D02*
G37*
G36*
X5640476Y4499339D02*
X5638538Y4495267D01*
X5637665Y4490837D01*
X5637857Y4486049D01*
X5639114Y4480903D01*
X5641436Y4475399D01*
X5644823Y4469537D01*
X5649274Y4463318D01*
X5654791Y4456741D01*
X5655176Y4456335D01*
X5655580Y4455952D01*
X5662121Y4450472D01*
X5668308Y4446053D01*
X5674141Y4442694D01*
X5679621Y4440396D01*
X5684748Y4439158D01*
X5689521Y4438981D01*
X5693940Y4439865D01*
X5698006Y4441810D01*
X5701718Y4444815D01*
X5631008Y4374105D01*
X5634013Y4377817D01*
X5635957Y4381883D01*
X5636841Y4386302D01*
X5636665Y4391075D01*
X5635427Y4396202D01*
X5633129Y4401682D01*
X5629770Y4407515D01*
X5625351Y4413702D01*
X5619871Y4420243D01*
X5619488Y4420647D01*
X5619082Y4421032D01*
X5612505Y4426548D01*
X5606285Y4431000D01*
X5600424Y4434387D01*
X5594920Y4436709D01*
X5589774Y4437966D01*
X5584986Y4438157D01*
X5580556Y4437284D01*
X5576483Y4435346D01*
X5572769Y4432343D01*
X5643479Y4503054D01*
X5640476Y4499339D01*
D02*
G37*
G36*
X4693120Y4282590D02*
X4693827Y4262883D01*
X4695948Y4243762D01*
X4699484Y4225226D01*
X4704434Y4207277D01*
X4710798Y4189913D01*
X4718576Y4173134D01*
X4727768Y4156942D01*
X4738375Y4141335D01*
X4750396Y4126315D01*
X4763831Y4111880D01*
X4643120Y4161880D01*
X4522409Y4353301D01*
X4535844Y4340866D01*
X4547865Y4331845D01*
X4558472Y4326239D01*
X4567664Y4324046D01*
X4575442Y4325268D01*
X4581806Y4329904D01*
X4586756Y4337954D01*
X4590292Y4349419D01*
X4592413Y4364298D01*
X4593120Y4382590D01*
X4693120Y4282590D01*
D02*
G37*
G36*
X5813639Y4316930D02*
X5811901Y4313144D01*
X5811171Y4309000D01*
X5811448Y4304498D01*
X5812734Y4299638D01*
X5815027Y4294420D01*
X5818328Y4288844D01*
X5822637Y4282911D01*
X5827953Y4276619D01*
X5834278Y4269970D01*
X5798922Y4234615D01*
X5792273Y4240939D01*
X5785982Y4246255D01*
X5780048Y4250564D01*
X5774472Y4253865D01*
X5769255Y4256158D01*
X5764395Y4257444D01*
X5759892Y4257721D01*
X5755748Y4256991D01*
X5751962Y4255253D01*
X5748533Y4252508D01*
X5816384Y4320359D01*
X5813639Y4316930D01*
D02*
G37*
G36*
X5481905Y4340768D02*
X5479967Y4336696D01*
X5479094Y4332265D01*
X5479286Y4327478D01*
X5480543Y4322331D01*
X5482864Y4316828D01*
X5486251Y4310966D01*
X5490703Y4304747D01*
X5496220Y4298169D01*
X5496605Y4297763D01*
X5497008Y4297381D01*
X5503549Y4291900D01*
X5509736Y4287481D01*
X5515570Y4284122D01*
X5521050Y4281824D01*
X5526176Y4280587D01*
X5530949Y4280410D01*
X5535369Y4281294D01*
X5539435Y4283238D01*
X5543147Y4286244D01*
X5472436Y4215533D01*
X5475442Y4219245D01*
X5477386Y4223311D01*
X5478270Y4227731D01*
X5478093Y4232504D01*
X5476856Y4237630D01*
X5474558Y4243110D01*
X5471199Y4248944D01*
X5466780Y4255131D01*
X5461299Y4261672D01*
X5460917Y4262075D01*
X5460511Y4262460D01*
X5453933Y4267977D01*
X5447714Y4272429D01*
X5441852Y4275816D01*
X5436349Y4278137D01*
X5431202Y4279394D01*
X5426415Y4279586D01*
X5421984Y4278713D01*
X5417912Y4276775D01*
X5414198Y4273772D01*
X5484908Y4344482D01*
X5481905Y4340768D01*
D02*
G37*
G36*
X5186989Y4268733D02*
X5185818Y4265742D01*
X5185494Y4262395D01*
X5186014Y4258693D01*
X5187381Y4254634D01*
X5189593Y4250219D01*
X5192651Y4245447D01*
X5196554Y4240320D01*
X5201303Y4234837D01*
X5206898Y4228998D01*
X5171542Y4193642D01*
X5165741Y4199209D01*
X5155229Y4207844D01*
X5150519Y4210912D01*
X5146173Y4213147D01*
X5142190Y4214549D01*
X5138571Y4215118D01*
X5135315Y4214854D01*
X5132424Y4213757D01*
X5129896Y4211827D01*
X5189004Y4271367D01*
X5186989Y4268733D01*
D02*
G37*
G36*
X5657655Y4161150D02*
X5657340Y4159396D01*
X5657626Y4157284D01*
X5658513Y4154813D01*
X5660002Y4151985D01*
X5662092Y4148800D01*
X5664783Y4145256D01*
X5671970Y4137095D01*
X5676465Y4132478D01*
X5641110Y4097122D01*
X5636493Y4101618D01*
X5624788Y4111496D01*
X5621602Y4113586D01*
X5618774Y4115075D01*
X5616304Y4115962D01*
X5614192Y4116248D01*
X5612438Y4115932D01*
X5611041Y4115016D01*
X5658572Y4162547D01*
X5657655Y4161150D01*
D02*
G37*
G36*
X4304135Y4157770D02*
X4305635Y4153520D01*
X4308135Y4149770D01*
X4311635Y4146520D01*
X4316135Y4143770D01*
X4321635Y4141520D01*
X4322552Y4141273D01*
X4345359Y4142839D01*
X4358837Y4145179D01*
X4370266Y4147944D01*
X4379647Y4151135D01*
X4386979Y4154752D01*
X4392264Y4158794D01*
Y4066246D01*
X4386979Y4070288D01*
X4379647Y4073905D01*
X4370266Y4077096D01*
X4358837Y4079862D01*
X4345359Y4082202D01*
X4324648Y4084331D01*
X4321635Y4083520D01*
X4316135Y4081270D01*
X4311635Y4078520D01*
X4308135Y4075270D01*
X4305635Y4071520D01*
X4304135Y4067270D01*
X4303635Y4062520D01*
Y4085961D01*
X4270966Y4087307D01*
X4247246Y4087520D01*
Y4137520D01*
X4270966Y4137733D01*
X4303635Y4139975D01*
Y4162520D01*
X4304135Y4157770D01*
D02*
G37*
G36*
X5430427Y4017080D02*
X5431822Y4012736D01*
X5434145Y4007811D01*
X5437398Y4002304D01*
X5441579Y3996215D01*
X5452726Y3982292D01*
X5467589Y3966042D01*
X5476413Y3957045D01*
X5458735Y3939367D01*
X5449738Y3948191D01*
X5419565Y3974201D01*
X5413476Y3978382D01*
X5407969Y3981635D01*
X5403044Y3983958D01*
X5398700Y3985353D01*
X5394938Y3985820D01*
X5429960Y4020842D01*
X5430427Y4017080D01*
D02*
G37*
G36*
X5303395Y3473738D02*
X5360363Y3424201D01*
X5366118Y3420769D01*
X5370805Y3418715D01*
X5374423Y3418040D01*
X5324641Y3367759D01*
X5323934Y3371100D01*
X5321847Y3375545D01*
X5318377Y3381094D01*
X5313527Y3387747D01*
X5299682Y3404366D01*
X5268554Y3437574D01*
X5255415Y3450851D01*
X5290160Y3486817D01*
X5303395Y3473738D01*
D02*
G37*
G36*
X7304893Y2537253D02*
X7296852Y2544087D01*
X7287132Y2550201D01*
X7275733Y2555596D01*
X7262657Y2560272D01*
X7247902Y2564228D01*
X7231468Y2567465D01*
X7213356Y2569983D01*
X7172097Y2572860D01*
X7148950Y2573220D01*
Y2598220D01*
X7172097Y2598580D01*
X7213356Y2601457D01*
X7231468Y2603975D01*
X7247902Y2607212D01*
X7262657Y2611168D01*
X7275733Y2615844D01*
X7287132Y2621239D01*
X7296852Y2627353D01*
X7304893Y2634187D01*
Y2537253D01*
D02*
G37*
D27*
X4218940Y4345940D02*
D03*
Y4117340D02*
D03*
D28*
X5930442Y4877258D02*
D03*
X5768798Y5038902D02*
D03*
X4978858Y4482642D02*
D03*
X5140502Y4320998D02*
D03*
D30*
X5387798Y4366718D02*
D03*
X5549442Y4528362D02*
D03*
X5565598Y4188918D02*
D03*
X5727242Y4350562D02*
D03*
D41*
X5707380Y7889240D02*
Y8638120D01*
X6000040Y8930780D01*
X2875000Y8184160D02*
X4005000Y7054160D01*
Y6925000D02*
Y7054160D01*
X2875000Y8184160D02*
Y8730780D01*
X6268720Y4846320D02*
Y4851732D01*
X6256224Y4864229D02*
X6268720Y4851732D01*
X4206219Y7495927D02*
X5141164Y6560982D01*
X6256224Y4864229D02*
Y5077622D01*
X5141164Y5969162D02*
Y6560982D01*
X4075000Y7506066D02*
X4085139Y7495927D01*
X5773624Y5560222D02*
X6256224Y5077622D01*
X5141164Y5969162D02*
X5550103Y5560222D01*
X4085139Y7495927D02*
X4206219D01*
X5550103Y5560222D02*
X5773624D01*
X5447178Y4663183D02*
X5675613Y4891619D01*
X5140502Y4356508D02*
X5447178Y4663183D01*
X5549442Y4560919D01*
Y4528362D02*
Y4560919D01*
X5189220Y3552402D02*
Y4211320D01*
Y3552402D02*
X5373582Y3368040D01*
X4218940Y4345940D02*
X4229230Y4356230D01*
X4428190D01*
X4438480Y4366520D01*
X4223760Y4112520D02*
X4438480D01*
X3639820Y3846861D02*
X3651479Y3858520D01*
X5675613Y4954253D02*
X5679440Y4958080D01*
X5140502Y4320998D02*
Y4356508D01*
X5675613Y4891619D02*
Y4954253D01*
X3472180Y6319520D02*
Y6907819D01*
X2875000Y7505000D02*
X3472180Y6907819D01*
Y6319520D02*
X3860800Y5930900D01*
Y5377180D02*
Y5930900D01*
Y5377180D02*
X3980180Y5257800D01*
X5139492Y4261048D02*
X5189220Y4211320D01*
X5139492Y4261048D02*
Y4319988D01*
X5584670Y4188918D02*
X5658788Y4114800D01*
X5664200D01*
X5565598Y4188918D02*
X5584670D01*
X5565598D02*
Y4193082D01*
X5726694Y4342198D02*
X5816600Y4252292D01*
X5726694Y4342198D02*
Y4350014D01*
X5491480Y5054600D02*
X5656580Y5219700D01*
Y5356860D01*
X5151070Y4331604D02*
X5214749D01*
X5234669Y4311684D02*
X5236249D01*
X5549442Y4526381D02*
X5725261Y4350562D01*
X5214749Y4331604D02*
X5234669Y4311684D01*
X5772962Y5038902D02*
X5895340Y5161280D01*
X5387798Y4366718D02*
X5391962D01*
X5565598Y4193082D01*
D42*
X6474460Y4554220D02*
X7346221Y3682459D01*
X6207760Y5506720D02*
X6474460Y5240020D01*
Y4554220D02*
Y5240020D01*
X7346221Y3608799D02*
X7353300Y3601720D01*
X7346221Y3608799D02*
Y3682459D01*
X7063740Y4729480D02*
X7216140Y4881880D01*
X7508467D01*
X4075000Y8301577D02*
X5451576Y6925000D01*
X4075000Y8301577D02*
Y8630767D01*
Y8630767D02*
Y8730780D01*
X6005511Y8136251D02*
X6600040Y8730780D01*
X6005511Y7873115D02*
Y8136251D01*
X6001134Y7655560D02*
X6005511Y7873115D01*
X6001134Y7655560D02*
X6455260D01*
X5998231Y7511252D02*
X6001134Y7655560D01*
X6455260D02*
X6600040Y7510780D01*
X5986435Y6924903D02*
X5998231Y7511252D01*
X5451576Y6925000D02*
X5981576D01*
X5986435Y6924903D02*
X6021735D01*
X3736340Y8341107D02*
X4026000Y8630767D01*
Y8681780D01*
X4075000Y8730780D01*
X4643120Y4160546D02*
Y6027420D01*
X4438480Y4366520D02*
X4894580Y3910420D01*
X5374640Y3243580D02*
Y3368040D01*
Y3243580D02*
X7305040Y1313180D01*
X6021735Y6924903D02*
X6340637Y6606000D01*
X5902960Y5811520D02*
X6207760Y5506720D01*
X5588000Y5811520D02*
X5902960D01*
X6340637Y6606000D02*
X6348972D01*
X6685280Y5171440D02*
X7090816Y4765904D01*
X4127240Y6543300D02*
X4643120Y6027420D01*
X3947600Y6543300D02*
X4127240D01*
X4894580Y2438400D02*
Y3910420D01*
X4889500Y2433320D02*
X4894580Y2438400D01*
X7063740Y4594860D02*
Y4729480D01*
Y4594860D02*
X7073900Y4584700D01*
X5768798Y5038902D02*
X5772962D01*
X3947600Y6543300D02*
Y6549072D01*
X7353300Y3601720D02*
X7607300D01*
D43*
X5679440Y4953000D02*
Y4958080D01*
X4914443Y4482642D02*
X4978858D01*
X4853940Y4422140D02*
X4914443Y4482642D01*
X4853940Y4422140D02*
X4853940D01*
X5062220Y5242560D02*
Y5499100D01*
X5067300Y5504180D01*
X5062220Y5242560D02*
X5295900Y5008880D01*
X1625000Y5450000D02*
X2022680D01*
X2322681Y5150000D01*
X3778100Y5150000D02*
X3803500D01*
X4188460Y4765040D01*
X2322681Y5150000D02*
X3778100Y5150000D01*
X1612900Y5437900D02*
X1625000Y5450000D01*
X5776483Y4836160D02*
X5785093Y4844770D01*
X5816637D01*
X5849125Y4877258D02*
X5930442D01*
X5816637Y4844770D02*
X5849125Y4877258D01*
X5765343Y5038902D02*
X5768798D01*
X5679440Y4953000D02*
X5765343Y5038902D01*
X5394960Y4020820D02*
X6830060Y2585720D01*
X7353159D02*
X7353230Y2585790D01*
X6830060Y2585720D02*
X7353159D01*
X4218940Y4117340D02*
X4223760Y4112520D01*
X7331870Y3115150D02*
X7353300Y3093720D01*
D47*
X1875000Y4400000D02*
X1901740D01*
D49*
X1255000Y6605000D02*
X2350000D01*
X500000Y5850000D02*
X1255000Y6605000D01*
X1725000Y1434130D02*
Y2925000D01*
X500000Y4150000D02*
X1725000Y2925000D01*
X500000Y4150000D02*
Y5850000D01*
D51*
X3651479Y4112520D02*
D03*
Y4366520D02*
D03*
Y3858520D02*
D03*
Y4620520D02*
D03*
X4438480D02*
D03*
Y4112520D02*
D03*
Y4366520D02*
D03*
X3947600Y6289300D02*
D03*
X3185600D02*
D03*
X3947600Y6543300D02*
D03*
X5588000Y6065520D02*
D03*
X6350000D02*
D03*
X5588000Y5811520D02*
D03*
X6348972Y6352000D02*
D03*
X5586972D02*
D03*
X6348972Y6606000D02*
D03*
D52*
X4438480Y3858520D02*
D03*
X3185600Y6543300D02*
D03*
X6350000Y5811520D02*
D03*
X5586972Y6606000D02*
D03*
D53*
X7073900Y4584700D02*
D03*
X7327900D02*
D03*
X7581900D02*
D03*
X2834640Y4107180D02*
D03*
D54*
X7835900Y4584700D02*
D03*
D55*
X7353300Y3601720D02*
D03*
X7607300D02*
D03*
X7353300Y3347720D02*
D03*
X7607300D02*
D03*
X7353300Y3093720D02*
D03*
X7607300D02*
D03*
X7353300Y2839720D02*
D03*
X7607300D02*
D03*
X7353300Y2585720D02*
D03*
D56*
X7607300D02*
D03*
D57*
X6511576Y6925000D02*
D03*
X2350000Y5545000D02*
D03*
X4005000Y6925000D02*
D03*
D58*
X5451576Y6925000D02*
D03*
X2945000Y6925000D02*
D03*
D59*
X6600040Y8730780D02*
D03*
X4075000D02*
D03*
D60*
X6000040Y8930780D02*
D03*
X3475000D02*
D03*
D61*
X5400040Y8730780D02*
D03*
Y7510780D02*
D03*
X6600040D02*
D03*
X4075000D02*
D03*
X2875000D02*
D03*
Y8730780D02*
D03*
D62*
X1875000Y4100000D02*
D03*
D63*
Y4400000D02*
D03*
Y4700000D02*
D03*
Y5000000D02*
D03*
Y5300000D02*
D03*
Y5600000D02*
D03*
Y5900000D02*
D03*
X1625000Y4250000D02*
D03*
Y4550000D02*
D03*
Y4850000D02*
D03*
Y5150000D02*
D03*
Y5450000D02*
D03*
Y5750000D02*
D03*
X1325000Y4250000D02*
D03*
Y4550000D02*
D03*
Y4850000D02*
D03*
Y5150000D02*
D03*
Y5450000D02*
D03*
Y5750000D02*
D03*
X1075000Y4100000D02*
D03*
Y4400000D02*
D03*
Y4700000D02*
D03*
Y5000000D02*
D03*
Y5300000D02*
D03*
Y5600000D02*
D03*
Y5900000D02*
D03*
D64*
X425000Y3375000D02*
D03*
Y6625000D02*
D03*
D65*
X2834640Y4361180D02*
D03*
D66*
X246000Y1600000D02*
D03*
X754000D02*
D03*
D67*
X2350000Y6605000D02*
D03*
D68*
X4443800Y1600200D02*
D03*
D69*
X4697800D02*
D03*
X4951800D02*
D03*
D70*
X1425000Y2450000D02*
D03*
D71*
X1125000Y1980000D02*
D03*
D72*
X825000Y2450000D02*
D03*
D73*
X2052320Y1978660D02*
D03*
X7734296Y1587500D02*
D03*
X287434Y8962857D02*
D03*
X7734296Y8956307D02*
D03*
D74*
X7109460Y1071880D02*
D03*
X805357Y5785468D02*
D03*
X6774357Y2994008D02*
D03*
X6433997Y2658728D02*
D03*
X7312837Y6031848D02*
D03*
X4054017Y5419708D02*
D03*
X4452797Y5765148D02*
D03*
X4894757Y5434948D02*
D03*
X5476417Y5424788D02*
D03*
X5844717Y5310488D02*
D03*
X5997117Y5526388D02*
D03*
X6784517Y5307948D02*
D03*
X6136817Y4975208D02*
D03*
X5359577Y5145388D02*
D03*
X5290997Y4114148D02*
D03*
X5209717Y3253088D02*
D03*
X3378200Y4699000D02*
D03*
X5046361Y7067621D02*
D03*
X5560001Y7060001D02*
D03*
X7060001Y6460001D02*
D03*
X1960000Y7060001D02*
D03*
X4360001Y3460001D02*
D03*
X2560000Y7060001D02*
D03*
X7360001D02*
D03*
X3160001Y3460001D02*
D03*
X2560000Y4660001D02*
D03*
X6760001Y5860001D02*
D03*
X1960000Y8260001D02*
D03*
X760000Y7060001D02*
D03*
X3160001Y4660001D02*
D03*
X6460001Y4060001D02*
D03*
X460000Y7660001D02*
D03*
X6160001Y5860001D02*
D03*
X6460001Y1660000D02*
D03*
X1360000Y7060001D02*
D03*
X1060000Y8860001D02*
D03*
X7660001Y6460001D02*
D03*
X7360001Y8260001D02*
D03*
X4660001Y8860001D02*
D03*
X1060000Y7660001D02*
D03*
X7060001D02*
D03*
X1960000Y3460001D02*
D03*
X5260001Y2860001D02*
D03*
X7360001Y2260001D02*
D03*
X4660001Y6460001D02*
D03*
X1660000Y7660001D02*
D03*
Y8860001D02*
D03*
X2260001D02*
D03*
X6160001Y7060001D02*
D03*
X760000Y8260001D02*
D03*
X2560000D02*
D03*
X7060001Y8860001D02*
D03*
X1360000Y8260001D02*
D03*
X2260001Y7660001D02*
D03*
X7060001Y5260001D02*
D03*
X4960001Y8260001D02*
D03*
X6160001Y2260001D02*
D03*
X4360001Y8260001D02*
D03*
X3760001Y7060001D02*
D03*
X760000Y4660001D02*
D03*
X7660001Y7660001D02*
D03*
X6760001Y2260001D02*
D03*
X2560000Y3460001D02*
D03*
X5707380Y7889240D02*
D03*
X2016760Y241300D02*
D03*
X6893560Y309880D02*
D03*
X5328920Y2131060D02*
D03*
X7813421Y5482992D02*
D03*
X6268720Y4846320D02*
D03*
X6891020Y6695440D02*
D03*
X5189220Y4211320D02*
D03*
X4853940Y4422140D02*
D03*
X5664200Y4114800D02*
D03*
X5816600Y4246880D02*
D03*
X5656580Y5356860D02*
D03*
X4386580Y6705600D02*
D03*
X5067300Y5504180D02*
D03*
X2651760Y551180D02*
D03*
X5671820Y3393440D02*
D03*
X5776483Y4836160D02*
D03*
X4188460Y4765040D02*
D03*
X2310620Y3915900D02*
D03*
X1056640Y1390040D02*
D03*
X7914540Y4305300D02*
D03*
X5295900Y5008880D02*
D03*
X5024120Y3581400D02*
D03*
X6753860Y1304100D02*
D03*
X6154155Y3548116D02*
D03*
X3380740Y3766820D02*
D03*
X3916680Y3583940D02*
D03*
X4775071Y3665091D02*
D03*
X5770616Y3184896D02*
D03*
X5895340Y5161280D02*
D03*
X7081520Y4300220D02*
D03*
X6626860Y713740D02*
D03*
X6990080Y1158240D02*
D03*
X4950460Y6141720D02*
D03*
X5102860Y2125980D02*
D03*
X4645660Y2120900D02*
D03*
X7515860Y5748020D02*
D03*
X7266940Y5689600D02*
D03*
X5491480Y5054600D02*
D03*
X5679440Y4953000D02*
D03*
X5394960Y4020820D02*
D03*
X3980180Y5257800D02*
D03*
X3462500Y1575000D02*
D03*
Y2000000D02*
D03*
X3681250D02*
D03*
Y1575000D02*
D03*
X3900000D02*
D03*
Y2000000D02*
D03*
X3243750Y1575000D02*
D03*
X3025000D02*
D03*
Y2000000D02*
D03*
X3243750D02*
D03*
D75*
X2235200Y1582420D02*
D03*
X2578100D02*
D03*
X3469640Y1272540D02*
D03*
X3365500Y5852160D02*
D03*
X3680460Y5849620D02*
D03*
X3520440Y5735320D02*
D03*
X2400300Y2524700D02*
D03*
X3736340Y8341107D02*
D03*
X7305040Y1313180D02*
D03*
X4643120Y5773420D02*
D03*
X5788660Y269240D02*
D03*
X6101080Y271780D02*
D03*
X3817620Y431800D02*
D03*
X3096260Y198120D02*
D03*
X6685280Y5171440D02*
D03*
X1661000Y316600D02*
D03*
X1663700Y660400D02*
D03*
X4889500Y2433320D02*
D03*
X5374640Y3368040D02*
D03*
X7513320Y4881880D02*
D03*
X6207760Y5506720D02*
D03*
X2400300Y1924700D02*
D03*
D76*
X1725000Y1434130D02*
D03*
%TF.MD5,9064884655584845798347f853b85999*%
M02*
