%TF.GenerationSoftware,Altium Limited,Altium Designer,21.8.1 (53)*%
G04 Layer_Color=255*
%FSLAX45Y45*%
%MOMM*%
%TF.SameCoordinates,385564F4-8892-4696-B1AD-25C4AC7C7797*%
%TF.FilePolarity,Positive*%
%TF.FileFunction,Pads,Bot*%
%TF.Part,Single*%
G01*
G75*
%TA.AperFunction,SMDPad,CuDef*%
%ADD27R,1.70000X1.40000*%
G04:AMPARAMS|DCode=28|XSize=1.4mm|YSize=1.7mm|CornerRadius=0mm|HoleSize=0mm|Usage=FLASHONLY|Rotation=135.000|XOffset=0mm|YOffset=0mm|HoleType=Round|Shape=Rectangle|*
%AMROTATEDRECTD28*
4,1,4,1.09602,0.10607,-0.10607,-1.09602,-1.09602,-0.10607,0.10607,1.09602,1.09602,0.10607,0.0*
%
%ADD28ROTATEDRECTD28*%

G04:AMPARAMS|DCode=30|XSize=1.4mm|YSize=1.7mm|CornerRadius=0mm|HoleSize=0mm|Usage=FLASHONLY|Rotation=225.000|XOffset=0mm|YOffset=0mm|HoleType=Round|Shape=Rectangle|*
%AMROTATEDRECTD30*
4,1,4,-0.10607,1.09602,1.09602,-0.10607,0.10607,-1.09602,-1.09602,0.10607,-0.10607,1.09602,0.0*
%
%ADD30ROTATEDRECTD30*%

%TA.AperFunction,ComponentPad*%
%ADD51C,1.30800*%
%ADD52R,1.30800X1.30800*%
%ADD53C,1.50000*%
%ADD54R,1.50000X1.50000*%
%ADD55C,1.37000*%
%ADD56R,1.37000X1.37000*%
%ADD57C,1.65000*%
%ADD58R,1.65000X1.65000*%
%ADD59R,1.98000X1.98000*%
%ADD60C,1.93500*%
%ADD61C,1.98000*%
%ADD62R,2.25000X2.25000*%
%ADD63C,2.25000*%
%ADD64C,3.40000*%
%ADD65R,1.50000X1.50000*%
%ADD66C,1.35000*%
%ADD67R,1.65000X1.65000*%
%ADD68R,1.21800X1.21800*%
%ADD69C,1.21800*%
%ADD70O,2.50000X5.00000*%
%ADD71O,4.50000X2.25000*%
%ADD72O,2.25000X4.50000*%
%TA.AperFunction,WasherPad*%
%ADD73C,4.00000*%
D27*
X4218940Y4345940D02*
D03*
Y4117340D02*
D03*
D28*
X5930442Y4877258D02*
D03*
X5768798Y5038902D02*
D03*
X4978858Y4482642D02*
D03*
X5140502Y4320998D02*
D03*
D30*
X5387798Y4366718D02*
D03*
X5549442Y4528362D02*
D03*
X5565598Y4188918D02*
D03*
X5727242Y4350562D02*
D03*
D51*
X3651479Y4112520D02*
D03*
Y4366520D02*
D03*
Y3858520D02*
D03*
Y4620520D02*
D03*
X4438480D02*
D03*
Y4112520D02*
D03*
Y4366520D02*
D03*
X3947600Y6289300D02*
D03*
X3185600D02*
D03*
X3947600Y6543300D02*
D03*
X5588000Y6065520D02*
D03*
X6350000D02*
D03*
X5588000Y5811520D02*
D03*
X6348972Y6352000D02*
D03*
X5586972D02*
D03*
X6348972Y6606000D02*
D03*
D52*
X4438480Y3858520D02*
D03*
X3185600Y6543300D02*
D03*
X6350000Y5811520D02*
D03*
X5586972Y6606000D02*
D03*
D53*
X7073900Y4584700D02*
D03*
X7327900D02*
D03*
X7581900D02*
D03*
X2834640Y4107180D02*
D03*
D54*
X7835900Y4584700D02*
D03*
D55*
X7353300Y3601720D02*
D03*
X7607300D02*
D03*
X7353300Y3347720D02*
D03*
X7607300D02*
D03*
X7353300Y3093720D02*
D03*
X7607300D02*
D03*
X7353300Y2839720D02*
D03*
X7607300D02*
D03*
X7353300Y2585720D02*
D03*
D56*
X7607300D02*
D03*
D57*
X6511576Y6925000D02*
D03*
X2350000Y5545000D02*
D03*
X4005000Y6925000D02*
D03*
D58*
X5451576Y6925000D02*
D03*
X2945000Y6925000D02*
D03*
D59*
X6600040Y8730780D02*
D03*
X4075000D02*
D03*
D60*
X6000040Y8930780D02*
D03*
X3475000D02*
D03*
D61*
X5400040Y8730780D02*
D03*
Y7510780D02*
D03*
X6600040D02*
D03*
X4075000D02*
D03*
X2875000D02*
D03*
Y8730780D02*
D03*
D62*
X1875000Y4100000D02*
D03*
D63*
Y4400000D02*
D03*
Y4700000D02*
D03*
Y5000000D02*
D03*
Y5300000D02*
D03*
Y5600000D02*
D03*
Y5900000D02*
D03*
X1625000Y4250000D02*
D03*
Y4550000D02*
D03*
Y4850000D02*
D03*
Y5150000D02*
D03*
Y5450000D02*
D03*
Y5750000D02*
D03*
X1325000Y4250000D02*
D03*
Y4550000D02*
D03*
Y4850000D02*
D03*
Y5150000D02*
D03*
Y5450000D02*
D03*
Y5750000D02*
D03*
X1075000Y4100000D02*
D03*
Y4400000D02*
D03*
Y4700000D02*
D03*
Y5000000D02*
D03*
Y5300000D02*
D03*
Y5600000D02*
D03*
Y5900000D02*
D03*
D64*
X425000Y3375000D02*
D03*
Y6625000D02*
D03*
D65*
X2834640Y4361180D02*
D03*
D66*
X246000Y1600000D02*
D03*
X754000D02*
D03*
D67*
X2350000Y6605000D02*
D03*
D68*
X4443800Y1600200D02*
D03*
D69*
X4697800D02*
D03*
X4951800D02*
D03*
D70*
X1425000Y2450000D02*
D03*
D71*
X1125000Y1980000D02*
D03*
D72*
X825000Y2450000D02*
D03*
D73*
X2052320Y1978660D02*
D03*
X7734296Y1587500D02*
D03*
X287434Y8962857D02*
D03*
X7734296Y8956307D02*
D03*
%TF.MD5,57320657089ba0765e88f640cd2896c1*%
M02*
